<svg width="24" height="24" viewBox="0 0 24 24" fill="none" xmlns="http://www.w3.org/2000/svg">
<g clip-path="url(#clip0_7_1694)">
<path d="M23.0398 8.86941C22.262 7.73702 21.3359 6.71392 20.2864 5.82746L23.1182 2.99662C23.69 2.3912 23.6628 1.43685 23.0574 0.865024C22.4757 0.315537 21.566 0.316197 20.9851 0.866485L17.722 4.13056C15.9456 3.24293 13.9847 2.78759 11.999 2.80159C7.53392 2.84433 3.38772 5.12294 0.958174 8.86941C-0.319391 10.7483 -0.319391 13.217 0.958174 15.096C1.73601 16.2284 2.66205 17.2515 3.71159 18.138L0.879763 20.9718C0.290694 21.5608 0.290694 22.5159 0.879763 23.1049C1.46883 23.694 2.4239 23.694 3.01292 23.1049L6.276 19.8409C8.05235 20.7285 10.0133 21.1838 11.999 21.1698C16.4641 21.1272 20.6102 18.8485 23.0398 15.1021C24.3201 13.2218 24.3201 10.7497 23.0398 8.86941ZM3.44521 13.3931C2.86632 12.5441 2.86632 11.4273 3.44521 10.5784C5.29889 7.6375 8.52272 5.84315 11.999 5.81743C13.1705 5.81172 14.3335 6.01604 15.433 6.42058L13.5692 8.28335C11.525 7.41556 9.16438 8.36926 8.29663 10.4134C7.87037 11.4176 7.87037 12.5518 8.29663 13.5559L5.84682 16.0068C4.92262 15.2578 4.11349 14.3772 3.44521 13.3931ZM20.5528 13.3931C18.699 16.334 15.4752 18.1283 11.999 18.154C10.8275 18.1597 9.66443 17.9554 8.56499 17.5509L10.4287 15.6871C12.4729 16.5549 14.8336 15.6012 15.7013 13.557C16.1276 12.5529 16.1276 11.4186 15.7013 10.4145L18.1512 7.96472C19.0753 8.71372 19.8844 9.59433 20.5527 10.5784C21.1317 11.4273 21.1317 12.5441 20.5528 13.3931Z" fill="#7266BA"/>
</g>
<defs>
<clipPath id="clip0_7_1694">
<rect width="24" height="24" fill="white"/>
</clipPath>
</defs>
</svg>
