<svg width="20" height="20" viewBox="0 0 20 20" fill="none" xmlns="http://www.w3.org/2000/svg">
<g clip-path="url(#clip0_5067_63038)">
<path d="M1.0225 6.43449C1.41326 5.98416 1.89622 5.62305 2.43868 5.37562C2.98114 5.12818 3.57044 5.00019 4.16667 5.00032H7.49083L7.21083 3.29949C7.11176 2.70054 7.23129 2.08593 7.54761 1.56777C7.86394 1.04961 8.35598 0.662414 8.934 0.476813C9.51202 0.291212 10.1375 0.31957 10.6964 0.556716C11.2552 0.793861 11.7102 1.22399 11.9783 1.76865L13.5733 5.00032H15.8333C16.938 5.00164 17.997 5.44105 18.7782 6.22217C19.5593 7.00328 19.9987 8.06232 20 9.16699V13.3337C19.9987 14.4383 19.5593 15.4974 18.7782 16.2785C17.997 17.0596 16.938 17.499 15.8333 17.5003H4.75C3.74711 17.4962 2.77902 17.1322 2.02184 16.4746C1.26465 15.817 0.768684 14.9094 0.624168 13.917L0.0366669 9.75032C-0.0460701 9.15926 -0.000867844 8.55733 0.169214 7.98526C0.339296 7.41319 0.630289 6.88434 1.0225 6.43449ZM18.3333 13.3337V9.16699C18.3333 8.50395 18.0699 7.86806 17.6011 7.39922C17.1323 6.93038 16.4964 6.66699 15.8333 6.66699H14.1667V15.8337H15.8333C16.4964 15.8337 17.1323 15.5703 17.6011 15.1014C18.0699 14.6326 18.3333 13.9967 18.3333 13.3337ZM1.69083 9.51615L2.27917 13.6828C2.36518 14.2778 2.6619 14.8222 3.11534 15.2169C3.56878 15.6116 4.14883 15.8305 4.75 15.8337H12.5V6.44532C12.4215 6.3769 12.3565 6.29436 12.3083 6.20199L10.4842 2.50615C10.4158 2.38276 10.319 2.27736 10.202 2.19862C10.0849 2.11988 9.95083 2.07004 9.81075 2.0532C9.67067 2.03636 9.52859 2.053 9.3962 2.10176C9.26381 2.15051 9.14487 2.22999 9.04917 2.33365C8.96729 2.42886 8.90744 2.54096 8.87388 2.66196C8.84031 2.78296 8.83387 2.90988 8.855 3.03365L9.295 5.70032C9.31431 5.81947 9.30751 5.94139 9.27506 6.05766C9.24262 6.17392 9.1853 6.28175 9.10708 6.37368C9.02886 6.46561 8.9316 6.53945 8.82203 6.59009C8.71247 6.64074 8.59321 6.66697 8.4725 6.66699H4.16667C3.80883 6.66694 3.45516 6.74371 3.12954 6.89211C2.80393 7.04051 2.51397 7.25708 2.27926 7.52718C2.04455 7.79729 1.87055 8.11463 1.76904 8.45776C1.66753 8.8009 1.64086 9.16183 1.69083 9.51615Z" fill="#8C8C8C"/>
</g>
<defs>
<clipPath id="clip0_5067_63038">
<rect width="20" height="20" fill="white" transform="matrix(-1 0 0 1 20 0)"/>
</clipPath>
</defs>
</svg>
