<svg width="20" height="20" viewBox="0 0 20 20" fill="none" xmlns="http://www.w3.org/2000/svg">
<path d="M0 5V6.775C0.00354385 7.14795 0.130844 7.50916 0.361917 7.80192C0.592989 8.09468 0.914743 8.30241 1.27667 8.3925C1.62903 8.48898 1.93994 8.69856 2.16155 8.98901C2.38316 9.27945 2.50319 9.63467 2.50319 10C2.50319 10.3653 2.38316 10.7205 2.16155 11.011C1.93994 11.3014 1.62903 11.511 1.27667 11.6075C0.914743 11.6976 0.592989 11.9053 0.361917 12.1981C0.130844 12.4908 0.00354385 12.8521 0 13.225V15C0 15.663 0.263391 16.2989 0.732233 16.7678C1.20107 17.2366 1.83696 17.5 2.5 17.5H5.83333L5.83333 14.1667C5.83333 13.9457 5.92113 13.7337 6.07741 13.5774C6.23369 13.4211 6.44565 13.3333 6.66667 13.3333C6.88768 13.3333 7.09964 13.4211 7.25592 13.5774C7.4122 13.7337 7.5 13.9457 7.5 14.1667L7.5 17.5H15.8333C16.938 17.4987 17.997 17.0593 18.7782 16.2782C19.5593 15.497 19.9987 14.438 20 13.3333V13.225C19.9965 12.8521 19.8692 12.4908 19.6381 12.1981C19.407 11.9053 19.0853 11.6976 18.7233 11.6075C18.371 11.511 18.0601 11.3014 17.8385 11.011C17.6168 10.7205 17.4968 10.3653 17.4968 10C17.4968 9.63467 17.6168 9.27945 17.8385 8.98901C18.0601 8.69856 18.371 8.48898 18.7233 8.3925C19.0853 8.30241 19.407 8.09468 19.6381 7.80192C19.8692 7.50916 19.9965 7.14795 20 6.775V6.66667C19.9987 5.562 19.5593 4.50296 18.7782 3.72185C17.997 2.94073 16.938 2.50132 15.8333 2.5L7.5 2.5V5.83333C7.5 6.05435 7.4122 6.26631 7.25592 6.42259C7.09964 6.57887 6.88768 6.66667 6.66667 6.66667C6.44565 6.66667 6.23369 6.57887 6.07741 6.42259C5.92113 6.26631 5.83333 6.05435 5.83333 5.83333V2.5H2.5C1.83696 2.5 1.20107 2.76339 0.732233 3.23223C0.263391 3.70107 0 4.33696 0 5ZM7.5 9.16667V10.8333C7.5 11.0543 7.4122 11.2663 7.25592 11.4226C7.09964 11.5789 6.88768 11.6667 6.66667 11.6667C6.44565 11.6667 6.23369 11.5789 6.07741 11.4226C5.92113 11.2663 5.83333 11.0543 5.83333 10.8333V9.16667C5.83333 8.94565 5.92113 8.73369 6.07741 8.57741C6.23369 8.42113 6.44565 8.33333 6.66667 8.33333C6.88768 8.33333 7.09964 8.42113 7.25592 8.57741C7.4122 8.73369 7.5 8.94565 7.5 9.16667Z" fill="#F84D4D"/>
</svg>
