<svg width="24" height="24" viewBox="0 0 24 24" fill="none" xmlns="http://www.w3.org/2000/svg">
<g clip-path="url(#clip0_7_550)">
<path d="M19.9999 8V10H22.4999C22.8977 10 23.2793 10.158 23.5606 10.4393C23.8419 10.7206 23.9999 11.1022 23.9999 11.5C23.9999 11.8978 23.8419 12.2794 23.5606 12.5607C23.2793 12.842 22.8977 13 22.4999 13H19.9999V15H22.4999C22.8977 15 23.2793 15.158 23.5606 15.4393C23.8419 15.7206 23.9999 16.1022 23.9999 16.5C23.9999 16.8978 23.8419 17.2794 23.5606 17.5607C23.2793 17.842 22.8977 18 22.4999 18H19.9999V22.5C19.9999 22.8978 19.8419 23.2794 19.5606 23.5607C19.2793 23.842 18.8977 24 18.4999 24C18.1021 24 17.7205 23.842 17.4392 23.5607C17.1579 23.2794 16.9999 22.8978 16.9999 22.5V4.5C17.0012 3.30693 17.4758 2.16311 18.3194 1.31948C19.163 0.475854 20.3068 0.00132343 21.4999 0L22.4999 0C22.8977 0 23.2793 0.158035 23.5606 0.43934C23.8419 0.720644 23.9999 1.10218 23.9999 1.5C23.9999 1.89783 23.8419 2.27936 23.5606 2.56066C23.2793 2.84196 22.8977 3 22.4999 3H21.4999C21.1021 3 20.7205 3.15804 20.4392 3.43934C20.1579 3.72064 19.9999 4.10218 19.9999 4.5V5H22.4999C22.8977 5 23.2793 5.15804 23.5606 5.43934C23.8419 5.72064 23.9999 6.10218 23.9999 6.5C23.9999 6.89783 23.8419 7.27936 23.5606 7.56066C23.2793 7.84197 22.8977 8 22.4999 8H19.9999ZM15.9999 19.25C16.0035 20.1782 15.7343 21.0869 15.2257 21.8634C14.7172 22.6398 13.9917 23.2497 13.1394 23.6173C12.2871 23.9848 11.3456 24.0938 10.4318 23.9307C9.51811 23.7677 8.67244 23.3397 7.99991 22.7C7.52001 23.1535 6.95064 23.5016 6.32832 23.7222C5.70599 23.9428 5.04445 24.0309 4.38609 23.9809C3.72773 23.9308 3.08709 23.7438 2.50524 23.4317C1.92339 23.1196 1.41318 22.6894 1.00731 22.1686C0.601436 21.6478 0.308865 21.048 0.148352 20.4076C-0.0121609 19.7671 -0.0370732 19.1002 0.0752121 18.4495C0.187497 17.7989 0.434502 17.1789 0.800391 16.6293C1.16628 16.0797 1.64298 15.6126 2.19992 15.258C3.35392 13.858 4.91192 11.758 6.21292 9.784C4.48992 6.946 2.99992 3.829 2.99992 1.5C2.99992 1.10218 3.15795 0.720644 3.43926 0.43934C3.72056 0.158035 4.10209 0 4.49992 0C4.89774 0 5.27927 0.158035 5.56058 0.43934C5.84188 0.720644 5.99992 1.10218 5.99992 1.5C5.99992 2.808 6.82692 4.768 7.99991 6.865C9.17291 4.765 9.99991 2.807 9.99991 1.5C9.99991 1.10218 10.1579 0.720644 10.4392 0.43934C10.7206 0.158035 11.1021 0 11.4999 0C11.8977 0 12.2793 0.158035 12.5606 0.43934C12.8419 0.720644 12.9999 1.10218 12.9999 1.5C12.9999 3.829 11.5089 6.947 9.78291 9.781C11.0829 11.756 12.6409 13.858 13.7959 15.254C14.4699 15.6807 15.0253 16.2707 15.4106 16.9692C15.7959 17.6678 15.9986 18.4523 15.9999 19.25ZM6.49992 19.25C6.49992 18.9039 6.39728 18.5655 6.20499 18.2778C6.0127 17.99 5.73938 17.7657 5.41961 17.6332C5.09984 17.5008 4.74798 17.4661 4.40851 17.5336C4.06904 17.6012 3.75722 17.7678 3.51248 18.0126C3.26774 18.2573 3.10107 18.5691 3.03355 18.9086C2.96602 19.2481 3.00068 19.5999 3.13313 19.9197C3.26558 20.2395 3.48989 20.5128 3.77767 20.7051C4.06546 20.8974 4.4038 21 4.74992 21C5.21388 20.9995 5.65869 20.8149 5.98677 20.4869C6.31484 20.1588 6.49939 19.714 6.49992 19.25ZM7.99991 15.8C8.47547 15.3575 9.03669 15.0171 9.64891 14.8C9.14891 14.142 8.58591 13.362 7.99991 12.516C7.41391 13.362 6.84791 14.142 6.35092 14.8C6.96314 15.0171 7.52436 15.3575 7.99991 15.8ZM12.9999 19.246C12.9991 18.9001 12.8958 18.5621 12.703 18.2748C12.5103 17.9876 12.2367 17.7639 11.9168 17.6321C11.597 17.5002 11.2453 17.4661 10.9061 17.5341C10.5669 17.6021 10.2554 17.7691 10.0111 18.014C9.76673 18.2589 9.60045 18.5707 9.53325 18.9101C9.46605 19.2494 9.50094 19.6011 9.63351 19.9206C9.76608 20.2402 9.99038 20.5132 10.2781 20.7053C10.5658 20.8975 10.904 21 11.2499 21C11.7139 20.9995 12.1587 20.8149 12.4868 20.4869C12.8148 20.1588 12.9994 19.714 12.9999 19.25V19.246Z" fill="#374957"/>
</g>
<defs>
<clipPath id="clip0_7_550">
<rect width="24" height="24" fill="white"/>
</clipPath>
</defs>
</svg>
