<svg width="20" height="26" viewBox="0 0 20 26" fill="none" xmlns="http://www.w3.org/2000/svg">
<path d="M11.6351 0.40938C11.5498 0.395283 11.4638 0.383301 11.3778 0.383301C11.3679 0.383301 11.3581 0.384006 11.3482 0.384711C11.3172 0.384006 11.2869 0.383301 11.2559 0.383301C10.9366 0.383301 10.6166 0.383301 10.2973 0.383301C9.75666 0.383301 9.21534 0.383301 8.67472 0.383301C8.02062 0.383301 7.36652 0.383301 6.71243 0.383301C6.06044 0.383301 5.40846 0.383301 4.75578 0.383301C4.2208 0.383301 3.68582 0.383301 3.15084 0.383301C2.84141 0.383301 2.53128 0.383301 2.22185 0.383301C2.19225 0.383301 2.16265 0.384006 2.13375 0.384711C2.12811 0.384711 2.12318 0.383301 2.11754 0.383301C1.86379 0.383301 1.60652 0.456605 1.3845 0.575724C0.888991 0.841451 0.654277 1.36938 0.627493 1.91282C0.61974 2.07916 0.636656 2.24409 0.652163 2.40903C0.671898 2.61978 0.691634 2.83053 0.710665 3.04127C0.752251 3.49097 0.793132 3.94066 0.833308 4.39035C0.887581 4.98947 0.94115 5.58929 0.995423 6.18841C1.05886 6.89255 1.12159 7.59669 1.18503 8.30083C1.2534 9.06841 1.32247 9.83599 1.39084 10.6036C1.46062 11.3831 1.5297 12.1627 1.59948 12.9415C1.66644 13.6915 1.73269 14.4407 1.79965 15.1907C1.85956 15.8659 1.91948 16.5412 1.97939 17.2164C2.02873 17.7726 2.07807 18.328 2.12741 18.8841C2.16194 19.276 2.19719 19.6679 2.23172 20.0598C2.24793 20.243 2.26274 20.4256 2.28036 20.6089C2.28106 20.6166 2.28177 20.6237 2.28247 20.6314C2.28247 20.6321 2.28247 20.6321 2.28247 20.6328C2.28247 20.9747 2.28247 21.3158 2.28247 21.6577C2.28247 22.2518 2.28247 22.846 2.28247 23.4402C2.28247 23.6348 2.28247 23.8293 2.28247 24.0238C2.28247 24.0795 2.28106 24.1345 2.2867 24.1902C2.3452 24.7223 2.63701 25.2157 3.11842 25.4723C3.68934 25.7768 4.36529 25.7091 4.99049 25.7091C5.01516 25.7091 5.03983 25.7091 5.0645 25.7091C5.07296 25.7091 5.08141 25.7091 5.08987 25.7091C5.87437 25.7091 6.65886 25.7091 7.44335 25.7091C7.76476 25.7091 8.08617 25.7091 8.40829 25.7091C8.41675 25.7091 8.42591 25.7091 8.43437 25.7091C8.66838 25.7091 8.90309 25.7091 9.1371 25.7091C9.45851 25.7091 9.78415 25.7028 10.0908 25.5963C10.6462 25.4039 11.0797 24.9458 11.1868 24.36C11.2312 24.1169 11.2157 23.8702 11.2157 23.6242C11.2157 23.0406 11.2157 22.457 11.2157 21.8726C11.2157 21.4666 11.2234 21.06 11.2157 20.654C11.2157 20.6476 11.2157 20.6406 11.2157 20.6342C11.2157 20.6335 11.2157 20.6335 11.2157 20.6328C11.227 20.5081 11.2375 20.3833 11.2488 20.2585C11.2791 19.9139 11.3101 19.5692 11.3404 19.2245C11.3863 18.7051 11.4328 18.1849 11.4786 17.6654C11.5364 17.012 11.5942 16.3593 11.6527 15.7059C11.7182 14.9701 11.7831 14.2342 11.8486 13.4984C11.9177 12.7223 11.9868 11.9456 12.0559 11.1696C12.1249 10.3977 12.1933 9.62524 12.2624 8.85343C12.3272 8.13026 12.3914 7.40709 12.4562 6.68392C12.5126 6.05449 12.569 5.42577 12.6261 4.79634C12.6705 4.30577 12.7149 3.8152 12.76 3.32462C12.7663 3.25625 12.7727 3.18788 12.779 3.11951C12.7847 3.09414 12.7875 3.06806 12.7861 3.04198C12.8101 2.78189 12.8333 2.5218 12.8594 2.26171C12.908 1.75211 12.8122 1.20727 12.4449 0.827354C12.2314 0.607442 11.936 0.458719 11.6351 0.40938ZM5.44018 23.8589C5.44018 23.861 5.44018 23.8624 5.44018 23.8645C5.44018 23.8652 5.44018 23.8659 5.44018 23.8666C5.44018 23.8645 5.44018 23.8631 5.44018 23.861C5.44018 23.8603 5.44018 23.8596 5.44018 23.8589ZM6.02661 25.0036C5.83137 25.0036 5.63542 25.0036 5.44018 25.0036C5.44018 24.852 5.44018 24.7005 5.44018 24.5489C5.44018 24.5433 5.44018 24.537 5.44018 24.5313C5.44018 24.3671 5.44018 24.2029 5.44018 24.0386C5.44018 24.033 5.44018 24.0274 5.44018 24.021C5.44018 23.9787 5.44018 23.9364 5.44018 23.8934C5.44018 23.8899 5.44018 23.8871 5.44018 23.8836C5.44018 23.8786 5.44018 23.873 5.44018 23.8681C5.44864 23.8406 5.45075 23.8265 5.44934 23.8215C5.44793 23.8272 5.44582 23.8321 5.44441 23.8377C5.443 23.8434 5.4423 23.849 5.44159 23.8547C5.443 23.8427 5.44511 23.8314 5.44723 23.8194C5.44864 23.8187 5.44934 23.8194 5.45005 23.8215C5.45216 23.8152 5.45428 23.8089 5.45639 23.8025C5.4571 23.8018 5.4578 23.8011 5.45921 23.7997C5.46837 23.7891 5.49939 23.756 5.48177 23.768C5.4867 23.763 5.49093 23.7581 5.49586 23.7532C5.50009 23.7489 5.50362 23.7447 5.50785 23.7412C5.51137 23.7391 5.51419 23.737 5.51771 23.7348C5.52194 23.732 5.52547 23.7299 5.5297 23.7271C5.53674 23.7229 5.54802 23.7172 5.55859 23.7116C5.57058 23.7081 5.59877 23.6968 5.61428 23.6918C5.61851 23.6904 5.62274 23.689 5.62697 23.6883C5.65516 23.6806 5.68406 23.6756 5.71225 23.6693C5.73551 23.6686 5.75948 23.6651 5.78344 23.6644C5.79613 23.6637 5.80882 23.6637 5.82221 23.6637C5.82714 23.6637 5.83137 23.6637 5.8363 23.6637C5.85181 23.6637 5.86661 23.6637 5.88212 23.6637C6.00688 23.6637 6.13163 23.6637 6.25639 23.6637C6.36423 23.6637 6.47137 23.6637 6.57921 23.6637C6.69622 23.6637 6.81252 23.6637 6.92952 23.6637C6.96265 23.6637 6.99507 23.6637 7.0282 23.6637C7.10855 23.6637 7.1889 23.6637 7.26926 23.6637C7.35243 23.6637 7.4363 23.6637 7.51948 23.6637C7.566 23.6637 7.61252 23.6637 7.65904 23.6637C7.69639 23.6644 7.73304 23.6665 7.7697 23.6679C7.77463 23.6686 7.77956 23.6686 7.7845 23.6693C7.79155 23.67 7.79789 23.6714 7.80212 23.6721C7.80282 23.6721 7.80423 23.6721 7.80494 23.6728C7.81481 23.6749 7.82468 23.6777 7.83454 23.6799C7.8571 23.6848 7.87965 23.6904 7.90221 23.6975C7.90573 23.6989 7.90926 23.6996 7.91278 23.701H7.91349C7.91349 23.701 7.91348 23.701 7.91278 23.7003L7.91349 23.701C7.9156 23.7017 7.91701 23.7024 7.91912 23.7024C7.92265 23.7031 7.92406 23.7038 7.92688 23.7045C7.9304 23.7059 7.93393 23.7081 7.93815 23.7102C7.94097 23.7109 7.94238 23.7116 7.9445 23.7123C7.94379 23.7123 7.94309 23.7123 7.94097 23.7116C7.94097 23.7116 7.94097 23.7116 7.94027 23.7116C7.93956 23.7109 7.93886 23.7109 7.93745 23.7102C7.9297 23.7074 7.91983 23.7038 7.91349 23.701L7.91278 23.7003H7.91208C7.91208 23.7003 7.91278 23.7003 7.91278 23.701C7.91207 23.7003 7.91137 23.7003 7.91067 23.7003C7.90926 23.7017 7.91983 23.7095 7.93252 23.713C7.94661 23.72 7.96212 23.7264 7.97551 23.7334C7.98115 23.737 7.98679 23.7398 7.99172 23.7433C7.99595 23.7475 8.00371 23.7581 8.01216 23.768C8.01287 23.7666 8.01357 23.7666 8.01428 23.7666C8.0171 23.7708 8.02203 23.7771 8.02908 23.787C8.02344 23.7821 8.0178 23.775 8.01146 23.768C8.01005 23.7722 8.01498 23.7828 8.03049 23.7905C8.02979 23.7891 8.02978 23.7884 8.02908 23.787C8.02978 23.7884 8.03049 23.7898 8.03119 23.7905H8.03049C8.03613 23.8039 8.03965 23.811 8.04106 23.8131C8.04388 23.8244 8.04741 23.8356 8.05023 23.8469C8.04882 23.8709 8.05093 23.8836 8.05375 23.885C8.05375 23.9209 8.05375 23.9576 8.05375 23.9935C8.05375 24.3304 8.05375 24.6666 8.05375 25.0036C7.3778 25.0036 6.70256 25.0036 6.02661 25.0036ZM8.05375 23.8596C8.05375 23.861 8.05375 23.8631 8.05375 23.8645C8.05375 23.8624 8.05375 23.8603 8.05304 23.8582C8.05304 23.8582 8.05375 23.8589 8.05375 23.8596ZM10.508 24.1563C10.5031 24.1824 10.4989 24.2085 10.4932 24.2339C10.4841 24.274 10.4728 24.3135 10.4601 24.3523C10.4537 24.3727 10.446 24.3925 10.4389 24.4129C10.4389 24.4136 10.4389 24.4136 10.4382 24.4143C10.415 24.4629 10.3903 24.5102 10.3614 24.556C10.348 24.5771 10.3346 24.5969 10.3205 24.6173C10.3255 24.611 10.3304 24.6053 10.3346 24.6004C10.329 24.606 10.3241 24.6124 10.3191 24.6194C10.3184 24.6201 10.3177 24.6215 10.317 24.6222C10.2909 24.6596 10.3008 24.6434 10.3156 24.6229C10.3114 24.6286 10.3071 24.6335 10.3029 24.6385C10.2606 24.6871 10.2148 24.7301 10.1662 24.7724C10.157 24.7787 10.1486 24.7858 10.1394 24.7914C10.1091 24.8118 10.0774 24.8316 10.0456 24.8492C10.0139 24.8668 9.9815 24.8823 9.94908 24.8978C9.93005 24.9049 9.91172 24.9119 9.89269 24.9183C9.80529 24.9479 9.71648 24.9676 9.62556 24.9845C9.62062 24.9852 9.61639 24.9866 9.61287 24.9866C9.58961 24.9888 9.56635 24.9916 9.54309 24.9937C9.48741 24.9986 9.43243 25.0007 9.37675 25.0015C9.34362 25.0022 9.31049 25.0015 9.27736 25.0015C9.11313 25.0015 8.9489 25.0015 8.78467 25.0015C8.78467 24.6836 8.78467 24.3657 8.78467 24.0478C8.78467 23.9872 8.78467 23.9273 8.78467 23.8666C8.78467 23.8652 8.78467 23.8638 8.78467 23.8624C8.7889 23.6911 8.73111 23.5283 8.63525 23.3902C8.6134 23.357 8.58943 23.3246 8.56335 23.2936C8.47384 23.1893 8.36811 23.1181 8.25322 23.0681C8.06644 22.9828 7.85216 22.9567 7.64987 22.9567C7.64917 22.9567 7.64776 22.9567 7.64705 22.9567C7.4941 22.9511 7.33904 22.9567 7.18608 22.9567C7.01904 22.9567 6.85199 22.9567 6.68494 22.9567C6.60388 22.9567 6.52212 22.9567 6.44106 22.9567C6.31701 22.9567 6.19296 22.9567 6.0689 22.9567C5.98785 22.9567 5.90679 22.956 5.82573 22.9567C5.81727 22.9567 5.80952 22.9574 5.80106 22.9574C5.7926 22.9574 5.78344 22.9581 5.77498 22.9581C5.60159 22.963 5.42397 22.9905 5.26326 23.0589C5.2534 23.0631 5.24353 23.0674 5.23366 23.0716C5.22591 23.0751 5.21815 23.0786 5.2104 23.0829C5.11172 23.1301 5.0215 23.1935 4.94608 23.2767C4.78538 23.455 4.70996 23.6728 4.70996 23.9096C4.70996 23.9153 4.70996 23.9216 4.70996 23.928C4.70996 24.2811 4.70996 24.6349 4.70996 24.9881C4.70996 24.9923 4.70996 24.9972 4.70996 25.0015C4.60071 25.0015 4.49146 25.0015 4.38221 25.0015C4.2941 25.0015 4.206 25.0022 4.11789 25.0015C4.06644 25.0007 4.01498 24.9986 3.96353 24.9944C3.93886 24.9923 3.91489 24.9902 3.89093 24.9874C3.88741 24.9874 3.88529 24.9866 3.88318 24.9866C3.87965 24.9859 3.87542 24.9852 3.86908 24.9838C3.77886 24.9669 3.68934 24.9472 3.60194 24.9176C3.58432 24.9119 3.5667 24.9049 3.54908 24.8985C3.51595 24.8816 3.48141 24.8668 3.44899 24.8485C3.41939 24.8316 3.39049 24.814 3.36229 24.7956C3.35102 24.7879 3.33974 24.7801 3.32846 24.7724C3.28053 24.7301 3.23401 24.6871 3.19172 24.6385C3.18679 24.6328 3.18186 24.6272 3.17692 24.6208C3.16212 24.599 3.14661 24.5778 3.13322 24.5553C3.10503 24.5095 3.08036 24.4622 3.0571 24.4143C3.04934 24.3939 3.04159 24.3727 3.03454 24.3523C3.01269 24.2867 2.9993 24.2205 2.98591 24.1535C2.9852 24.1472 2.9852 24.1408 2.9845 24.1345C2.98379 24.1112 2.9845 24.088 2.9845 24.0647C2.9845 23.8955 2.9845 23.7264 2.9845 23.5565C2.9845 22.9807 2.9845 22.4048 2.9845 21.8289C2.9845 21.5477 2.99155 21.2658 2.99014 20.9838C3.14379 20.9838 3.29815 20.9838 3.45181 20.9838C4.10802 20.9838 4.76423 20.9838 5.42045 20.9838C6.21128 20.9838 7.00141 20.9838 7.79225 20.9838C8.47595 20.9838 9.15965 20.9838 9.84335 20.9838C10.0647 20.9838 10.286 20.9874 10.508 20.9874C10.508 21.1967 10.508 21.4067 10.508 21.6161C10.508 22.2018 10.508 22.7875 10.508 23.3733C10.5094 23.6326 10.5271 23.8984 10.508 24.1563ZM11.7951 6.18841C11.7316 6.89255 11.6689 7.59669 11.6062 8.30083C11.5378 9.06841 11.4687 9.83599 11.4004 10.6036C11.3306 11.3831 11.2615 12.1627 11.1924 12.9415C11.1255 13.6915 11.0592 14.4407 10.9923 15.1907C10.9323 15.8659 10.8724 16.5412 10.8125 17.2164C10.7632 17.7726 10.7138 18.328 10.6645 18.8841C10.63 19.276 10.5947 19.6679 10.5602 20.0598C10.5538 20.1331 10.5461 20.2064 10.539 20.2804C10.3734 20.2804 10.2078 20.2804 10.0414 20.2804C9.3852 20.2804 8.72899 20.2804 8.07278 20.2804C7.28194 20.2804 6.49181 20.2804 5.70097 20.2804C5.01727 20.2804 4.33357 20.2804 3.64987 20.2804C3.41868 20.2804 3.18608 20.274 2.95349 20.2748C2.95278 20.2691 2.95278 20.2635 2.95208 20.2578C2.92177 19.9132 2.89075 19.5685 2.86045 19.2238C2.81463 18.7044 2.76811 18.1842 2.72229 17.6647C2.6645 17.0113 2.606 16.3586 2.5482 15.7052C2.48265 14.9694 2.4171 14.2335 2.35225 13.4977C2.28318 12.7216 2.2141 11.9449 2.14503 11.1689C2.07595 10.397 2.00758 9.62453 1.93851 8.85273C1.87366 8.12956 1.80952 7.40638 1.74467 6.68321C1.68829 6.05379 1.6319 5.42506 1.57481 4.79564C1.53251 4.32832 1.49022 3.86101 1.44723 3.3937C1.69604 3.3937 1.94485 3.3937 2.19366 3.3937C2.20353 3.3937 2.2134 3.3937 2.22397 3.3937C3.11912 3.3937 4.01498 3.3937 4.91014 3.3937C4.91648 3.3937 4.92212 3.3937 4.92846 3.3937C6.01745 3.3937 7.10644 3.3937 8.19542 3.3937H8.19613C9.13639 3.3937 10.0767 3.3937 11.0176 3.3937C11.3602 3.3937 11.7041 3.39934 12.0467 3.39793C12.0474 3.39793 12.0481 3.39793 12.0481 3.39793C12.0178 3.7285 11.9875 4.05978 11.9579 4.39035C11.9029 4.98947 11.8486 5.58859 11.7951 6.18841Z" fill="#8B87A4"/>
<path d="M10.3184 24.6202C10.3191 24.6195 10.3191 24.6187 10.3198 24.618C10.3184 24.6202 10.317 24.6216 10.3156 24.6237C10.3163 24.6223 10.3177 24.6209 10.3184 24.6202Z" fill="#8B87A4"/>
<path d="M19.3884 23.4085C19.3884 22.3886 19.3884 21.3687 19.3884 20.3488C19.3884 19.4748 19.3884 18.6008 19.3884 17.7267C19.3884 17.6795 19.3884 17.633 19.3884 17.5858C19.3884 17.571 19.387 17.5562 19.3849 17.5414C19.3588 17.2305 19.16 16.9831 18.8823 16.8852C18.8823 15.8927 18.8823 14.9003 18.8823 13.9079C18.8823 13.0804 18.8823 12.2522 18.8823 11.4247C18.8823 11.3669 18.883 11.3091 18.8823 11.2513C18.876 10.8101 18.599 10.433 18.1824 10.2913C18.1732 10.2878 18.1634 10.2857 18.1535 10.2829C18.1697 10.2159 18.1789 10.1454 18.1796 10.0728C18.1817 9.48921 18.1796 8.9056 18.1796 8.32128C18.1796 8.02172 18.1796 7.72216 18.1796 7.42261C18.1796 7.0723 18.1472 6.7234 18.1119 6.3752C18.021 5.47864 17.8899 4.55036 17.548 3.70948C17.3958 3.3352 17.2189 2.91794 16.7748 2.82419C16.5753 2.7819 16.3808 2.80868 16.1976 2.8975C16.0939 2.94754 15.996 3.01239 15.9022 3.07864C15.702 3.21961 15.5153 3.37961 15.3503 3.56146C14.7681 4.20428 14.427 5.03529 14.2444 5.87476C14.157 6.27864 14.0887 6.70014 14.0837 7.11388C14.0774 7.6538 14.0837 8.19371 14.0837 8.73362C14.0837 9.06701 14.0837 9.4004 14.0837 9.7338C14.0837 9.90789 14.0668 10.1045 14.1042 10.2793C13.9294 10.3216 13.7672 10.4048 13.6333 10.5387C13.4353 10.7368 13.3401 11.0025 13.3394 11.2795C13.3387 11.5156 13.3394 11.7511 13.3394 11.9872C13.3394 12.9951 13.3394 14.003 13.3394 15.0117C13.3394 15.6418 13.3394 16.2712 13.3394 16.9007C13.0709 17.0134 12.8841 17.2728 12.8756 17.5865C12.8707 17.7831 12.8756 17.9812 12.8756 18.1778C12.8756 19.2175 12.8756 20.2571 12.8756 21.2968C12.8756 22.1426 12.8756 22.9884 12.8756 23.8342C12.8756 23.9583 12.8813 24.0781 12.8989 24.2015C12.9637 24.6575 13.2294 25.055 13.5988 25.3229C13.8835 25.5294 14.2367 25.6288 14.5856 25.6295C14.7181 25.6295 14.8499 25.6295 14.9824 25.6295C15.8846 25.6295 16.7868 25.6351 17.689 25.6295C18.1049 25.6267 18.4904 25.4786 18.8076 25.2115C19.1537 24.9197 19.3517 24.4827 19.3835 24.0358C19.3997 23.8279 19.3884 23.6164 19.3884 23.4085ZM18.1648 11.1512C18.162 11.1456 18.1598 11.1393 18.157 11.1336C18.1627 11.1435 18.1662 11.1505 18.1648 11.1512ZM18.0661 11.0117C18.0605 11.0067 18.052 11.0004 18.0393 10.9912C18.0421 10.9898 18.0527 10.999 18.0661 11.0117ZM17.9865 10.9666C17.9822 10.9652 17.9801 10.9638 17.9752 10.9623C17.9759 10.9609 17.9801 10.963 17.9865 10.9666ZM14.2994 10.9497C14.2924 10.9504 14.2832 10.9518 14.2719 10.9532C14.2726 10.9511 14.2853 10.9497 14.2994 10.9497ZM17.9124 10.9489C17.9075 10.9482 17.9047 10.9482 17.9047 10.9475C17.9047 10.9475 17.9082 10.9482 17.9124 10.9489ZM14.0753 11.1097C14.0724 11.116 14.0703 11.1223 14.0675 11.128C14.071 11.1181 14.0739 11.1097 14.0753 11.1097ZM14.0647 11.1386C14.0696 11.1294 14.0739 11.1202 14.0788 11.1111C14.0858 11.0977 14.0943 11.085 14.102 11.0716C14.1035 11.0695 14.1042 11.0681 14.1056 11.0667C14.1091 11.0624 14.1126 11.0582 14.1168 11.054C14.1316 11.0378 14.1479 11.0237 14.1634 11.0089C14.1648 11.0082 14.1655 11.0082 14.1669 11.0067C14.1866 10.9962 14.2071 10.9842 14.2261 10.9722C14.2261 10.9722 14.2261 10.9722 14.2268 10.9722C14.2416 10.968 14.2564 10.963 14.2712 10.9588C14.279 10.9567 14.2867 10.9553 14.2938 10.9532C14.3008 10.9518 14.3065 10.9511 14.31 10.9497C14.3255 10.9497 14.3396 10.9497 14.3431 10.9497C14.3642 10.9497 14.3854 10.9497 14.4065 10.9497C14.551 10.9497 14.6955 10.9497 14.84 10.9497C14.8717 10.9497 14.9042 10.9497 14.9359 10.9497C15.4124 10.9497 15.8881 10.9497 16.3646 10.9497C16.4386 10.9497 16.5119 10.9497 16.5859 10.9497C16.8256 10.9497 17.0659 10.9511 17.3056 10.9497C17.4339 10.9497 17.5614 10.9497 17.6897 10.9497C17.7383 10.9497 17.7877 10.9497 17.8363 10.9497C17.8476 10.9497 17.8582 10.9497 17.8694 10.9497C17.8716 10.9497 17.8744 10.9497 17.8765 10.9497C17.885 10.9497 17.8835 10.9497 17.9012 10.9504C17.9075 10.9504 17.9124 10.9511 17.9174 10.9511C17.9364 10.9553 17.9681 10.9638 17.9717 10.9652C17.9787 10.9673 17.9865 10.9701 17.9935 10.9722C17.9949 10.9729 17.9949 10.9729 17.9963 10.9736C18.0125 10.9828 18.0316 10.9934 18.0344 10.9948C18.0407 10.999 18.0471 11.0025 18.0534 11.0067C18.0612 11.0117 18.0661 11.0152 18.0689 11.0173C18.0887 11.0371 18.1098 11.061 18.1168 11.0681C18.1176 11.0695 18.1183 11.0702 18.119 11.0716C18.1211 11.0758 18.1387 11.1033 18.1507 11.1252C18.1542 11.135 18.1577 11.1442 18.1605 11.1541C18.1662 11.1717 18.169 11.19 18.1739 11.2076C18.1746 11.2217 18.1753 11.2485 18.1753 11.2485C18.1753 11.252 18.1753 11.2549 18.1753 11.2584C18.1824 11.8808 18.1753 12.5045 18.1753 13.1269C18.1753 14.1863 18.1753 15.2457 18.1753 16.3051C18.1753 16.4834 18.1761 16.6617 18.1768 16.84C17.7715 16.84 17.3655 16.84 16.9602 16.84C15.9875 16.84 15.0155 16.84 14.0428 16.84C14.0428 16.5052 14.0428 16.1704 14.0428 15.8356C14.0428 14.7847 14.0428 13.7345 14.0428 12.6836C14.0428 12.3171 14.0428 11.9498 14.0428 11.5833C14.0428 11.4903 14.0428 11.3972 14.0428 11.3049C14.0428 11.2873 14.0428 11.2704 14.0428 11.2527C14.0428 11.2471 14.0421 11.233 14.0421 11.2182C14.045 11.2041 14.0478 11.1907 14.0513 11.1766C14.0548 11.1738 14.0598 11.1555 14.0647 11.1386ZM14.0492 11.1759C14.0478 11.1886 14.0464 11.2013 14.0442 11.2147C14.045 11.1956 14.0457 11.1773 14.0492 11.1759Z" fill="#8B87A4"/>
</svg>
