<svg width="32" height="20" viewBox="0 0 32 20" fill="none" xmlns="http://www.w3.org/2000/svg">
<path d="M31.4547 15.2154C31.4533 15.2147 31.4526 15.214 31.4526 15.214C30.2729 14.3893 28.2796 13.287 25.7793 13.0208C25.7793 13.0208 22.8627 15.5056 20.0117 16.0895C19.7997 16.1296 19.725 15.9627 19.9919 15.7768C19.9912 15.7754 19.9905 15.774 19.9905 15.774C19.9948 15.7726 19.9983 15.7704 20.0025 15.769C20.0434 15.7416 20.0913 15.7134 20.1476 15.6859C20.4103 15.557 20.7667 15.4126 21.1851 15.2176C24.0044 13.7476 27.2239 10.8987 27.8049 5.75506C27.8923 4.81339 27.252 4.70703 26.9605 4.70703C26.8921 4.70703 26.8428 4.71267 26.8266 4.71549H26.821C25.6758 4.80141 23.6164 5.28387 20.7061 7.23271C20.7061 7.23271 20.6984 7.49331 20.6448 7.93844C20.5026 9.23157 20.0525 12.027 18.7115 13.9801C18.6185 14.1259 18.4537 14.1639 18.4044 14.0611C18.3833 14.0533 18.3819 14.0146 18.3924 13.9589C18.3967 13.9251 18.4058 13.8871 18.4234 13.842C18.4622 13.7216 18.5234 13.5716 18.5777 13.4462C18.5791 13.4434 18.5798 13.4406 18.5812 13.4377C18.5868 13.4251 18.5925 13.4124 18.5981 13.4004C18.6256 13.342 18.6523 13.2842 18.677 13.2265C18.6791 13.2215 18.6812 13.2173 18.6833 13.2131C18.6847 13.211 18.6854 13.2081 18.6868 13.206C18.689 13.2018 18.6904 13.1983 18.6911 13.1969C18.6911 13.1962 18.6911 13.1962 18.6918 13.1955C18.6918 13.1948 18.6918 13.1948 18.6918 13.1948C19.0411 12.4059 19.2996 11.646 19.4834 10.9163C19.7257 9.91968 19.8962 8.72657 19.8328 7.42851C19.6468 4.09357 17.9741 1.73623 17.0218 0.652986C16.9866 0.609319 16.9514 0.569172 16.9162 0.533957C16.9155 0.533957 16.9155 0.533956 16.9148 0.533252C16.2781 -0.0992244 15.585 0.616362 15.5512 0.651577C15.5498 0.652282 15.5491 0.652986 15.5491 0.652986C13.6848 2.66663 13.0277 6.95451 13.0277 6.95451C13.0277 6.95451 15.5688 9.58654 16.3971 13.2265C16.4492 13.5406 16.3541 13.6364 16.2534 13.5899C16.2274 13.5828 16.2027 13.5695 16.1823 13.5518L16.1816 13.5504C16.1774 13.5441 16.1605 13.5159 16.1358 13.4624C16.1259 13.4434 16.1168 13.423 16.1083 13.4004C16.1083 13.3997 16.1076 13.399 16.1076 13.3983C16.0802 13.3314 16.0464 13.2412 16.0104 13.1222V13.1215C15.9245 12.8208 15.8287 12.532 15.7252 12.2531C15.5033 11.677 15.173 10.9438 14.6976 10.1859C14.5546 9.96335 14.4067 9.74994 14.2525 9.54569C13.1108 8.03071 11.6782 7.0017 10.2829 6.30372C8.52285 5.42262 6.82333 5.06764 5.84151 4.92608C5.8232 4.92396 5.80489 4.92115 5.78658 4.91833C5.04916 4.82254 4.93506 5.22259 4.91745 5.32613C4.91745 5.32683 4.91745 5.32754 4.91675 5.32754C4.91604 5.33247 4.91604 5.3374 4.91534 5.34162C4.91534 5.34374 4.91534 5.34585 4.91463 5.34726C4.91463 5.34937 4.91463 5.35007 4.91463 5.35007C4.59065 8.90476 7.16774 11.884 7.16774 11.884C7.16774 11.884 8.21083 12.0045 9.66455 12.401C9.71033 12.4137 9.75611 12.4263 9.80118 12.439C9.8857 12.463 9.97092 12.4869 10.0583 12.513C10.0984 12.525 10.1393 12.5369 10.1794 12.5489C11.7895 13.0321 13.7693 13.8364 15.3942 15.1408C15.7682 15.4211 15.8562 15.7141 15.4646 15.5415C15.2625 15.4528 14.1736 14.8175 12.6248 14.2104C12.1149 14.0294 11.6873 13.8779 11.6852 13.8772C11.669 13.8716 11.6535 13.8667 11.638 13.861C11.5725 13.8385 11.5176 13.8195 11.4768 13.8061C11.4676 13.8033 11.4584 13.8005 11.4514 13.7969C11.4465 13.7955 11.4429 13.7941 11.4394 13.7934C11.4253 13.7885 11.4134 13.785 11.4049 13.7822C11.3958 13.7793 11.3901 13.7765 11.3866 13.7758C11.3859 13.7758 11.3859 13.7758 11.3852 13.7758H11.3845C11.1204 13.6885 10.8471 13.6068 10.5682 13.5307C10.0308 13.3877 9.46945 13.2666 8.89402 13.1814C8.87219 13.1786 8.85106 13.175 8.82922 13.1722C8.80176 13.168 8.77358 13.1645 8.74612 13.1609C8.33691 13.106 7.91854 13.0687 7.49243 13.0546H7.4868C7.47201 13.0539 7.45933 13.0532 7.44736 13.0525H7.43961C7.4382 13.0525 7.43538 13.0525 7.43327 13.0518H7.43045C7.41989 13.0518 7.41144 13.0518 7.40439 13.0511C7.40017 13.0511 7.39664 13.0504 7.39453 13.0504C7.39242 13.0504 7.39101 13.0504 7.3889 13.0504C6.26692 13.0215 5.09423 13.1483 3.90746 13.5032L3.90816 13.5025C3.89196 13.5075 3.87506 13.5124 3.85886 13.5173C3.84477 13.5216 3.83139 13.5258 3.81801 13.53C2.6418 13.8864 1.10216 14.6013 0.202752 15.4359C0.202048 15.4366 0.202048 15.4366 0.201344 15.4366C0.201344 15.4366 0.200639 15.4366 0.199935 15.438C0.18937 15.4465 0.141477 15.4873 0.0978089 15.5556C-0.0578451 15.7613 -0.0599581 15.9712 0.331642 16.5318C0.332346 16.5325 0.333051 16.5332 0.333051 16.5339C1.44094 18.1989 5.4154 21.35 13.7961 18.78C13.8151 18.7744 13.8334 18.7694 13.8517 18.7638C13.8545 18.7624 13.858 18.7617 13.8609 18.761C14.0708 18.6948 14.2018 18.6088 14.2666 18.5201C14.3715 18.375 14.2961 18.2229 14.087 18.1391C13.7376 17.9996 13.2594 18.2398 13.2594 18.2398C10.3287 19.604 6.0507 18.9849 5.71685 18.9342C5.70276 18.9321 5.69572 18.9307 5.69572 18.9307C3.77927 18.6004 2.08539 17.8425 1.18457 16.3466C1.17894 16.3381 1.17401 16.329 1.16837 16.3212C0.953554 15.9479 1.12822 15.7049 1.23105 15.6049C1.23105 15.6049 1.23105 15.6049 1.23105 15.6042C1.26064 15.5768 1.28317 15.5606 1.29022 15.5556C1.29233 15.5542 1.29303 15.5542 1.29303 15.5542C1.94946 15.0218 3.52995 13.992 6.14437 13.761C6.66275 13.7152 7.22197 13.7005 7.82276 13.7272C11.1415 13.9737 14.9807 15.8233 16.2246 16.4649C16.2246 16.4649 16.226 16.4663 16.2281 16.467C16.264 16.4853 16.5577 16.6396 16.7979 16.791C16.8458 16.8227 16.8944 16.8551 16.9423 16.8868C16.9451 16.8889 16.9479 16.891 16.9514 16.8924C22.9923 20.8753 26.204 20.4816 31.3969 17.0185C31.4315 16.9967 31.4624 16.9755 31.4927 16.9551C32.6323 16.1494 31.5026 15.2528 31.4547 15.2154Z" fill="#8B87A4"/>
</svg>
