<svg width="20" height="32" viewBox="0 0 20 32" fill="none" xmlns="http://www.w3.org/2000/svg">
<path d="M5.39561 9.25043L0.661161 4.44831C0.661161 4.44831 0.203011 3.93307 0.762659 3.26911L1.56407 2.31757C1.63032 2.23933 1.66557 2.19704 1.66557 2.19704L2.46698 1.24549C3.02662 0.58153 3.61235 0.94523 3.61235 0.94523L9.14821 4.79651L5.39561 9.25043Z" fill="#8B87A4"/>
<path d="M8.87958 7.75197L8.26105 8.48608L14.3458 13.6128L14.9643 12.8787L8.87958 7.75197Z" fill="#8B87A4"/>
<path d="M17.7798 17.588L14.8511 14.0603L15.4932 13.2976L19.4664 15.5862L17.7798 17.588Z" fill="#8B87A4"/>
<path d="M7.19085 9.34049C6.86732 9.06772 6.5438 8.79565 6.22098 8.52287C6.17517 8.4841 6.12935 8.44534 6.08354 8.40728C6.10468 8.55952 6.12583 8.71177 6.14697 8.86472C6.46979 8.48128 6.79332 8.09785 7.11613 7.71441C7.63067 7.10331 8.14521 6.49291 8.66045 5.88181C8.77816 5.74155 8.89658 5.60199 9.01429 5.46172C8.86204 5.48287 8.70979 5.50402 8.55684 5.52516C8.88036 5.79794 9.20389 6.07001 9.52671 6.34278C9.57252 6.38155 9.61834 6.42032 9.66415 6.45838C9.64301 6.30613 9.62186 6.15388 9.60072 6.00093C9.2779 6.38437 8.95437 6.7678 8.63155 7.15124C8.11702 7.76234 7.60248 8.37274 7.08724 8.98384C6.96953 9.1241 6.85111 9.26366 6.7334 9.40393C6.62345 9.53503 6.65658 9.76481 6.79684 9.86137C6.94838 9.96639 7.13658 9.9375 7.25428 9.79794C7.5771 9.4145 7.90063 9.03106 8.22345 8.64763C8.73799 8.03653 9.25252 7.42613 9.76777 6.81503C9.88547 6.67476 10.0039 6.53521 10.1216 6.39494C10.2393 6.25538 10.1879 6.04675 10.0582 5.9375C9.73464 5.66472 9.41111 5.39265 9.08829 5.11987C9.04248 5.08111 8.99666 5.04234 8.95085 5.00428C8.81129 4.88657 8.60265 4.93802 8.4934 5.06772C8.17058 5.45115 7.84706 5.83459 7.52424 6.21802C7.0097 6.82913 6.49517 7.43952 5.97992 8.05062C5.86221 8.19089 5.7438 8.33045 5.62609 8.47071C5.50838 8.61027 5.55983 8.81891 5.68953 8.92816C6.01305 9.20093 6.33658 9.473 6.65939 9.74578C6.70521 9.78454 6.75102 9.82331 6.79684 9.86137C6.92794 9.97133 7.15772 9.9382 7.25428 9.79794C7.35931 9.64569 7.33111 9.4582 7.19085 9.34049Z" fill="#8B87A4"/>
<path d="M8.37429 16.7471C7.75332 16.7471 7.13235 16.7471 6.51067 16.7471C5.69094 16.7471 4.87191 16.7471 4.05217 16.7471C3.85904 16.7471 3.69058 16.7647 3.50944 16.845C3.29517 16.9409 3.11543 17.1213 3.01534 17.3328C2.8927 17.5922 2.8638 17.8734 2.88072 18.1575C2.91103 18.6593 2.93781 19.1612 2.9653 19.663C3.01393 20.5561 3.06257 21.4498 3.1112 22.3428C3.16688 23.3684 3.22186 24.3946 3.27684 25.4202C3.32618 26.3344 3.37481 27.2479 3.42345 28.1621C3.45305 28.7161 3.48265 29.2701 3.51226 29.8241C3.51578 29.8946 3.52142 29.965 3.52213 30.0348C3.52635 30.4063 3.72301 30.7333 4.03243 30.9342C4.31014 31.1146 4.65975 31.1732 4.98539 31.1837C5.36177 31.1964 5.74098 31.1795 6.11807 31.1788C6.76371 31.1774 7.40935 31.1795 8.05429 31.183C8.16072 31.1837 8.26785 31.1844 8.37429 31.1851C8.54486 31.1865 8.70838 31.0343 8.70063 30.8588C8.69288 30.6805 8.55755 30.5339 8.37429 30.5324C7.98451 30.5289 7.59543 30.5275 7.20565 30.5261C6.84336 30.5247 6.48036 30.5247 6.11807 30.5254C5.74944 30.5261 5.3794 30.5402 5.01076 30.531C4.96142 30.5296 4.91138 30.5275 4.86204 30.5233C4.84653 30.5219 4.83103 30.5205 4.81552 30.5191C4.80777 30.5183 4.80072 30.5176 4.79296 30.5169C4.75631 30.5127 4.76336 30.5134 4.8134 30.5198C4.81058 30.512 4.71332 30.5028 4.70063 30.5C4.65975 30.4916 4.61957 30.4817 4.5801 30.4697C4.55191 30.4613 4.52371 30.4521 4.49622 30.4422C4.449 30.4246 4.47508 30.4126 4.51243 30.4507C4.50398 30.4422 4.48001 30.4366 4.46944 30.4309C4.42151 30.4077 4.3771 30.3802 4.3327 30.3506C4.30521 30.333 4.29323 30.3034 4.35666 30.3703C4.34821 30.3612 4.33693 30.3541 4.32777 30.3457C4.31296 30.3323 4.29816 30.3182 4.28407 30.3041C4.26926 30.2893 4.25658 30.2731 4.24248 30.2576C4.21992 30.2329 4.23543 30.2202 4.26997 30.2935C4.26433 30.2815 4.25305 30.2702 4.246 30.259C4.22697 30.2301 4.21217 30.1998 4.19596 30.1694C4.17058 30.1208 4.2312 30.266 4.20653 30.1941C4.20089 30.1786 4.19525 30.1631 4.19102 30.1469C4.18327 30.1208 4.17834 30.0947 4.1727 30.0687C4.1586 30.0017 4.18468 30.1159 4.17904 30.1187C4.17975 30.118 4.17552 30.0856 4.17552 30.082C4.17411 30.0616 4.17552 30.0419 4.17481 30.0214C4.17481 30.0017 4.1727 29.982 4.17199 29.9622C4.14803 29.5196 4.12477 29.0762 4.1008 28.6336C4.05569 27.7864 4.00988 26.9398 3.96477 26.0926C3.9105 25.0819 3.85622 24.0704 3.80195 23.0597C3.75191 22.125 3.70116 21.1897 3.65041 20.2551C3.61658 19.6362 3.58345 19.0181 3.5475 18.3992C3.54327 18.3224 3.53834 18.2449 3.53411 18.168C3.52988 18.0933 3.52565 18.0186 3.52776 17.9432C3.52917 17.9023 3.53481 17.8621 3.53622 17.822C3.53763 17.7747 3.52072 17.9058 3.53481 17.8375C3.53904 17.8184 3.54186 17.7994 3.54609 17.7804C3.55243 17.7508 3.56019 17.7212 3.56935 17.6923C3.57429 17.6761 3.58063 17.6598 3.58627 17.6436C3.60459 17.5901 3.54609 17.7212 3.58556 17.6472C3.60812 17.6049 3.64195 17.5647 3.66098 17.5224C3.62926 17.5922 3.61798 17.5739 3.64336 17.5464C3.65182 17.5372 3.66028 17.5273 3.66944 17.5175C3.68636 17.4998 3.70539 17.4843 3.72371 17.4674C3.76177 17.4315 3.65111 17.5182 3.69411 17.49C3.70186 17.485 3.70962 17.4794 3.71737 17.4738C3.73358 17.4625 3.7505 17.4526 3.76812 17.4428C3.78292 17.4343 3.79843 17.428 3.81323 17.4195C3.83931 17.4061 3.87807 17.4033 3.77023 17.4371C3.78151 17.4336 3.79208 17.4287 3.80336 17.4244C3.82732 17.416 3.85199 17.4082 3.87737 17.4026C3.93094 17.3899 3.98662 17.4047 3.85904 17.4012C3.86961 17.4012 3.88089 17.3991 3.89217 17.3983C4.10785 17.3899 4.32565 17.3983 4.54133 17.3983C4.97622 17.3983 5.41041 17.3983 5.8453 17.3983C6.64107 17.3983 7.43684 17.3983 8.23261 17.3983C8.27984 17.3983 8.32706 17.3983 8.37429 17.3983C8.54486 17.3983 8.70838 17.2482 8.70063 17.072C8.69288 16.8965 8.55755 16.7471 8.37429 16.7471Z" fill="#8B87A4"/>
<path d="M8.36653 17.3997C8.97129 17.3997 9.57675 17.3997 10.1815 17.3997C11.0055 17.3997 11.8294 17.3997 12.6534 17.3997C12.7197 17.3997 12.7852 17.4004 12.8515 17.3997C12.9043 17.399 12.8698 17.4068 12.8078 17.3927C12.8578 17.404 12.9057 17.4152 12.9544 17.4322C13.015 17.4533 12.8663 17.3892 12.9325 17.423C12.9494 17.4315 12.9656 17.4399 12.9819 17.4491C12.9974 17.4582 13.0129 17.4674 13.0277 17.478C13.0368 17.4843 13.046 17.4921 13.0552 17.4977C12.9628 17.4399 13.0108 17.4632 13.0347 17.4843C13.0502 17.4984 13.065 17.5125 13.0791 17.528C13.0883 17.5379 13.096 17.5478 13.1052 17.5576C13.1362 17.5893 13.0798 17.5245 13.0791 17.5231C13.089 17.5478 13.113 17.5717 13.1264 17.5943C13.1369 17.6119 13.1531 17.6662 13.1679 17.6767C13.1376 17.6556 13.1397 17.6049 13.1595 17.6605C13.1644 17.6739 13.1686 17.688 13.1729 17.7014C13.1827 17.7338 13.1912 17.7663 13.1975 17.8001C13.2004 17.8149 13.2004 17.8459 13.2081 17.8586C13.2046 17.853 13.1997 17.7754 13.2046 17.8339C13.2088 17.8868 13.2131 17.939 13.2131 17.9918C13.2131 18.0538 13.2095 18.1152 13.2053 18.1772C13.175 18.6847 13.1482 19.1922 13.12 19.6997C13.0714 20.5807 13.0242 21.4618 12.9762 22.3428C12.9212 23.3571 12.867 24.3721 12.8127 25.3864C12.7641 26.2942 12.7154 27.202 12.6668 28.1106C12.6365 28.6709 12.6069 29.2313 12.5773 29.7916C12.5731 29.8685 12.5667 29.946 12.5653 30.0228C12.5646 30.0461 12.5653 30.0686 12.5639 30.0919C12.5632 30.1011 12.5618 30.1102 12.5611 30.1194C12.566 29.989 12.5738 30.0404 12.566 30.0764C12.5604 30.1046 12.554 30.1321 12.5456 30.1596C12.5406 30.1744 12.5357 30.1885 12.5301 30.2033C12.5096 30.2632 12.5709 30.1187 12.542 30.1751C12.5237 30.2103 12.504 30.2434 12.4828 30.278C12.4462 30.3365 12.5399 30.2117 12.4941 30.2639C12.4786 30.2815 12.4638 30.2984 12.4476 30.3146C12.4328 30.3287 12.418 30.3421 12.4025 30.3562C12.3813 30.3753 12.3433 30.3915 12.4286 30.3372C12.4173 30.3442 12.4067 30.3534 12.3961 30.3604C12.3517 30.3908 12.3045 30.4161 12.2566 30.4394C12.2312 30.4521 12.1847 30.4584 12.2756 30.4323C12.2594 30.4373 12.2439 30.4443 12.2284 30.45C12.1945 30.4619 12.16 30.4725 12.1255 30.4817C12.0945 30.4901 12.0627 30.4972 12.031 30.5042C12.0106 30.5085 11.9908 30.512 11.9704 30.5155C11.9471 30.5197 11.8809 30.519 11.9711 30.5162C11.8823 30.519 11.7942 30.5324 11.7047 30.5338C11.336 30.5395 10.9674 30.5282 10.5988 30.5275C9.9616 30.5261 9.32442 30.5282 8.68724 30.5317C8.5808 30.5324 8.47367 30.5331 8.36724 30.5338C8.19666 30.5352 8.03314 30.6833 8.04089 30.8602C8.04864 31.0357 8.18398 31.1879 8.36724 31.1865C8.76829 31.183 9.16865 31.1816 9.5697 31.1802C9.93763 31.1795 10.3056 31.1788 10.6742 31.1802C11.0506 31.1809 11.4312 31.2027 11.8069 31.183C12.1219 31.1661 12.461 31.1055 12.7267 30.9243C12.9318 30.7848 13.0777 30.6015 13.1644 30.3696C13.2109 30.2441 13.2152 30.113 13.2222 29.9812C13.2455 29.5513 13.268 29.122 13.2913 28.6921C13.3364 27.842 13.3822 26.9927 13.428 26.1427C13.483 25.1157 13.538 24.0887 13.5937 23.0611C13.6444 22.1173 13.6959 21.1735 13.7473 20.2297C13.7812 19.6115 13.8143 18.9941 13.8495 18.376C13.8707 18.0094 13.8869 17.6443 13.7142 17.3053C13.5549 16.993 13.2116 16.7597 12.8578 16.7478C12.6576 16.7407 12.456 16.7478 12.2559 16.7478C11.8168 16.7478 11.3783 16.7478 10.9392 16.7478C10.1301 16.7478 9.32089 16.7478 8.51102 16.7478C8.4638 16.7478 8.41657 16.7478 8.36935 16.7478C8.19878 16.7478 8.03525 16.8979 8.04301 17.0741C8.04794 17.2503 8.18327 17.3997 8.36653 17.3997Z" fill="#8B87A4"/>
<path d="M4.5646 23.2232L4.88107 29.6895H11.9006L12.1692 24.5202C12.1692 24.5202 9.56055 25.4844 7.4735 23.6194C7.4735 23.6187 6.03491 22.5593 4.5646 23.2232Z" fill="#8B87A4"/>
<path d="M11.4777 16.7471C11.2719 16.7471 11.0661 16.7471 10.8603 16.7471C10.3662 16.7471 9.87208 16.7471 9.37799 16.7471C8.77675 16.7471 8.17622 16.7471 7.57499 16.7471C7.05763 16.7471 6.54028 16.7471 6.02292 16.7471C5.772 16.7471 5.51755 16.7358 5.26662 16.7471C5.2631 16.7471 5.25957 16.7471 5.25534 16.7471C5.36389 16.8556 5.47314 16.9649 5.58169 17.0734C5.58169 16.5138 5.58169 15.9534 5.58169 15.3938C5.58169 15.3141 5.58169 15.2352 5.58169 15.1555C5.47314 15.2641 5.36389 15.3733 5.25534 15.4819C5.46116 15.4819 5.66697 15.4819 5.87279 15.4819C6.36689 15.4819 6.86098 15.4819 7.35508 15.4819C7.95631 15.4819 8.55684 15.4819 9.15808 15.4819C9.67543 15.4819 10.1928 15.4819 10.7101 15.4819C10.9611 15.4819 11.2155 15.4931 11.4664 15.4819C11.47 15.4819 11.4735 15.4819 11.4777 15.4819C11.3692 15.3733 11.2599 15.2641 11.1514 15.1555C11.1514 15.7152 11.1514 16.2755 11.1514 16.8352C11.1514 16.9148 11.1514 16.9938 11.1514 17.0734C11.1514 17.244 11.3015 17.4075 11.4777 17.3998C11.6546 17.392 11.8041 17.2567 11.8041 17.0734C11.8041 16.5138 11.8041 15.9534 11.8041 15.3938C11.8041 15.3141 11.8041 15.2352 11.8041 15.1555C11.8041 14.9793 11.6546 14.8292 11.4777 14.8292C11.2719 14.8292 11.0661 14.8292 10.8603 14.8292C10.3662 14.8292 9.87208 14.8292 9.37799 14.8292C8.77675 14.8292 8.17622 14.8292 7.57499 14.8292C7.05763 14.8292 6.54028 14.8292 6.02292 14.8292C5.77129 14.8292 5.51825 14.8221 5.26662 14.8292C5.2631 14.8292 5.25957 14.8292 5.25534 14.8292C5.07913 14.8292 4.929 14.9786 4.929 15.1555C4.929 15.7152 4.929 16.2755 4.929 16.8352C4.929 16.9148 4.929 16.9938 4.929 17.0734C4.929 17.2496 5.07843 17.3998 5.25534 17.3998C5.46116 17.3998 5.66697 17.3998 5.87279 17.3998C6.36689 17.3998 6.86098 17.3998 7.35508 17.3998C7.95631 17.3998 8.55684 17.3998 9.15808 17.3998C9.67543 17.3998 10.1928 17.3998 10.7101 17.3998C10.9618 17.3998 11.2148 17.4068 11.4664 17.3998C11.47 17.3998 11.4735 17.3998 11.4777 17.3998C11.6483 17.3998 11.8118 17.2496 11.8041 17.0734C11.7963 16.8965 11.6603 16.7471 11.4777 16.7471Z" fill="#8B87A4"/>
</svg>
