<svg width="28" height="28" viewBox="0 0 28 28" fill="none" xmlns="http://www.w3.org/2000/svg">
<path d="M22.2334 0.186621C21.3467 0.147149 20.6115 0.926708 20.1527 1.60266C20.073 1.71966 19.9913 1.83525 19.9095 1.95085C19.3456 2.74874 18.781 3.54662 18.2172 4.34521C17.3685 5.54556 16.5206 6.74592 15.672 7.94627C14.8713 9.07896 14.0713 10.2109 13.2706 11.3436C12.9971 11.7299 12.7243 12.1168 12.4508 12.5031C12.3204 12.6878 12.1802 12.8696 12.0575 13.0599C12.0526 13.0677 12.0462 13.0754 12.0406 13.0839C11.9701 13.184 11.9807 13.339 12.0406 13.4398C12.0625 13.4772 12.0822 13.516 12.1012 13.5554C12.1118 13.5773 12.1224 13.5998 12.1322 13.6224C12.1358 13.6301 12.1393 13.6386 12.1428 13.6449C12.1696 13.7105 12.1957 13.7768 12.2189 13.8437C12.2873 14.0375 12.3444 14.2363 12.3867 14.4379C12.393 14.4682 12.398 14.4985 12.4043 14.5288C12.4043 14.5302 12.405 14.5316 12.405 14.5338C12.4064 14.5464 12.4078 14.5591 12.4085 14.5711C12.4135 14.6423 12.417 14.7135 12.4156 14.7847C12.4142 14.8523 12.4099 14.92 12.4029 14.9877C12.4015 15.0004 12.398 15.0307 12.3966 15.0412C12.3909 15.0786 12.3853 15.116 12.3789 15.1533C12.3507 15.3133 12.3141 15.4712 12.276 15.6291C12.1788 16.0287 12.0744 16.4256 11.9899 16.828C11.9215 17.1523 11.8489 17.4786 11.7298 17.7887C11.7241 17.8035 11.7178 17.8183 11.7121 17.8331C11.7121 17.8338 11.7121 17.8338 11.7114 17.8346C11.6988 17.862 11.6868 17.8895 11.6734 17.9163C11.6438 17.9762 11.6121 18.0347 11.5761 18.0911C11.5606 18.1151 11.5444 18.1383 11.5282 18.1616C11.5232 18.1679 11.5176 18.175 11.512 18.1813C11.4718 18.2264 11.4288 18.2673 11.3837 18.3075C11.378 18.3117 11.3717 18.316 11.3661 18.3195C11.3407 18.335 11.316 18.3512 11.2906 18.3653C11.2773 18.3723 11.2632 18.3787 11.2498 18.3857C11.2554 18.3822 11.2068 18.4027 11.1828 18.4097C11.1567 18.4175 11.1299 18.4245 11.1039 18.4308C11.0933 18.4337 11.0573 18.44 11.039 18.4435C11.0214 18.4449 10.9897 18.4485 10.9812 18.4492C10.9389 18.452 10.8966 18.4527 10.8543 18.4527C10.6288 18.4534 10.4032 18.4844 10.1855 18.5443C9.06827 18.8509 8.11179 19.787 7.93065 20.9514C7.82563 21.6238 7.91091 22.3561 8.25065 22.9545C8.46915 23.3387 8.78845 23.6129 9.12113 23.8927C9.17752 23.9406 9.23391 23.9886 9.28536 24.0428C9.29241 24.0499 9.29875 24.0576 9.3051 24.0647C9.31356 24.0816 9.32624 24.1049 9.33823 24.1211C9.33823 24.1218 9.33823 24.1225 9.33893 24.1225C9.33823 24.1316 9.33893 24.1401 9.33893 24.1479C9.33118 24.1979 9.32413 24.2486 9.31849 24.2994C9.30862 24.3783 9.30228 24.4573 9.29946 24.5362C9.27338 25.3101 9.53135 26.0939 9.93735 26.7452C10.1573 27.0983 10.4237 27.4346 10.786 27.6509C11.0151 27.7884 11.309 27.8927 11.5775 27.8208C11.9003 27.7348 12.0159 27.3746 11.8496 27.0983C11.7671 26.9609 11.6424 26.8664 11.5155 26.7727C11.5035 26.7635 11.4662 26.736 11.4535 26.7269C11.4436 26.7191 11.4196 26.7001 11.4161 26.6973C11.4027 26.686 11.3893 26.6754 11.3759 26.6642C11.3153 26.6141 11.2568 26.562 11.2004 26.5077C11.1504 26.459 11.1018 26.409 11.0559 26.3561C11.0355 26.3329 11.0165 26.3089 10.9967 26.2849C10.9911 26.2765 10.9643 26.2391 10.9566 26.2279C10.9185 26.1715 10.8825 26.1123 10.8508 26.0523C10.8332 26.0192 10.817 25.9854 10.8008 25.9516C10.7958 25.941 10.7909 25.9297 10.786 25.9184C10.7839 25.9135 10.7818 25.9064 10.7789 25.8987C10.7247 25.738 10.6788 25.578 10.6499 25.4102C10.6366 25.3313 10.6316 25.296 10.6239 25.1981C10.621 25.16 10.6189 25.122 10.6189 25.0839C10.6189 25.0599 10.6196 25.036 10.621 25.012C10.621 25.0085 10.6232 24.988 10.6239 24.9739C10.6267 24.9584 10.6337 24.9204 10.6358 24.9112C10.6436 24.8774 10.6556 24.8449 10.6647 24.8118C10.6662 24.8069 10.6669 24.8041 10.6676 24.8012C10.669 24.7991 10.6697 24.7977 10.6718 24.7942C10.6894 24.7646 10.7056 24.7336 10.7225 24.704C10.7268 24.6969 10.7324 24.6899 10.7373 24.6821C10.7521 24.668 10.7648 24.6504 10.7796 24.6363C10.798 24.618 10.8177 24.6018 10.836 24.5835C10.8367 24.5827 10.8367 24.5827 10.8367 24.5827C10.8374 24.582 10.8374 24.582 10.8388 24.5813C10.8734 24.5588 10.9072 24.5369 10.9432 24.5172C10.9573 24.5094 10.9714 24.5031 10.9855 24.496C11.0193 24.4855 11.0524 24.4735 11.0869 24.4643C11.7326 24.2987 12.3366 24.0323 12.804 23.5417C13.2128 23.1124 13.4862 22.5612 13.5997 21.9812C13.7188 21.3701 13.6906 20.7434 13.5215 20.1436C13.4447 19.8708 13.3425 19.6065 13.2593 19.3359C13.2177 19.2012 13.1803 19.0645 13.1529 18.9257C13.1465 18.8939 13.1402 18.8615 13.1352 18.8298C13.1317 18.8108 13.1289 18.7917 13.1261 18.7727C13.1169 18.6916 13.1106 18.6113 13.107 18.5295C13.0803 17.7782 13.3537 17.019 13.6357 16.3149C13.8521 15.7743 14.1269 15.2076 14.4195 14.6783C14.4667 14.593 14.5139 14.5077 14.564 14.4238C14.8283 13.9692 15.0933 13.5138 15.3576 13.0592C15.9927 11.9674 16.6284 10.8749 17.2635 9.7831C18.0318 8.46222 18.8001 7.14133 19.5691 5.82045C20.233 4.67931 20.897 3.53816 21.561 2.39702C21.8817 1.84512 22.2193 1.29957 22.5252 0.739219C22.5294 0.731466 22.5343 0.723713 22.5386 0.71596C22.6767 0.478427 22.497 0.198603 22.2334 0.186621ZM12.4057 14.5323C12.4085 14.55 12.4114 14.5845 12.4057 14.5323V14.5323ZM11.4309 27.1378C11.4309 27.1378 11.4253 27.1385 11.4182 27.1385C11.4161 27.1371 11.4147 27.1357 11.4126 27.1336C11.4225 27.1329 11.4302 27.1329 11.4309 27.1378ZM11.801 20.1479C11.8017 20.1486 11.7911 20.1408 11.7819 20.1331C11.7897 20.1373 11.7988 20.1429 11.801 20.1479ZM11.5303 18.1588C11.5458 18.1362 11.5416 18.144 11.5303 18.1588V18.1588ZM9.41787 20.4397C9.41012 20.4502 9.40025 20.4636 9.40025 20.4629C9.40096 20.4587 9.41012 20.4481 9.41787 20.4397ZM12.4565 21.6386C12.4536 21.6886 12.4494 21.738 12.4445 21.7873C12.4438 21.7916 12.4431 21.7972 12.4417 21.8042C12.4367 21.8324 12.4318 21.8606 12.4262 21.8888C12.405 21.991 12.3761 22.0918 12.3402 22.1898C12.3331 22.2095 12.3197 22.2321 12.3155 22.2532C12.3148 22.2553 12.3134 22.2575 12.3127 22.2596C12.2901 22.3096 12.2647 22.359 12.2387 22.4069C12.2161 22.4478 12.1921 22.4879 12.1668 22.5274C12.1463 22.5591 12.1083 22.6437 12.0737 22.6613C12.0723 22.662 12.1195 22.6064 12.0935 22.636C12.0857 22.6444 12.0787 22.6543 12.0716 22.6627C12.0568 22.6804 12.042 22.698 12.0265 22.7156C11.9906 22.7558 11.9532 22.7953 11.9144 22.8326C11.8813 22.865 11.8468 22.896 11.8122 22.9257C11.808 22.9292 11.7988 22.9383 11.7897 22.9475C11.7876 22.9482 11.7833 22.951 11.7756 22.9567C11.7629 22.9658 11.7509 22.975 11.7382 22.9834C11.6565 23.0412 11.5712 23.0927 11.4817 23.1378C11.4612 23.1484 11.4401 23.1583 11.4196 23.1681C11.4091 23.1731 11.3985 23.1773 11.3879 23.1822C11.3527 23.1998 11.4196 23.1674 11.4189 23.1695C11.4112 23.1914 11.2878 23.2182 11.266 23.2252C11.1687 23.2562 11.07 23.2774 10.9692 23.2957H10.9685C10.9446 23.2978 10.9206 23.3006 10.8973 23.302C10.841 23.3063 10.7846 23.3077 10.7282 23.3077C10.6795 23.307 10.6302 23.3049 10.5816 23.3006C10.5618 23.2992 10.5393 23.2943 10.5181 23.2943C10.5069 23.2922 10.4949 23.2908 10.4836 23.2886C10.3863 23.271 10.2905 23.2464 10.1974 23.2153C10.1714 23.2069 10.146 23.1977 10.1206 23.1879C10.11 23.1836 10.0988 23.1787 10.0882 23.1752C10.0508 23.1618 10.1206 23.1871 10.1185 23.1879C10.0995 23.1963 10.0022 23.1329 9.98246 23.1223C9.89364 23.0751 9.80977 23.0208 9.72871 22.963C9.72589 22.9609 9.72519 22.9602 9.72237 22.9588C9.72096 22.9574 9.72025 22.9567 9.71743 22.9545C9.69981 22.9397 9.68219 22.9249 9.66457 22.9101C9.62721 22.877 9.59056 22.8432 9.55532 22.8079C9.52008 22.7727 9.48624 22.736 9.45382 22.698C9.43902 22.6804 9.42422 22.6627 9.40942 22.6444C9.40871 22.6437 9.4073 22.6423 9.4066 22.6409C9.4073 22.6423 9.40801 22.6423 9.40871 22.6437C9.41153 22.6479 9.41294 22.6508 9.41505 22.6529C9.41153 22.6472 9.4073 22.6402 9.40378 22.636C9.40307 22.6353 9.40307 22.6346 9.40237 22.6338C9.40237 22.6331 9.40166 22.6331 9.40166 22.6324C9.34316 22.55 9.28959 22.4654 9.24237 22.3759C9.22968 22.3512 9.16836 22.2631 9.17611 22.2391C9.17611 22.2384 9.2029 22.3061 9.1888 22.2694C9.18457 22.2582 9.18034 22.2476 9.17541 22.2363C9.16554 22.2109 9.15567 22.1849 9.14721 22.1588C9.11338 22.0608 9.0873 21.9607 9.06756 21.8592C9.06404 21.8402 9.06122 21.8212 9.0577 21.8021C9.05629 21.7923 9.05488 21.7824 9.05417 21.7732C9.04853 21.7204 9.04501 21.6668 9.0436 21.6132C9.04078 21.5103 9.04712 21.4088 9.05699 21.3066C9.0577 21.2989 9.0584 21.2911 9.05981 21.2848C9.06404 21.2608 9.06827 21.2368 9.0732 21.2122C9.08448 21.1565 9.09787 21.1015 9.11338 21.0472C9.12677 21.0014 9.14157 20.9556 9.15779 20.9105C9.16624 20.8879 9.18105 20.8612 9.18668 20.8365C9.1895 20.8309 9.19162 20.8245 9.19444 20.8189C9.23743 20.7265 9.28677 20.637 9.34246 20.5517C9.36783 20.513 9.39602 20.4756 9.42281 20.4375C9.42351 20.4368 9.42351 20.4368 9.42351 20.4361C9.42774 20.4312 9.43127 20.4277 9.43197 20.427C9.44889 20.4058 9.46721 20.3854 9.48483 20.3657C9.55179 20.2909 9.62369 20.2212 9.70052 20.157C9.71038 20.1486 9.76748 20.0992 9.72801 20.1338C9.68853 20.1683 9.74563 20.1211 9.7569 20.1133C9.80061 20.0823 9.84571 20.0527 9.89153 20.0245C9.931 20.0005 9.97118 19.978 10.0121 19.9568C10.0325 19.9463 10.0536 19.9364 10.0741 19.9265C10.084 19.9216 10.0945 19.9174 10.1044 19.9124C10.1967 19.8793 10.2884 19.8462 10.3842 19.8236C10.43 19.8131 10.4766 19.8032 10.5231 19.7961C10.5259 19.7954 10.5287 19.7954 10.5315 19.7947C10.5604 19.7919 10.5893 19.7884 10.6189 19.787C10.724 19.7799 10.8297 19.7806 10.9347 19.7905C10.9509 19.7919 11.0249 19.7905 10.9721 19.7933C10.9213 19.7961 10.9904 19.7961 11.0087 19.7997C11.0595 19.8081 11.1102 19.8194 11.1603 19.8321C11.2096 19.8448 11.2589 19.8589 11.3069 19.8751C11.3287 19.8828 11.3513 19.8906 11.3731 19.8983C11.3844 19.9026 11.395 19.9068 11.4055 19.911C11.457 19.9301 11.3921 19.8997 11.3858 19.9026C11.4041 19.8941 11.5007 19.9568 11.5218 19.9681C11.5662 19.9914 11.6092 20.0168 11.6522 20.0435C11.6945 20.0703 11.7354 20.0985 11.7763 20.1281C11.777 20.1281 11.7777 20.1288 11.7777 20.1288C11.7974 20.1464 11.8193 20.1627 11.8397 20.1803C11.9151 20.2458 11.9856 20.317 12.0505 20.3924C12.0653 20.4101 12.0801 20.4277 12.0949 20.446C12.0956 20.4467 12.0956 20.4467 12.0956 20.4474C12.0977 20.4502 12.0991 20.4531 12.1026 20.4573C12.1315 20.4982 12.1604 20.5397 12.1865 20.582C12.2133 20.625 12.238 20.6687 12.2619 20.7131C12.2739 20.7357 12.3359 20.8273 12.3282 20.8499C12.3282 20.8506 12.3014 20.7829 12.3155 20.8196C12.3197 20.8309 12.324 20.8414 12.3289 20.8527C12.3388 20.8781 12.3486 20.9042 12.3571 20.9302C12.374 20.9789 12.3888 21.0282 12.4022 21.0783C12.4156 21.1283 12.4269 21.179 12.4367 21.2305C12.4403 21.2495 12.4431 21.2686 12.4466 21.2876C12.448 21.2975 12.4494 21.3073 12.4501 21.3165C12.4586 21.4236 12.4607 21.5315 12.4565 21.6386ZM13.9895 13.1551C13.7146 13.1551 13.4919 12.9323 13.4919 12.6575C13.4919 12.3826 13.7146 12.1598 13.9895 12.1598C14.2644 12.1598 14.4878 12.3826 14.4878 12.6575C14.4878 12.9323 14.2651 13.1551 13.9895 13.1551Z" fill="#8B87A4"/>
<path d="M26.8889 3.83977C26.8572 3.80452 26.829 3.78479 26.7867 3.75307C26.688 3.67977 26.5308 3.69527 26.4308 3.75307C26.2912 3.83342 26.1523 3.91377 26.0128 3.99413C25.6498 4.20347 25.2861 4.41281 24.9231 4.62285C24.4241 4.91043 23.9257 5.198 23.4267 5.48558C22.8762 5.80276 22.3257 6.12065 21.7745 6.43783C21.2572 6.73598 20.7398 7.03483 20.2218 7.33298C19.8207 7.56417 19.4197 7.79536 19.0193 8.02655C18.8241 8.13932 18.626 8.24787 18.4329 8.36488C18.3469 8.41703 18.2926 8.49034 18.2433 8.57492C18.1537 8.72787 18.0642 8.88153 17.9747 9.03448C17.6723 9.55184 17.37 10.0699 17.0676 10.5873C16.8378 10.9799 16.6087 11.3732 16.3789 11.7658C16.367 11.7862 16.355 11.8066 16.343 11.8271C16.3254 11.8574 16.3141 11.8912 16.3071 11.9258C16.2838 12.0096 16.2908 12.1006 16.343 12.1823C16.3458 12.1866 16.3486 12.1901 16.3515 12.1943C16.3804 12.2415 16.4191 12.2824 16.4692 12.3092C16.4917 12.3212 16.5157 12.3303 16.5404 12.3374C16.6334 12.3712 16.7384 12.3698 16.8251 12.3092C16.8343 12.3028 16.8434 12.2965 16.8526 12.2902C16.8554 12.288 16.8589 12.2859 16.8618 12.2838C17.21 12.0406 17.5575 11.7975 17.9056 11.5536C18.7508 10.9615 19.5952 10.3688 20.4382 9.77386C21.4151 9.08523 22.3899 8.39518 23.3626 7.70021C24.1182 7.16029 24.8745 6.62038 25.6181 6.06285C25.9564 5.8091 26.3046 5.55536 26.5915 5.24382C26.9171 4.88928 27.2885 4.28311 26.8889 3.83977Z" fill="#8B87A4"/>
<path d="M12.811 10.9996C11.6713 11.8017 8.05683 14.1517 5.71603 13.2967C3.37595 12.4417 2.19462 13.6879 2.19462 13.6879C2.19462 13.6879 0.73066 14.6592 1.57154 16.5869C2.41242 18.514 4.34722 18.1447 5.4778 17.4638C6.60837 16.7822 6.48573 16.0724 6.65912 15.1596C6.83321 14.2462 7.4415 14.2173 9.08731 13.7972C10.7317 13.3771 11.4979 13.6759 11.4979 13.6759L11.285 13.1783L12.811 10.9996ZM3.9652 17.4835C2.79727 17.4835 1.84996 16.5813 1.84996 15.4691C1.84996 14.3561 2.79727 13.4546 3.9652 13.4546C5.13383 13.4546 6.08044 14.3568 6.08044 15.4691C6.08044 16.5813 5.13383 17.4835 3.9652 17.4835Z" fill="#8B87A4"/>
<path d="M3.9652 17.1311C3.91516 17.1311 3.86441 17.1297 3.81437 17.1262C3.78547 17.1241 3.75657 17.122 3.72767 17.1184C3.64379 17.1093 3.77208 17.1269 3.71146 17.1163C3.60785 17.0987 3.50494 17.0761 3.40485 17.0451C3.35904 17.031 3.31393 17.0155 3.26952 16.9979C3.25824 16.9937 3.24767 16.9887 3.23639 16.9845C3.19974 16.9704 3.266 16.9972 3.266 16.9972C3.24344 16.9831 3.21525 16.9746 3.19128 16.9627C3.09965 16.919 3.01155 16.8682 2.92767 16.8118C2.90864 16.7991 2.88961 16.7857 2.87058 16.7724C2.85719 16.7625 2.80785 16.7153 2.84168 16.7512C2.87622 16.7879 2.81912 16.7322 2.80573 16.7202C2.78529 16.7026 2.76485 16.685 2.74512 16.6666C2.67181 16.599 2.60485 16.5264 2.54142 16.4495C2.53789 16.4453 2.52027 16.4277 2.52027 16.4227C2.52027 16.4199 2.56256 16.482 2.54071 16.4488C2.52802 16.4298 2.51393 16.4115 2.50053 16.3931C2.47234 16.3523 2.44556 16.3107 2.42089 16.2677C2.39622 16.2247 2.37225 16.181 2.35111 16.1366C2.34124 16.1161 2.33208 16.095 2.32221 16.0746C2.30459 16.04 2.33701 16.1056 2.3349 16.1063C2.33278 16.1063 2.31939 16.0675 2.31798 16.0633C2.28203 15.9695 2.25384 15.873 2.23269 15.775C2.22776 15.7524 2.22353 15.7292 2.2193 15.7059C2.21719 15.6946 2.21578 15.6827 2.21366 15.6714C2.2052 15.6326 2.21789 15.7073 2.21789 15.7066C2.21719 15.6516 2.20661 15.596 2.2045 15.541C2.20098 15.4409 2.20732 15.3422 2.21648 15.2421C2.22001 15.2027 2.21296 15.2774 2.21155 15.2774C2.21225 15.2774 2.22001 15.2273 2.2193 15.2309C2.22353 15.2076 2.22776 15.185 2.23269 15.1618C2.24327 15.1124 2.25525 15.0638 2.27005 15.0152C2.28344 14.9708 2.29754 14.9271 2.31375 14.8841C2.31939 14.87 2.32503 14.8559 2.33067 14.8411C2.34335 14.8044 2.31868 14.8735 2.31728 14.8721C2.31516 14.8707 2.34758 14.8058 2.35111 14.7995C2.39481 14.7107 2.44485 14.6247 2.50053 14.5429C2.51322 14.5239 2.52802 14.5063 2.54071 14.4872C2.56256 14.4541 2.52027 14.5154 2.52027 14.5133C2.52027 14.5077 2.53789 14.4908 2.54142 14.4865C2.57313 14.4485 2.60556 14.4104 2.63939 14.3745C2.67322 14.3385 2.70917 14.3033 2.74582 14.2694C2.76274 14.2539 2.83745 14.1694 2.8593 14.1722C2.86071 14.1722 2.8015 14.2145 2.83393 14.1919C2.84309 14.1856 2.85225 14.1778 2.86212 14.1715C2.88115 14.1581 2.90018 14.1447 2.91921 14.1313C2.96432 14.101 3.01014 14.0721 3.05736 14.0446C3.09824 14.0213 3.13983 13.9995 3.18142 13.979C3.20256 13.9685 3.22441 13.9593 3.24556 13.9487C3.26741 13.9382 3.29983 13.9368 3.22653 13.9565C3.24133 13.9523 3.25613 13.9445 3.27093 13.9389C3.36397 13.9029 3.45983 13.874 3.5578 13.8508C3.60926 13.8388 3.66142 13.8296 3.71357 13.8205C3.78124 13.8085 3.64873 13.8268 3.7178 13.8198C3.7467 13.8169 3.7756 13.8141 3.8045 13.812C3.91305 13.8042 4.023 13.8042 4.13155 13.812C4.15622 13.8141 4.18089 13.8162 4.20626 13.8183C4.21824 13.8198 4.23164 13.8233 4.24291 13.8226C4.24291 13.8226 4.17031 13.8113 4.21049 13.8183C4.26688 13.8282 4.32256 13.8374 4.37824 13.8508C4.47551 13.8733 4.57137 13.9029 4.66512 13.9389C4.67921 13.9445 4.69472 13.953 4.70952 13.9565C4.70952 13.9565 4.64468 13.9276 4.67992 13.9438C4.70106 13.9537 4.72291 13.9635 4.74406 13.9734C4.78987 13.9953 4.83498 14.0192 4.87868 14.0446C4.92238 14.07 4.96538 14.0961 5.00767 14.1242C5.0267 14.1369 5.04573 14.1503 5.06476 14.1637C5.07393 14.1708 5.08309 14.1771 5.09296 14.1842C5.13666 14.2159 5.08379 14.1708 5.07675 14.1715C5.09648 14.1687 5.16626 14.2469 5.18177 14.261C5.22124 14.2969 5.2593 14.335 5.29595 14.3738C5.32697 14.4069 5.35728 14.4414 5.38688 14.4767C5.39393 14.4858 5.40098 14.495 5.40873 14.5035C5.4341 14.5331 5.38688 14.4774 5.38829 14.4774C5.39534 14.4767 5.42987 14.5352 5.43481 14.5422C5.4912 14.624 5.54124 14.7093 5.58424 14.7988C5.5941 14.8192 5.60327 14.8404 5.61313 14.8608C5.63075 14.8953 5.59833 14.8298 5.60045 14.8291C5.60186 14.8291 5.61525 14.8664 5.61736 14.8721C5.63498 14.9186 5.6512 14.9658 5.66529 15.0138C5.67869 15.0582 5.68996 15.1033 5.69983 15.1484C5.70547 15.1752 5.71111 15.202 5.71534 15.2287C5.71745 15.24 5.71886 15.252 5.72098 15.2633C5.73155 15.3098 5.71393 15.1921 5.71816 15.24C5.72732 15.3401 5.73366 15.4388 5.73014 15.5389C5.72802 15.5903 5.72309 15.6418 5.71816 15.6932C5.71463 15.7327 5.72168 15.658 5.72309 15.658C5.72238 15.658 5.71816 15.6904 5.71745 15.6925C5.71252 15.7193 5.70758 15.7461 5.70194 15.7729C5.6815 15.8709 5.65261 15.9674 5.61666 16.0612C5.61243 16.0717 5.6082 16.0823 5.60397 16.0936C5.59128 16.1302 5.61595 16.0612 5.61736 16.0626C5.61948 16.064 5.59128 16.1197 5.58846 16.1253C5.56521 16.1732 5.54053 16.2205 5.51375 16.267C5.49049 16.3064 5.46653 16.3452 5.44045 16.3826C5.42776 16.4016 5.41366 16.4199 5.40098 16.4383C5.39111 16.4524 5.38688 16.4749 5.40098 16.439C5.41719 16.3981 5.39886 16.4418 5.38617 16.4573C5.32556 16.5313 5.26001 16.6004 5.18952 16.6652C5.17049 16.6828 5.0986 16.7653 5.07604 16.7625C5.07463 16.7625 5.13384 16.7202 5.10142 16.7427C5.09225 16.7491 5.08309 16.7568 5.07322 16.7632C5.05137 16.7794 5.02882 16.7949 5.00697 16.8097C4.92309 16.8661 4.83498 16.9168 4.74335 16.9605C4.72221 16.9711 4.70036 16.9803 4.67921 16.9901C4.64397 17.0071 4.70882 16.9782 4.70882 16.9775C4.69754 16.9803 4.68626 16.9866 4.67569 16.9909C4.62353 17.0113 4.57137 17.0296 4.5178 17.0458C4.42053 17.0754 4.32256 17.0966 4.22247 17.1135C4.15481 17.1255 4.28732 17.1072 4.21824 17.1142C4.18935 17.117 4.16045 17.1198 4.13155 17.122C4.07446 17.129 4.01948 17.1304 3.9652 17.1311C3.78124 17.1318 3.60432 17.2925 3.61278 17.4835C3.62124 17.6738 3.76785 17.8374 3.9652 17.836C4.98723 17.8303 5.91763 17.2192 6.28908 16.262C6.64432 15.3479 6.31798 14.2603 5.55322 13.6598C5.1423 13.3369 4.663 13.1502 4.14142 13.1086C3.6452 13.0691 3.13137 13.1896 2.70001 13.4363C2.28908 13.6717 1.93454 14.0354 1.73155 14.4647C1.51093 14.932 1.44609 15.4437 1.5497 15.9512C1.74564 16.9063 2.59357 17.6576 3.54794 17.7993C3.68679 17.8198 3.82494 17.8346 3.9652 17.8353C4.14987 17.836 4.32609 17.6724 4.31763 17.4828C4.30917 17.2911 4.16256 17.1318 3.9652 17.1311Z" fill="#8B87A4"/>
<path d="M12.6327 10.6958C11.9123 11.2026 11.1582 11.6656 10.3744 12.0681C10.1234 12.1964 9.86969 12.319 9.61172 12.4325C9.58282 12.4452 9.55322 12.4579 9.52432 12.4706C9.50811 12.4776 9.40661 12.5206 9.45666 12.4995C9.50459 12.4797 9.45525 12.5002 9.44397 12.5051C9.42564 12.5129 9.40732 12.5206 9.38899 12.5277C9.35234 12.5425 9.31498 12.558 9.27833 12.5728C9.14511 12.6256 9.01049 12.6764 8.87516 12.7243C8.60732 12.8188 8.33595 12.9019 8.06036 12.9689C7.92926 13.0006 7.79745 13.0295 7.66494 13.0535C7.6015 13.0648 7.53807 13.0753 7.47463 13.0852C7.4563 13.088 7.43727 13.0901 7.41895 13.0929C7.37172 13.1007 7.49296 13.0845 7.44573 13.0894C7.40837 13.0929 7.37172 13.0986 7.33436 13.1021C7.07569 13.1296 6.81348 13.1374 6.5541 13.1183C6.49489 13.1141 6.43569 13.1077 6.37648 13.1007C6.31657 13.0937 6.40326 13.1035 6.4082 13.1049C6.39199 13.1007 6.37366 13.1 6.35674 13.0972C6.32291 13.0915 6.28837 13.0859 6.25454 13.0788C6.13401 13.0556 6.01419 13.0253 5.89718 12.9865C5.57155 12.8794 5.25225 12.7722 4.91322 12.7144C4.59956 12.6616 4.28168 12.632 3.96379 12.6489C3.25895 12.6855 2.49348 12.9153 1.97119 13.4144C1.89437 13.4877 2.07551 13.3403 1.9867 13.4059C1.89366 13.4743 1.80414 13.5483 1.72168 13.63C1.44256 13.9063 1.23181 14.2433 1.09859 14.6119C0.905467 15.1483 0.926612 15.7488 1.08802 16.2901C1.2741 16.9125 1.61172 17.4884 2.13119 17.8866C2.93824 18.5055 4.05542 18.4596 4.96256 18.1044C5.48274 17.9 6.01701 17.6138 6.37859 17.1775C6.56608 16.9513 6.70423 16.7011 6.79163 16.4198C6.86212 16.1929 6.89384 15.9567 6.92626 15.722C6.95798 15.4951 6.98194 15.2611 7.05243 15.0425C7.05947 15.0214 7.06723 15.0003 7.07428 14.9791C7.10036 14.9051 7.04326 15.0433 7.06652 14.9974C7.08626 14.9587 7.10459 14.9199 7.12714 14.8833C7.13771 14.8663 7.14899 14.8501 7.15956 14.8339C7.20044 14.7719 7.11022 14.891 7.14406 14.8537C7.17155 14.8226 7.19833 14.7923 7.22864 14.7641C7.24344 14.7507 7.25824 14.7381 7.27304 14.7254C7.3104 14.6915 7.19269 14.7825 7.25472 14.7395C7.29137 14.7141 7.32802 14.6901 7.36608 14.6683C7.40273 14.6471 7.44009 14.6281 7.47815 14.6098C7.4993 14.5999 7.52115 14.5907 7.54229 14.5809C7.58036 14.5633 7.46335 14.6126 7.50282 14.5978C7.51833 14.5922 7.53384 14.5851 7.54934 14.5795C7.76925 14.4949 7.99763 14.435 8.226 14.3765C8.54388 14.2954 8.86317 14.2193 9.18106 14.1389C9.37066 14.091 9.56097 14.048 9.7534 14.0135C9.83868 13.998 9.92397 13.9846 10.0093 13.9719C10.0621 13.9641 10.0085 13.9832 9.99657 13.9733C10.0001 13.9761 10.041 13.9677 10.0494 13.967C10.0917 13.962 10.1347 13.9571 10.177 13.9529C10.423 13.9282 10.6711 13.919 10.9178 13.9331C10.9636 13.9359 11.0094 13.9395 11.0552 13.9437C11.0736 13.9458 11.0919 13.9472 11.1102 13.9493C11.1187 13.95 11.1278 13.9514 11.1363 13.9522C11.1941 13.9585 11.0362 13.9366 11.0919 13.9465C11.1511 13.9571 11.2103 13.9655 11.2688 13.9789C11.3139 13.9895 11.3604 14.0001 11.4041 14.017C11.5338 14.067 11.6967 13.9916 11.7749 13.8908C11.8686 13.7696 11.8602 13.6343 11.8024 13.4996C11.7312 13.334 11.6607 13.1677 11.5895 13.002C11.5895 13.1204 11.5895 13.2388 11.5895 13.358C12.035 12.7222 12.4811 12.0857 12.9266 11.45C12.99 11.3597 13.0528 11.2695 13.1162 11.1793C13.2226 11.0277 13.1486 10.7811 12.99 10.6972C12.8096 10.602 12.6214 10.6619 12.5079 10.8233C12.2704 11.1624 12.0329 11.5014 11.7946 11.8404C11.6234 12.085 11.4521 12.3296 11.2808 12.5742C11.1842 12.7116 11.0785 12.847 10.9897 12.9893C10.9164 13.1077 10.9284 13.2332 10.9812 13.358C11.0003 13.4024 11.0193 13.4468 11.0383 13.4912C11.0905 13.6124 11.1419 13.7337 11.1941 13.8549C11.3266 13.6822 11.4591 13.5095 11.5923 13.3375C11.3936 13.2607 11.1596 13.2445 10.9502 13.2304C10.3525 13.1902 9.74212 13.2811 9.16133 13.4179C8.82934 13.4961 8.49806 13.5814 8.16679 13.6646C7.92643 13.7245 7.68608 13.7851 7.45207 13.8669C7.06088 14.0036 6.68027 14.2101 6.48291 14.5929C6.26652 15.0122 6.27075 15.4979 6.18194 15.9518C6.16009 16.066 6.1319 16.1788 6.09454 16.2887C6.08608 16.3134 6.07763 16.3374 6.06846 16.3613C6.03533 16.4466 6.09172 16.3141 6.06635 16.367C6.03886 16.424 6.01137 16.4804 5.97895 16.5354C5.96344 16.5622 5.94652 16.5883 5.92961 16.6137C5.91763 16.6313 5.8845 16.6623 5.88027 16.6827C5.88732 16.6475 5.92256 16.6313 5.89507 16.663C5.8852 16.6743 5.87604 16.6862 5.86688 16.6975C5.84221 16.7264 5.81613 16.7553 5.79005 16.7828C5.73859 16.8364 5.68432 16.8864 5.62793 16.9344C5.61102 16.9485 5.53278 17.0175 5.59551 16.9626C5.56027 16.9929 5.51939 17.0189 5.48062 17.0457C5.28397 17.1818 5.07181 17.2966 4.85331 17.3939C4.84203 17.3988 4.83075 17.4038 4.81948 17.4087C4.77718 17.4277 4.90688 17.3728 4.84415 17.3981C4.82159 17.4073 4.79833 17.4165 4.77577 17.4256C4.72362 17.4461 4.67075 17.4658 4.61789 17.4834C4.51075 17.5201 4.40221 17.5525 4.29225 17.58C4.18089 17.6075 4.06811 17.623 3.95674 17.6455C3.95956 17.6448 4.05119 17.6343 3.9941 17.6406C3.98141 17.642 3.96873 17.6434 3.95604 17.6448C3.93067 17.6477 3.90599 17.6498 3.88062 17.6526C3.82071 17.6575 3.7608 17.6611 3.70089 17.6625C3.59093 17.6646 3.48027 17.6611 3.37031 17.6491C3.27516 17.6392 3.44221 17.6618 3.36115 17.6484C3.33296 17.6441 3.30547 17.6392 3.27727 17.6343C3.22159 17.6237 3.16661 17.611 3.11163 17.5962C3.05948 17.5821 3.00873 17.5659 2.95798 17.5483C2.93119 17.5384 2.90441 17.5285 2.87763 17.518C2.85296 17.5088 2.83252 17.4877 2.90864 17.5314C2.89525 17.5236 2.87903 17.518 2.86494 17.5116C2.75851 17.4616 2.6563 17.4024 2.56044 17.3347C2.55058 17.3277 2.47234 17.2713 2.52309 17.3079C2.57313 17.3439 2.49207 17.2818 2.47939 17.2706C2.43146 17.229 2.38564 17.186 2.34124 17.1402C2.29824 17.0958 2.25666 17.0492 2.21718 17.0013C2.21225 16.9957 2.18053 16.9625 2.18194 16.9576C2.18194 16.9576 2.2341 17.0288 2.19533 16.9745C2.17278 16.9428 2.15022 16.9111 2.12837 16.8787C2.04732 16.7574 1.97613 16.6292 1.9141 16.4974C1.90635 16.4804 1.85771 16.3712 1.88732 16.441C1.87181 16.405 1.85771 16.3684 1.84362 16.331C1.81401 16.2528 1.78652 16.1731 1.76326 16.0921C1.74141 16.0166 1.72168 15.9405 1.70547 15.8644C1.69842 15.832 1.69278 15.7996 1.68714 15.7664C1.68432 15.7502 1.68221 15.734 1.67939 15.7185C1.666 15.641 1.68644 15.789 1.67939 15.7178C1.6667 15.5846 1.65965 15.4521 1.6667 15.3188C1.66811 15.2914 1.67022 15.2639 1.67304 15.2364C1.67445 15.223 1.67586 15.2096 1.67727 15.1955C1.68221 15.1363 1.67304 15.2251 1.67234 15.2293C1.68503 15.1687 1.69207 15.1081 1.70547 15.0475C1.72943 14.9439 1.76185 14.8438 1.79921 14.7451C1.83234 14.6577 1.7689 14.8099 1.79992 14.743C1.81049 14.7204 1.82036 14.6979 1.83163 14.6753C1.85278 14.6323 1.87533 14.5893 1.8993 14.5477C1.943 14.4709 1.99304 14.3976 2.0445 14.3257C2.0889 14.2637 2.00362 14.3758 2.0304 14.3433C2.04168 14.33 2.05225 14.3159 2.06353 14.3025C2.0882 14.2729 2.11357 14.2433 2.13965 14.2144C2.18053 14.1692 2.22353 14.1255 2.26864 14.0847C2.30247 14.0529 2.33771 14.0233 2.37296 13.9944C2.43005 13.9472 2.29049 14.0551 2.34053 14.0198C2.34899 14.0142 2.35674 14.0078 2.3652 14.0022C2.41031 13.9691 2.44767 13.9366 2.48785 13.9007C2.51533 13.876 2.54423 13.8535 2.57243 13.8295C2.59851 13.807 2.48362 13.8958 2.53296 13.8605C2.54353 13.8528 2.5541 13.845 2.56397 13.8373C2.58864 13.8189 2.61401 13.802 2.63939 13.7851C2.76133 13.7033 2.89031 13.6336 3.02423 13.5729C3.0334 13.5687 3.04256 13.5652 3.05102 13.561C3.10529 13.5363 2.97489 13.592 3.01577 13.5758C3.03763 13.5673 3.05877 13.5581 3.08062 13.5497C3.12644 13.5321 3.17296 13.5159 3.21948 13.5003C3.32168 13.4665 3.42529 13.439 3.53031 13.4158C3.58106 13.4052 3.63181 13.3953 3.68256 13.3869C3.69948 13.384 3.80168 13.3692 3.73542 13.3784C3.67692 13.3862 3.72485 13.3798 3.73965 13.3784C3.7608 13.3763 3.78124 13.3735 3.80238 13.3714C3.93137 13.3587 4.06177 13.353 4.19146 13.3544C4.34018 13.3559 4.48749 13.3671 4.63551 13.3848C4.67992 13.3897 4.64679 13.4017 4.62 13.3826C4.62705 13.3876 4.66159 13.389 4.67287 13.3904C4.71304 13.3967 4.75392 13.4038 4.7941 13.4108C4.87798 13.4263 4.96115 13.444 5.04432 13.4644C5.3474 13.5377 5.63428 13.6625 5.93736 13.7351C6.20168 13.7985 6.47586 13.8302 6.74652 13.8373C7.88908 13.8648 9.01683 13.4736 10.0459 13.0112C10.9397 12.6094 11.7925 12.116 12.6066 11.5719C12.7356 11.4859 12.8639 11.3978 12.9908 11.3083C13.1409 11.2025 13.2262 10.9953 13.1169 10.8262C13.0189 10.6725 12.7941 10.5823 12.6327 10.6958Z" fill="#8B87A4"/>
</svg>
