<svg width="26" height="37" viewBox="0 0 26 37" fill="none" xmlns="http://www.w3.org/2000/svg">
<path d="M23.1 17.4615C23.0974 17.2335 23.0913 17.0047 23.0825 16.7767C23.029 15.3628 22.8657 13.9543 22.634 12.5599C22.6226 12.4901 22.6103 12.4203 22.5981 12.3505C22.5673 12.1684 22.5349 11.9873 22.5006 11.8061C22.4805 11.6974 22.3866 11.6108 22.2795 11.5737C22.2154 11.5516 22.1461 11.5481 22.0847 11.5684C21.8986 11.6294 21.8135 11.7991 21.8486 11.9873C21.8583 12.0385 21.8679 12.0889 21.8767 12.1402C22.1777 13.7917 22.376 15.4273 22.4173 17.1239C22.4217 17.2883 22.4243 17.4535 22.4252 17.6197C22.4322 18.6058 22.3822 19.5929 22.2576 20.5719C22.2549 20.5958 22.2514 20.6205 22.2488 20.6444C22.2479 20.6488 22.247 20.6524 22.247 20.6559C22.247 20.6559 22.247 20.6577 22.2461 20.6603C22.2461 20.6612 22.2461 20.6612 22.2461 20.6612C22.2461 20.6621 22.2461 20.663 22.2453 20.663C22.2453 20.6638 22.2453 20.6647 22.2453 20.6647C22.2453 20.6656 22.2453 20.6665 22.2453 20.6665C22.2453 20.6674 22.2453 20.6683 22.2444 20.6683V20.6718C22.2426 20.678 22.2418 20.6868 22.24 20.6974C22.2321 20.7504 22.2251 20.8035 22.2172 20.8574C22.1996 20.9802 22.1803 21.1021 22.1593 21.225C22.1206 21.4565 22.0777 21.6871 22.0294 21.9177C21.9407 22.3454 21.8354 22.7687 21.7108 23.1867C21.7099 23.1893 21.7091 23.192 21.7091 23.1946C21.7073 23.2026 21.7047 23.2105 21.702 23.2185C21.7012 23.2202 21.7012 23.2229 21.7003 23.2247C21.5783 23.6347 21.4388 24.0394 21.2817 24.4362C21.2624 24.4839 21.2431 24.5307 21.2238 24.5784C21.2194 24.589 21.215 24.5996 21.2106 24.6102V24.6111C21.2097 24.6129 21.2088 24.6146 21.208 24.6173C21.2062 24.6191 21.2062 24.6226 21.2044 24.6253C21.2027 24.6279 21.2018 24.6314 21.2001 24.635C21.1948 24.6482 21.1887 24.6632 21.1869 24.6659C21.1465 24.7587 21.107 24.8497 21.0658 24.9416C20.9807 25.1289 20.892 25.3136 20.7981 25.4965C20.6279 25.8279 20.4436 26.1513 20.2444 26.4668C20.1452 26.6241 20.0416 26.7787 19.9346 26.9316C19.8872 26.9987 19.8389 27.0659 19.7907 27.1331C19.7678 27.164 19.745 27.1949 19.7213 27.2267C19.7082 27.2435 19.6959 27.2612 19.6827 27.2789C19.6827 27.2789 19.6818 27.2797 19.681 27.2806C19.6801 27.2824 19.6792 27.2824 19.6783 27.2842C19.6757 27.2877 19.6713 27.2921 19.6652 27.3009C19.2641 27.8161 18.8227 28.2986 18.3391 28.7369C18.2268 28.8394 18.1118 28.9401 17.9942 29.0382C17.9381 29.0842 17.8819 29.131 17.8249 29.1769C17.7994 29.1973 17.7739 29.2167 17.7494 29.2379C17.7476 29.2397 17.745 29.2414 17.7415 29.2432C17.7415 29.2432 17.7397 29.245 17.7371 29.2467C17.7266 29.2538 17.7134 29.2618 17.7073 29.2706L17.7064 29.2715C17.4826 29.4429 17.2518 29.6073 17.0157 29.7619C16.591 30.0403 16.1487 30.2903 15.6914 30.5095C15.5879 30.559 15.4834 30.6076 15.3781 30.6544C15.3351 30.6738 15.2895 30.6915 15.2465 30.7127C15.2447 30.7136 15.243 30.7145 15.2412 30.7145C15.2386 30.7163 15.236 30.7171 15.2342 30.718C15.2325 30.7189 15.2316 30.7198 15.2298 30.7198C15.2026 30.7304 15.1772 30.7419 15.1508 30.7525C14.9639 30.8285 14.7761 30.9001 14.5865 30.9654C14.4435 31.0149 14.3005 31.0626 14.1557 31.1059C14.1521 31.1068 14.1486 31.1077 14.146 31.1086C13.967 31.1581 13.7862 31.197 13.6028 31.2252C13.6115 31.2244 13.6159 31.2235 13.6159 31.2235C13.6115 31.2252 13.5703 31.2305 13.5852 31.227C13.5773 31.2279 13.5694 31.2288 13.5606 31.2297C13.5238 31.2341 13.4878 31.2367 13.4509 31.2403C13.3851 31.2456 13.3193 31.25 13.2526 31.2526C13.1333 31.257 13.0139 31.2562 12.8954 31.2509C12.7875 31.2456 12.6804 31.2288 12.5734 31.2217C12.5804 31.2226 12.5865 31.2235 12.5944 31.2252C12.5997 31.2261 12.6032 31.227 12.6067 31.227C12.5935 31.2252 12.5672 31.2217 12.5646 31.2208C12.5672 31.2208 12.5707 31.2217 12.5734 31.2217C12.5698 31.2208 12.5672 31.2208 12.5646 31.2199C12.5418 31.2164 12.5189 31.2129 12.497 31.2093C12.4496 31.2005 12.4022 31.1925 12.3557 31.1819C12.354 31.1819 12.354 31.1811 12.3522 31.1811C12.2162 31.1519 12.081 31.1157 11.9485 31.0697C11.9143 31.0582 11.8818 31.045 11.8485 31.0326C11.8493 31.0326 11.8502 31.0335 11.8502 31.0344C11.8511 31.0344 11.852 31.0353 11.852 31.0353C11.8625 31.0397 11.8678 31.0423 11.8695 31.0441C11.866 31.0432 11.8555 31.0388 11.8441 31.0335C11.8265 31.0317 11.8011 31.0193 11.7791 31.0079H11.7783C11.7633 31.0008 11.7502 30.9928 11.7396 30.9893C11.7037 30.976 11.6668 30.9646 11.6308 30.9522C11.4132 30.8771 11.1964 30.7967 10.9814 30.711C10.9323 30.6915 10.884 30.6712 10.8349 30.6509C10.8155 30.6438 10.7962 30.635 10.7769 30.627C10.7752 30.6261 10.7725 30.6252 10.7717 30.6252C10.7708 30.6252 10.7708 30.6252 10.7708 30.6244C10.7699 30.6244 10.769 30.6244 10.769 30.6235C10.7682 30.6235 10.7673 30.6226 10.7673 30.6226C10.7646 30.6208 10.762 30.6199 10.7576 30.6182C10.7559 30.6173 10.7559 30.6173 10.7541 30.6164C10.7532 30.6173 10.7532 30.6173 10.7532 30.6164C10.7524 30.6155 10.7515 30.6146 10.7515 30.6146C10.7515 30.6146 10.7506 30.6146 10.7497 30.6138C10.7488 30.6138 10.748 30.6129 10.748 30.6129C10.7462 30.6129 10.7462 30.6129 10.7462 30.612C10.7445 30.6111 10.7436 30.6102 10.7418 30.6102C10.6383 30.5651 10.5347 30.5192 10.432 30.4715C10.2398 30.3822 10.0494 30.2877 9.86248 30.1896C9.84142 30.179 9.81948 30.1675 9.79842 30.1551C9.79666 30.1534 9.79403 30.1525 9.79315 30.1525C9.77999 30.1463 9.7677 30.1392 9.75542 30.133C9.75542 30.1322 9.75542 30.1322 9.75454 30.1322C9.4272 29.9563 9.11039 29.7646 8.80235 29.5578C8.63561 29.4464 8.47238 29.3298 8.31178 29.2087C8.27492 29.1814 8.23807 29.154 8.20121 29.1248C8.20033 29.1239 8.19945 29.1239 8.19945 29.123C8.19857 29.1222 8.19857 29.1221 8.1977 29.1213C8.1977 29.1213 8.19682 29.1213 8.19682 29.1204C8.19506 29.1195 8.19419 29.1186 8.19243 29.1177C8.19067 29.1168 8.19067 29.116 8.1898 29.1151C8.18892 29.1151 8.18804 29.1151 8.18804 29.1142C8.18541 29.1124 8.18365 29.1107 8.1819 29.1098C8.16786 29.0983 8.15382 29.0877 8.1389 29.0753C8.06079 29.0135 7.98356 28.9498 7.90634 28.8853C7.3359 28.4046 6.81549 27.8647 6.35388 27.2771C6.34598 27.2665 6.33721 27.2559 6.32931 27.2462C6.32931 27.2453 6.32843 27.2444 6.32755 27.2444C6.32755 27.2444 6.32755 27.2435 6.32668 27.2426L6.32492 27.2409C6.32404 27.2391 6.32316 27.2382 6.32229 27.2364C6.3179 27.2311 6.31439 27.2258 6.31263 27.2232C6.28718 27.1887 6.26086 27.156 6.23541 27.1207C6.18012 27.0456 6.12483 26.9705 6.0713 26.8936C5.9695 26.7487 5.87121 26.6011 5.77555 26.4509C5.58423 26.1513 5.40696 25.8429 5.24373 25.5266C5.16124 25.3684 5.08225 25.2085 5.00766 25.0468C4.97343 24.9716 4.93833 24.8965 4.90586 24.8205C4.88918 24.7834 4.87251 24.7445 4.85671 24.7074C4.84882 24.688 4.84004 24.6694 4.83214 24.65C4.83214 24.6491 4.83126 24.6482 4.83039 24.6482C4.83039 24.6482 4.82863 24.6447 4.82688 24.6403C4.82688 24.6394 4.82687 24.6385 4.826 24.6385C4.826 24.6385 4.826 24.6376 4.82512 24.6367C4.82424 24.635 4.82337 24.6323 4.82249 24.6297C4.82249 24.6288 4.82161 24.6288 4.82161 24.6279C4.68997 24.3107 4.56974 23.9873 4.4618 23.6603C4.41529 23.5207 4.37141 23.3793 4.3284 23.2388C4.32753 23.2353 4.32665 23.2326 4.32665 23.23C4.32489 23.2238 4.32226 23.2176 4.32051 23.2114C4.08356 22.4108 3.91067 21.5908 3.79308 20.7655C3.78869 20.7345 3.7843 20.7036 3.77991 20.6727C3.77903 20.6665 3.77552 20.6426 3.77377 20.6285C3.77201 20.6205 3.77201 20.617 3.77201 20.617C3.76499 20.5613 3.75797 20.5057 3.75095 20.4491C3.73428 20.3148 3.71936 20.1805 3.70532 20.0453C3.67899 19.782 3.65705 19.5186 3.64037 19.2544C3.60615 18.726 3.59123 18.1976 3.59474 17.6683C3.59825 16.7413 3.65354 15.8144 3.75534 14.8927C3.7764 14.6974 3.8001 14.503 3.82555 14.3086C3.82642 14.3042 3.8273 14.2998 3.8273 14.2954C3.82818 14.2918 3.82906 14.2892 3.82906 14.2874V14.2857C3.82993 14.2839 3.82993 14.2812 3.82993 14.2812V14.2804C3.83169 14.2671 3.83432 14.2547 3.8352 14.2415C3.84134 14.1982 3.84661 14.1558 3.85275 14.1133C3.86591 14.0223 3.87908 13.9322 3.89312 13.8412C3.93876 13.5416 3.98965 13.2438 4.04582 12.9478C4.0976 12.6695 4.15376 12.3911 4.22046 12.1154C4.23099 12.0659 4.24328 12.0164 4.25556 11.967C4.25907 11.9528 4.26259 11.9378 4.2661 11.9237C4.31173 11.7514 4.20905 11.5455 4.03002 11.5048C3.85275 11.4642 3.66144 11.5587 3.61405 11.7425C3.57543 11.8883 3.53945 12.0359 3.5061 12.1835C3.34638 12.8921 3.23932 13.6176 3.14629 14.336C3.04098 15.1437 2.9699 15.9575 2.93743 16.7731C2.92865 17.002 2.92251 17.2309 2.91987 17.4597C2.91285 18.0155 2.92514 18.5722 2.95849 19.1272C2.97428 19.4091 2.99622 19.6918 3.02431 19.972C3.02957 20.0329 3.03572 20.0939 3.04274 20.1557C3.14454 21.1145 3.31216 22.0671 3.56227 22.9958C3.62282 23.2247 3.68952 23.4518 3.7606 23.678C3.95104 24.2762 4.17746 24.8638 4.446 25.4356C5.07787 26.7814 5.95458 28.0185 7.04454 29.0276C7.72467 29.6585 8.4794 30.1949 9.28415 30.6447C9.28152 30.718 9.27625 30.7914 9.27011 30.8638C9.26484 30.9345 9.25782 31.0052 9.24905 31.0759C9.24729 31.0918 9.24554 31.1068 9.2429 31.1219C9.2429 31.1263 9.24203 31.1307 9.24115 31.1351C9.24115 31.1369 9.24115 31.1378 9.24027 31.1395C9.24027 31.1413 9.24027 31.1431 9.23939 31.1448C9.23501 31.174 9.22886 31.2235 9.22623 31.2429C9.19551 31.4444 9.15427 31.6441 9.106 31.8429C9.04984 32.0727 8.98314 32.2998 8.90415 32.5224C8.86554 32.6338 8.82254 32.7433 8.77954 32.852C8.78129 32.8503 8.78042 32.8512 8.77954 32.8538L8.77866 32.8556C8.77778 32.8565 8.7769 32.8573 8.7769 32.86V32.8609C8.77603 32.8618 8.77515 32.8626 8.77515 32.8644C8.77427 32.8653 8.77427 32.8662 8.7734 32.8679V32.8688C8.76901 32.8812 8.76199 32.8971 8.76023 32.9015C8.76111 32.8998 8.76286 32.8953 8.7655 32.8874C8.76111 32.8962 8.7576 32.9051 8.75321 32.9148C8.74005 32.9457 8.726 32.9775 8.71196 33.0084C8.68125 33.0774 8.64878 33.1454 8.61543 33.2135C8.48467 33.4777 8.33723 33.7348 8.17312 33.9805C8.13012 34.045 8.08536 34.1095 8.03973 34.1731C8.01691 34.2049 7.99322 34.2376 7.96952 34.2685C7.9625 34.2782 7.9546 34.288 7.94758 34.2968C7.94583 34.3003 7.94319 34.3039 7.94056 34.3074C7.93705 34.3118 7.93442 34.3162 7.93179 34.3189C7.82735 34.4514 7.71853 34.5796 7.60445 34.7042C7.47281 34.8482 7.33502 34.9861 7.1911 35.1168C7.11299 35.1875 7.03489 35.2573 6.95327 35.3245C6.91817 35.3537 6.88307 35.3828 6.84709 35.412C6.82866 35.4261 6.8111 35.442 6.79268 35.4553C6.7997 35.4509 6.80584 35.4464 6.81023 35.4438C6.79619 35.4544 6.77512 35.4685 6.76898 35.4738C6.40303 35.7504 6.00987 35.9899 5.60091 36.1949C5.44207 36.2753 5.38502 36.5139 5.47892 36.6615C5.58423 36.824 5.77292 36.8691 5.94229 36.7834C7.27008 36.1162 8.39954 35.0718 9.10249 33.7498C9.55708 32.8936 9.83791 31.9507 9.9362 30.9849C10.4312 31.2252 10.941 31.4338 11.4623 31.6123C11.4878 31.6211 11.5141 31.6326 11.5404 31.6388C11.5457 31.6406 11.551 31.6423 11.5562 31.6441C11.5404 31.637 11.529 31.6308 11.5211 31.6273C11.5185 31.6255 11.5167 31.6246 11.5141 31.6238C11.5115 31.622 11.5097 31.622 11.5088 31.6211C11.5106 31.622 11.5115 31.6229 11.5132 31.6229C11.5238 31.6273 11.5492 31.6379 11.5896 31.6556C11.6484 31.6777 11.7089 31.6953 11.7686 31.7139C11.9002 31.7563 12.0336 31.7961 12.1662 31.8341C12.182 31.8385 12.1969 31.8411 12.2127 31.8447C12.6541 31.9357 13.1113 31.9587 13.558 31.9092C13.7967 31.8827 14.0302 31.8403 14.2601 31.7793C14.261 31.7802 14.2618 31.7793 14.2618 31.7793C14.2882 31.7722 14.3145 31.766 14.3399 31.7572C14.3417 31.7572 14.3435 31.7572 14.3443 31.7554C14.4435 31.7254 14.5409 31.6945 14.6392 31.6618C14.6462 31.66 14.6524 31.6573 14.6594 31.6547C15.1763 31.4806 15.6818 31.2712 16.1697 31.0273C16.1723 31.0467 16.1759 31.0662 16.1785 31.0856C16.2452 31.5045 16.3373 31.9189 16.4541 32.3254C16.6173 32.8936 16.8288 33.4503 17.0965 33.976C17.3904 34.5557 17.7617 35.1018 18.2163 35.5666C18.7191 36.0809 19.3238 36.4777 19.9951 36.7304C20.0785 36.7622 20.1627 36.7914 20.2479 36.817C20.4172 36.87 20.6252 36.7551 20.6639 36.5793C20.706 36.3946 20.6094 36.217 20.4278 36.1604C20.3435 36.1339 20.2584 36.1056 20.175 36.0738C20.1373 36.0597 20.0996 36.0456 20.0627 36.0296C20.0645 36.0305 20.0662 36.0314 20.0671 36.0323C20.0645 36.0305 20.0601 36.0296 20.0557 36.027C20.0548 36.0279 20.0548 36.0279 20.0548 36.027C20.0469 36.0243 20.0373 36.0199 20.0311 36.0173C20.032 36.0173 20.0329 36.0173 20.0337 36.0182C20.0408 36.0208 20.0478 36.0243 20.0548 36.027C20.0355 36.0173 20.0153 36.0102 19.996 36.0014C19.8451 35.9333 19.6976 35.8556 19.5555 35.7707C19.4177 35.6886 19.2852 35.5975 19.1562 35.5012L19.1465 35.4942C19.1351 35.4844 19.1228 35.4747 19.1123 35.4659C19.0816 35.4403 19.05 35.4146 19.0192 35.389C18.9587 35.3369 18.8981 35.283 18.8402 35.2273C18.7244 35.1186 18.6138 35.0037 18.5085 34.8836C18.4585 34.827 18.4093 34.7687 18.3619 34.7095C18.3426 34.6856 18.3242 34.6609 18.304 34.637C18.3023 34.6344 18.2996 34.6308 18.297 34.6282C18.2952 34.6264 18.2952 34.6246 18.2926 34.6238C18.2909 34.622 18.29 34.6202 18.2891 34.6193C18.2794 34.6061 18.2698 34.5919 18.2593 34.5787C18.0776 34.333 17.9152 34.0732 17.7696 33.8037C17.6985 33.6712 17.6309 33.5369 17.5677 33.4017C17.537 33.3372 17.508 33.2727 17.48 33.2073C17.4738 33.194 17.4677 33.179 17.4607 33.1649C17.4607 33.164 17.4607 33.1631 17.4598 33.1631C17.4589 33.1613 17.458 33.1587 17.458 33.1578C17.4571 33.156 17.4563 33.1542 17.4563 33.1534C17.4545 33.1498 17.4536 33.1463 17.4519 33.1436C17.4519 33.1436 17.4519 33.1436 17.451 33.1428C17.4484 33.1366 17.4466 33.133 17.4466 33.1313C17.4466 33.1313 17.4466 33.1313 17.4466 33.1304C17.4396 33.1109 17.4308 33.0924 17.4238 33.0729C17.322 32.8202 17.2316 32.5622 17.1526 32.3024C17.0254 31.8844 16.9244 31.4576 16.8507 31.0273C16.8376 30.9504 16.8253 30.8735 16.8139 30.7958C16.8095 30.7649 16.8068 30.733 16.8007 30.703C16.7998 30.7003 16.7998 30.6986 16.7998 30.6986C16.7998 30.6995 16.8007 30.7003 16.8007 30.7012C16.7998 30.6977 16.7998 30.6942 16.7989 30.6906C16.8788 30.6447 16.9587 30.5978 17.0377 30.5492C18.0899 29.9068 19.0438 29.0956 19.8407 28.1519C20.8657 26.9369 21.6283 25.5301 22.1487 24.0279C22.1891 23.9113 22.2277 23.7937 22.2655 23.6762C22.3374 23.4509 22.4032 23.2247 22.4647 22.9976C22.7323 22.0008 22.9035 20.9784 22.9991 19.949C23.0246 19.6733 23.0448 19.3967 23.0597 19.1201C23.0728 18.8789 23.0825 18.6376 23.0886 18.3964C23.1018 18.0836 23.1035 17.7717 23.1 17.4615ZM18.3181 34.6494C18.3198 34.652 18.3216 34.6538 18.3224 34.6547C18.3207 34.6529 18.3172 34.6485 18.3137 34.6441C18.3154 34.6458 18.3163 34.6467 18.3181 34.6494Z" fill="#7266BA"/>
<path d="M11.8528 31.0317C11.8636 31.0362 11.869 31.0389 11.8708 31.0407C11.8672 31.0398 11.8564 31.0353 11.8447 31.0299C11.8465 31.0308 11.8492 31.0308 11.8501 31.0308C11.8501 31.0308 11.851 31.0299 11.851 31.0308C11.851 31.0308 11.8519 31.0317 11.8528 31.0317Z" fill="#7266BA"/>
<path d="M12.3527 31.1777C12.2167 31.1485 12.0815 31.1123 11.949 31.0663C11.9148 31.0549 11.8823 31.0416 11.849 31.0292C11.8481 31.0283 11.8472 31.0283 11.8463 31.0275C11.7972 31.0054 11.7954 31.0018 11.8446 31.0204C11.8569 31.0239 11.8683 31.0275 11.8806 31.0319C11.9104 31.0416 11.9402 31.0513 11.9701 31.0602C12.0965 31.1026 12.2246 31.1406 12.3527 31.1777Z" fill="#7266BA"/>
<path d="M14.3437 31.7562C14.3279 31.7606 14.313 31.7668 14.2981 31.7703C14.2876 31.7738 14.2762 31.7764 14.2656 31.7773C14.2911 31.7711 14.3174 31.7641 14.3437 31.7562Z" fill="#7266BA"/>
<path d="M16.5205 7.81738C16.5223 7.82001 16.5223 7.82176 16.524 7.82438C16.5275 7.83489 16.5301 7.84276 16.531 7.84539C16.5293 7.84276 16.5266 7.83489 16.5205 7.81738Z" fill="#7266BA"/>
<path d="M23.3358 11.7019C23.2077 11.7089 23.0795 11.7116 22.9523 11.7063C22.8944 11.7045 22.8382 11.7001 22.7803 11.6939C22.7733 11.693 22.7654 11.6921 22.7583 11.6921C22.7294 11.6851 22.6943 11.6824 22.6653 11.678C22.5442 11.6559 22.424 11.625 22.3081 11.5843C22.2976 11.5808 22.2879 11.5773 22.2774 11.5737C22.2634 11.5693 22.2493 11.5631 22.2353 11.5578C22.23 11.5561 22.223 11.5534 22.216 11.5516C22.2151 11.5507 22.2142 11.5507 22.2134 11.5499C22.2125 11.549 22.2098 11.5481 22.2081 11.5472C22.1484 11.5189 22.0879 11.4907 22.0299 11.4588C21.9755 11.4288 21.922 11.3979 21.8702 11.3634C21.8325 11.3387 21.7474 11.2989 21.7087 11.2591C21.7219 11.2697 21.7307 11.268 21.7087 11.2503C21.6912 11.2353 21.6728 11.222 21.6552 11.207C21.6315 11.1876 21.6078 11.1664 21.585 11.146C21.5236 11.0912 21.4648 11.0356 21.4068 10.9773C21.2857 10.8553 21.1725 10.7263 21.0646 10.592C21.0523 10.577 21.0409 10.5619 21.0286 10.5469C21.0277 10.546 21.0269 10.5452 21.0269 10.5443C21.0242 10.5407 21.0216 10.5372 21.0198 10.5337L21.019 10.5328C21.0181 10.5319 21.0172 10.531 21.0172 10.531L21.0163 10.5301C21.0154 10.5301 21.0154 10.5292 21.0146 10.5284L21.0137 10.5275C21.0119 10.5257 21.0093 10.5231 21.0075 10.5195C20.9795 10.4824 20.9523 10.4462 20.9251 10.4082C20.861 10.3198 20.7996 10.2306 20.7399 10.1404C20.4924 9.76842 20.2967 9.36106 20.0308 9.00142C19.7991 8.68684 19.5367 8.41379 19.2252 8.17786C18.7697 7.83323 18.2273 7.63087 17.6657 7.55842C17.491 7.53544 17.312 7.52484 17.1339 7.53279C16.9794 7.17491 16.7407 6.85415 16.4695 6.58021C16.0834 6.18876 15.6174 5.86976 15.1242 5.63294C13.9991 5.09126 12.6783 4.90923 11.476 5.29627C10.7977 5.51542 10.1834 5.90157 9.67787 6.40613C9.38651 6.69686 9.13113 7.02646 8.9091 7.37373C8.64933 7.78021 8.42994 8.20967 8.15613 8.60819C8.09557 8.69656 8.03414 8.78315 7.97096 8.86975C7.95253 8.89538 7.9341 8.92012 7.91479 8.94486C7.91304 8.94751 7.89636 8.97049 7.88583 8.98374C7.8516 9.02881 7.8165 9.07299 7.78052 9.11806C7.64713 9.2833 7.50759 9.44413 7.36191 9.59876C7.22676 9.7428 7.08635 9.88065 6.94067 10.0141C6.87748 10.0715 6.81429 10.1272 6.74935 10.182C6.71513 10.2111 6.68002 10.2403 6.64404 10.2695C6.62825 10.2827 6.61245 10.2951 6.59665 10.3083C6.59226 10.3119 6.58085 10.3198 6.56945 10.3295C6.56506 10.3331 6.56155 10.3357 6.55804 10.3384L6.55716 10.3393C6.5554 10.3393 6.5554 10.3401 6.5554 10.341C6.55277 10.3428 6.55014 10.3454 6.54751 10.3472C6.54575 10.3481 6.54575 10.349 6.54575 10.349C6.54224 10.3516 6.54049 10.3534 6.54049 10.3534C6.28949 10.5425 6.0271 10.7175 5.75153 10.8695C5.6234 10.9401 5.49264 11.0055 5.36013 11.0674C5.33117 11.0806 5.30221 11.093 5.27325 11.1054C5.27061 11.1072 5.2671 11.108 5.26447 11.1098C5.26008 11.1116 5.25569 11.1142 5.25131 11.1151C5.18461 11.1416 5.11791 11.1699 5.05122 11.1938C4.8327 11.275 4.60891 11.3422 4.38249 11.3952C4.2842 11.4173 4.18591 11.4376 4.08675 11.4535C4.05077 11.4597 4.01391 11.465 3.97793 11.4703C3.97441 11.4712 3.9709 11.4712 3.96739 11.4721C3.96388 11.473 3.96037 11.473 3.95686 11.4739C3.95511 11.4739 3.95335 11.4748 3.9516 11.4748C3.9358 11.4765 3.92 11.4783 3.90421 11.4801C3.69885 11.5021 3.49613 11.5066 3.2899 11.4986C3.28024 11.4977 3.27059 11.4968 3.26181 11.496C3.08542 11.4765 2.91604 11.6674 2.92306 11.8371C2.93184 12.0385 3.07225 12.1569 3.26181 12.1781C3.34343 12.1879 3.4268 12.1887 3.51017 12.1879C3.56634 12.187 3.6225 12.1843 3.67779 12.1808C3.86033 12.1702 4.04287 12.1499 4.22453 12.1198C4.42988 12.0862 4.63436 12.0403 4.83357 11.9829C6.10959 11.617 7.22764 10.812 8.08943 9.80819C8.39834 9.44854 8.68005 9.06504 8.93455 8.66475C9.18203 8.27594 9.38651 7.86239 9.65242 7.48684C9.67962 7.44973 9.70683 7.41261 9.73403 7.3755C9.73579 7.37285 9.74105 7.36578 9.7472 7.35871C9.75071 7.35429 9.75334 7.35164 9.7551 7.34811C9.75685 7.34634 9.75773 7.34457 9.75861 7.34369L9.76036 7.34192C9.76212 7.34015 9.76212 7.33927 9.76299 7.3375C9.76475 7.33574 9.7665 7.33309 9.76738 7.33132C9.7744 7.32248 9.78142 7.31453 9.78844 7.30569C9.85075 7.22705 9.91657 7.15017 9.98327 7.07594C10.1035 6.9434 10.2307 6.81615 10.3641 6.69862C10.4186 6.64914 10.4756 6.60319 10.5326 6.55812C10.5326 6.55812 10.5335 6.55724 10.5353 6.55636C10.5361 6.55459 10.537 6.55459 10.5397 6.55282C10.5405 6.55194 10.5414 6.55105 10.5423 6.55105C10.5432 6.55105 10.544 6.54929 10.5458 6.5484C10.5502 6.54398 10.5537 6.54133 10.5581 6.5378C10.5555 6.53957 10.5528 6.54222 10.5511 6.54487C10.5695 6.53073 10.5949 6.51129 10.602 6.50599C10.6397 6.47859 10.6774 6.45209 10.7161 6.42646C10.853 6.33279 10.9943 6.24885 11.1408 6.17285C11.2058 6.13927 11.2716 6.10746 11.3383 6.0783C11.34 6.07742 11.34 6.07742 11.3418 6.07653C11.34 6.07653 11.3391 6.07742 11.3374 6.07742C11.3409 6.07653 11.3444 6.07565 11.3479 6.07477C11.3462 6.07565 11.3444 6.07653 11.3427 6.07653C11.3988 6.06946 11.3821 6.06505 11.3558 6.07212C11.3699 6.06593 11.3857 6.05709 11.3979 6.05267C11.4374 6.03677 11.4778 6.02175 11.5182 6.00673C11.6568 5.95547 11.799 5.91306 11.9429 5.87771C12.0175 5.86004 12.0921 5.84413 12.1667 5.83088C12.2009 5.82381 12.2352 5.81851 12.2685 5.81321C12.2755 5.81144 12.2826 5.81144 12.2905 5.81055L12.2896 5.81144C12.294 5.81144 12.308 5.80967 12.3264 5.80525C12.4739 5.78758 12.6222 5.77786 12.7705 5.77521C12.9188 5.77344 13.068 5.77874 13.2163 5.79111C13.2804 5.79642 13.3418 5.80349 13.4059 5.81055C13.4067 5.81055 13.4076 5.81055 13.4076 5.81144C13.4208 5.81321 13.4331 5.81497 13.4454 5.81674C13.4848 5.82293 13.5243 5.82999 13.5638 5.83618C13.8499 5.88743 14.1308 5.96431 14.4028 6.06416C14.4634 6.08625 14.5239 6.11011 14.5845 6.13397C14.588 6.13574 14.5915 6.13662 14.5959 6.13839C14.5968 6.13927 14.5976 6.13927 14.5976 6.13927C14.5994 6.14016 14.6003 6.14104 14.602 6.14104C14.6047 6.14281 14.6073 6.14369 14.6099 6.14546C14.6477 6.16225 14.6854 6.17904 14.724 6.19671C14.8469 6.25415 14.968 6.316 15.0865 6.38316C15.2032 6.45032 15.319 6.52189 15.4305 6.59789C15.4805 6.63147 15.5296 6.66593 15.577 6.70216C15.5876 6.70923 15.5972 6.71718 15.6077 6.72425C15.6121 6.72778 15.6156 6.73132 15.6209 6.73485C15.6341 6.74546 15.6428 6.74899 15.6464 6.74899C15.663 6.76401 15.6806 6.78257 15.6911 6.79052C15.8754 6.94339 16.0483 7.11129 16.201 7.29597C16.2124 7.31011 16.2238 7.32425 16.2352 7.33839C16.237 7.34104 16.2396 7.3428 16.2405 7.34546C16.2484 7.35518 16.2563 7.3649 16.2624 7.3755C16.2958 7.42057 16.3265 7.46652 16.3572 7.51335C16.4142 7.60348 16.466 7.69626 16.5108 7.79347C16.5125 7.79788 16.5152 7.80407 16.5178 7.81026C16.516 7.80407 16.5134 7.797 16.5108 7.78993C16.5152 7.8023 16.5204 7.81556 16.5248 7.82793C16.5292 7.83588 16.5318 7.84472 16.5354 7.85355C16.5529 7.8995 16.5678 7.94722 16.581 7.99494C16.6345 8.18139 16.8162 8.26799 16.997 8.23264C17.0119 8.22999 17.0277 8.22822 17.0417 8.22557C17.004 8.23264 16.9838 8.23617 16.975 8.23883C16.9935 8.23617 17.0575 8.22646 17.0874 8.22469C17.2418 8.21408 17.3971 8.21673 17.5516 8.23176C17.5744 8.23352 17.5972 8.23617 17.6201 8.23883C17.6227 8.23883 17.6244 8.23971 17.6271 8.23971C17.6288 8.24059 17.6288 8.24059 17.6306 8.24059C17.6824 8.24943 17.7324 8.25738 17.7842 8.26887C17.8991 8.29273 18.0132 8.32366 18.1238 8.36077C18.1773 8.37844 18.23 8.39788 18.2826 8.41909C18.3195 8.44737 18.33 8.44118 18.3133 8.43235C18.3046 8.42793 18.2932 8.42439 18.2853 8.41909C18.2914 8.42174 18.2976 8.42351 18.3037 8.42616C18.3081 8.42793 18.3107 8.42969 18.3142 8.43146C18.316 8.43146 18.3177 8.43235 18.3186 8.43323C18.3581 8.4509 18.3967 8.46946 18.4353 8.4889C18.5643 8.55429 18.689 8.6294 18.8074 8.71335C18.8338 8.73279 18.8601 8.75223 18.8855 8.77167C18.9013 8.78581 18.9189 8.79818 18.9347 8.81143C19.0014 8.8671 19.0663 8.92631 19.1286 8.98728C19.1874 9.0456 19.2445 9.1048 19.2989 9.16754C19.327 9.19935 19.355 9.23205 19.3831 9.26651C19.3937 9.27977 19.4051 9.29391 19.4165 9.30716C19.4165 9.30804 19.4165 9.30804 19.4174 9.30893C19.4182 9.30981 19.4191 9.31069 19.42 9.31246C19.4209 9.31335 19.4209 9.31423 19.4217 9.31423C19.4217 9.31511 19.4226 9.31511 19.4226 9.316C19.4226 9.316 19.4235 9.31688 19.4244 9.31776C19.4244 9.31776 19.4244 9.31776 19.4253 9.31865C19.4253 9.31953 19.4261 9.31953 19.4261 9.32041C19.434 9.33102 19.4454 9.34516 19.4498 9.35134C19.7113 9.70657 19.9053 10.1077 20.1484 10.4762C20.5363 11.0612 20.9953 11.6347 21.6017 12.0014C21.6912 12.0553 21.7825 12.103 21.8755 12.1446C22.1063 12.2488 22.3494 12.3169 22.5977 12.3549C22.84 12.3929 23.0892 12.4026 23.3375 12.3884C23.5139 12.3787 23.6851 12.2391 23.6763 12.0474C23.6675 11.8662 23.5254 11.6912 23.3358 11.7019ZM12.2896 5.80702C12.294 5.80525 12.3036 5.80437 12.3203 5.8026C12.3098 5.80437 12.2992 5.80525 12.2896 5.80702Z" fill="#7266BA"/>
<path d="M4.09143 23.6382C4.08441 23.64 4.07651 23.64 4.06949 23.6418C3.97296 23.6665 3.86765 23.6762 3.76321 23.6789C3.6816 23.6815 3.59998 23.6807 3.52363 23.6771C3.20682 23.6674 2.88562 23.6161 2.58373 23.5181C1.64384 23.2097 0.927722 22.4842 0.519643 21.589C0.232672 20.9608 0.0422347 20.2689 0.00537594 19.5761C-0.0227069 19.0733 0.0571538 18.559 0.294103 18.1119C0.455579 17.8079 0.685508 17.5605 0.955805 17.3661C1.14449 17.23 1.35423 17.1195 1.57187 17.0338C1.73774 16.9684 1.90974 16.9172 2.08263 16.8801C2.35907 16.82 2.65218 16.7785 2.94091 16.774C3.04886 16.7714 3.15592 16.774 3.26211 16.7838C3.45167 16.8005 3.59208 16.9269 3.60086 17.1248C3.60788 17.298 3.43938 17.481 3.26211 17.4659C3.25509 17.4651 3.24807 17.4642 3.24105 17.4642C3.13486 17.4615 3.02955 17.4589 2.92336 17.4615C2.88387 17.4615 2.84262 17.4633 2.80225 17.4659C2.74258 17.4695 2.6829 17.4739 2.62323 17.4801C2.59514 17.4827 2.56794 17.4863 2.53985 17.4889C2.53634 17.4898 2.53371 17.4898 2.5302 17.4907C2.52932 17.4907 2.52845 17.4907 2.52845 17.4907C2.52669 17.4907 2.52406 17.4916 2.5223 17.4916C2.51879 17.4924 2.51616 17.4933 2.51265 17.4933C2.51177 17.4942 2.51089 17.4942 2.51002 17.4942C2.50738 17.4951 2.50387 17.4951 2.50124 17.496C2.48983 17.4977 2.4793 17.4986 2.4793 17.4995C2.34766 17.5198 2.2169 17.5472 2.08965 17.5817C2.01681 17.6011 1.94309 17.6241 1.87201 17.6489C1.83252 17.6621 1.7939 17.6771 1.75529 17.6922C1.75353 17.693 1.75178 17.6939 1.7509 17.6939C1.74827 17.6957 1.74564 17.6966 1.743 17.6975C1.74388 17.6975 1.74476 17.6966 1.74476 17.6957C1.73949 17.6975 1.73423 17.7001 1.72808 17.7028C1.73072 17.701 1.73423 17.7001 1.73686 17.6992C1.72106 17.7063 1.71141 17.7107 1.70702 17.7125C1.70614 17.7134 1.70527 17.7134 1.70439 17.7142C1.70263 17.7142 1.70263 17.7151 1.70263 17.7151C1.571 17.7761 1.44375 17.8477 1.32615 17.9325C1.32264 17.9343 1.31123 17.9422 1.30333 17.9493C1.3086 17.9449 1.31474 17.9413 1.32001 17.9369C1.31562 17.9413 1.30772 17.9466 1.29631 17.9555C1.29719 17.9537 1.29719 17.9537 1.29807 17.9537C1.29368 17.9572 1.28841 17.9608 1.28402 17.9643C1.28666 17.9625 1.28929 17.9599 1.29192 17.959C1.28139 17.967 1.26998 17.9758 1.26033 17.9846C1.22961 18.0111 1.19802 18.0394 1.16818 18.0686C1.12255 18.1145 1.08042 18.1623 1.0383 18.2117C1.0383 18.2117 1.0383 18.2126 1.03742 18.2135C1.03742 18.2135 1.03654 18.2135 1.03654 18.2153C1.03567 18.2144 1.03654 18.2135 1.03654 18.2135C1.03567 18.2144 1.03567 18.2153 1.03479 18.2153L1.03391 18.2162C1.03391 18.217 1.03391 18.217 1.03391 18.217C1.03216 18.2179 1.03216 18.2188 1.0304 18.2206C1.02952 18.2206 1.02952 18.2215 1.02952 18.2223C1.02689 18.225 1.0225 18.2294 1.01899 18.2347C1.01548 18.2391 1.01197 18.2427 1.00846 18.2471C1.00495 18.2515 1.00144 18.255 0.99793 18.2595C1.00144 18.255 1.00495 18.2524 1.00846 18.2489C1.00407 18.255 0.999685 18.2603 0.997052 18.2648C0.984766 18.2824 0.97248 18.301 0.960194 18.3195C0.937376 18.3558 0.914559 18.392 0.894374 18.4291C0.870679 18.4715 0.84874 18.5148 0.828555 18.559C0.825922 18.5634 0.824167 18.5696 0.821534 18.5749C0.817146 18.5891 0.811003 18.6032 0.805738 18.6173C0.769757 18.7145 0.741673 18.8153 0.719734 18.9169C0.712713 18.9496 0.709203 18.9849 0.704815 19.0194C0.702182 19.0229 0.696917 19.038 0.694284 19.0539C0.694284 19.0592 0.693406 19.0645 0.692529 19.0706C0.697794 19.0539 0.701304 19.0362 0.704815 19.0185C0.707448 19.0141 0.707448 19.0265 0.692529 19.0715C0.692529 19.0759 0.691651 19.0821 0.690774 19.0874C0.688141 19.1157 0.685508 19.1458 0.683753 19.174C0.674977 19.2977 0.674099 19.4232 0.679365 19.5478C0.682875 19.6185 0.688141 19.6892 0.696039 19.7608C0.698672 19.7917 0.70306 19.8217 0.70657 19.8518C0.707448 19.8562 0.708325 19.8624 0.708325 19.8668C0.71008 19.8765 0.711836 19.8863 0.712713 19.8951C0.764491 20.23 0.849617 20.5614 0.960194 20.8804C0.985644 20.9546 1.01285 21.0279 1.04181 21.1013C1.0462 21.1128 1.05146 21.1234 1.05497 21.1357C1.05673 21.1393 1.05848 21.1428 1.05936 21.1463C1.06112 21.149 1.06199 21.1525 1.06375 21.1552C1.06463 21.1569 1.0655 21.1587 1.0655 21.1596C1.0655 21.1605 1.06638 21.1614 1.06638 21.1614C1.06726 21.1622 1.06726 21.1631 1.06726 21.1631C1.06638 21.1631 1.06638 21.1631 1.06638 21.1622C1.06726 21.1631 1.06726 21.164 1.06726 21.164C1.06726 21.1631 1.06726 21.1631 1.06726 21.1622C1.08042 21.1905 1.09271 21.2179 1.10412 21.2453C1.16204 21.3717 1.2261 21.4963 1.29543 21.6164C1.3595 21.7269 1.4297 21.8338 1.50518 21.9372C1.50956 21.9425 1.51307 21.9478 1.51746 21.954C1.51483 21.9505 1.51307 21.9469 1.51044 21.9434C1.51571 21.9496 1.52361 21.9602 1.53501 21.9779C1.55169 21.9982 1.56749 22.0185 1.58416 22.0388C1.61751 22.0786 1.65173 22.1175 1.68684 22.1555C1.76231 22.2376 1.84217 22.3163 1.9273 22.3896C1.94924 22.4091 1.9703 22.4268 1.99312 22.4453C1.9975 22.4488 2.00189 22.4524 2.00804 22.4559C2.00453 22.4541 2.00101 22.4524 1.9975 22.4497C2.00189 22.4524 2.0054 22.4541 2.00979 22.4568C2.01067 22.4568 2.01155 22.4577 2.01155 22.4586C2.05894 22.4868 2.0484 22.4824 2.02822 22.47C2.05894 22.4921 2.0879 22.516 2.11861 22.5372C2.25552 22.6309 2.39856 22.7069 2.54775 22.7784C2.54863 22.7784 2.54951 22.7784 2.54951 22.7793C2.55302 22.7811 2.55653 22.7829 2.56004 22.7846C2.56179 22.7855 2.56443 22.7864 2.56618 22.7873C2.56706 22.7873 2.56794 22.7882 2.56794 22.7882C2.56881 22.789 2.56969 22.789 2.56969 22.7899C2.5732 22.7917 2.57671 22.7935 2.58022 22.7944C2.58198 22.7952 2.58198 22.7961 2.58373 22.7961C2.58549 22.7979 2.58812 22.7979 2.58988 22.7997H2.59075C2.59778 22.8023 2.60392 22.805 2.60831 22.8067C2.62586 22.8138 2.64341 22.82 2.66184 22.827C2.6987 22.8403 2.73643 22.8536 2.77417 22.8659C2.84964 22.8907 2.92599 22.9119 3.00322 22.9304C3.06992 22.9463 3.13661 22.9587 3.20331 22.9702C3.20682 22.972 3.21033 22.972 3.21384 22.972C3.2077 22.9702 3.20331 22.9702 3.20331 22.9702C3.20331 22.9693 3.21823 22.972 3.26211 22.979C3.25948 22.979 3.25772 22.979 3.25509 22.9781C3.26386 22.9799 3.27352 22.9808 3.28229 22.9826C3.27615 22.9817 3.27089 22.9808 3.26562 22.9799C3.2937 22.9826 3.32179 22.9861 3.34987 22.9879C3.42008 22.9941 3.49204 22.9985 3.56225 22.9985C3.60261 22.9994 3.64386 22.9994 3.68511 22.9976C3.75707 22.9958 3.82903 22.9914 3.90012 22.9843C3.90363 22.9835 3.90714 22.9826 3.90977 22.9826C4.09494 22.9481 4.26168 23.0321 4.32312 23.215C4.32487 23.2167 4.32487 23.2194 4.32575 23.2212C4.3275 23.2256 4.32838 23.2291 4.32926 23.2335C4.33014 23.2362 4.33101 23.2388 4.33101 23.2424C4.37226 23.4023 4.25817 23.6064 4.09143 23.6382Z" fill="#7266BA"/>
<path d="M1.6269 19.5416C1.69097 19.5416 1.75503 19.5461 1.81822 19.5505C1.88755 19.5558 1.956 19.5664 2.02533 19.5726C1.89281 19.562 2.04025 19.5752 2.07447 19.5814C2.11835 19.5885 2.16223 19.5973 2.20611 19.6062C2.30001 19.6256 2.39216 19.6495 2.48343 19.6777C2.52731 19.6919 2.57119 19.706 2.61419 19.7228C2.63876 19.7316 2.66334 19.7449 2.68879 19.752C2.59137 19.7246 2.67387 19.7458 2.69932 19.7581C2.78971 19.8006 2.87308 19.8518 2.9547 19.9084C3.01262 19.9481 2.89502 19.8562 2.94768 19.9031C2.96698 19.9199 2.98717 19.9366 3.0056 19.9543C3.04333 19.9897 3.07756 20.0285 3.11003 20.0683C3.22148 20.2079 3.47423 20.1938 3.58832 20.0683C3.72346 19.9198 3.70679 19.7352 3.58832 19.5867C3.30398 19.2297 2.83534 19.0459 2.40269 18.9531C2.14995 18.8984 1.88404 18.8612 1.62515 18.8604C1.44788 18.8604 1.2785 19.0176 1.2864 19.2014C1.29693 19.3861 1.43734 19.5416 1.6269 19.5416Z" fill="#7266BA"/>
<path d="M23.9873 22.4556C23.9919 22.451 23.9941 22.4488 23.9957 22.448C23.9934 22.4495 23.9903 22.4526 23.9873 22.4556Z" fill="#7266BA"/>
<path d="M25.857 18.4582C25.7236 18.08 25.5016 17.7345 25.1918 17.4791C25.1462 17.442 25.1005 17.4058 25.0531 17.3722C24.8627 17.2361 24.6582 17.1257 24.4415 17.0399C24.3713 17.0117 24.2993 16.9852 24.2265 16.9622C23.8614 16.8464 23.47 16.7846 23.0821 16.7766C22.9899 16.7748 22.8969 16.7757 22.8056 16.7801C22.789 16.781 22.7714 16.7819 22.7539 16.7828C22.5775 16.7943 22.4063 16.9312 22.4151 17.1239C22.423 17.298 22.5643 17.4773 22.7539 17.465C22.8688 17.4579 22.9838 17.4579 23.0988 17.4623C23.1137 17.4623 23.1286 17.4632 23.1435 17.4641C23.2532 17.4685 23.3612 17.4773 23.4709 17.4906C23.4779 17.4924 23.4849 17.4924 23.4928 17.4941C23.5279 17.4986 23.5621 17.5047 23.5972 17.5109C23.6657 17.5224 23.7341 17.5365 23.8017 17.5533C23.9439 17.5869 24.0834 17.6293 24.2194 17.6815C24.2352 17.6877 24.2493 17.6938 24.2651 17.7C24.2668 17.7009 24.2686 17.7018 24.2695 17.7018C24.2975 17.715 24.3265 17.7283 24.3546 17.7424C24.4239 17.7769 24.4924 17.8149 24.5582 17.8555C24.5898 17.875 24.6214 17.8953 24.6512 17.9174C24.6688 17.9289 24.6854 17.9413 24.7012 17.9545H24.7021C24.7609 18.004 24.8188 18.0544 24.8724 18.11C24.8996 18.1383 24.9259 18.1675 24.9505 18.1966C24.9584 18.2055 24.9663 18.2152 24.9742 18.2249C24.9768 18.2284 24.9794 18.232 24.9821 18.2355C24.9838 18.2382 24.9864 18.2399 24.9882 18.2426C24.9943 18.2497 25.0005 18.2594 25.0031 18.2647C24.9979 18.2576 24.9926 18.2505 24.9873 18.2426C24.9856 18.2399 24.9829 18.2382 24.9821 18.2355C24.9794 18.232 24.9768 18.2293 24.9742 18.2258C24.9961 18.2576 25.0031 18.2682 25.0049 18.2682C25.0479 18.3292 25.0865 18.3919 25.1216 18.4573C25.1409 18.4927 25.1585 18.5289 25.1751 18.5651C25.1751 18.566 25.176 18.5669 25.176 18.5669C25.1848 18.5899 25.1936 18.612 25.2015 18.6349C25.2348 18.7286 25.262 18.824 25.2813 18.9212C25.2918 18.9663 25.298 19.0122 25.3059 19.0573C25.3076 19.0653 25.3076 19.0741 25.3085 19.0812C25.312 19.1103 25.3147 19.1404 25.3164 19.1695C25.3252 19.2906 25.3261 19.4108 25.3208 19.5318C25.3182 19.5928 25.3138 19.6555 25.3085 19.7165C25.305 19.7483 25.3015 19.781 25.298 19.8128C25.2962 19.8296 25.291 19.8491 25.291 19.865C25.269 20.0125 25.2392 20.1592 25.205 20.305C25.1681 20.4623 25.1242 20.6187 25.0751 20.7725C25.0531 20.8423 25.0294 20.9121 25.0031 20.9819C24.99 21.019 24.975 21.0552 24.961 21.0924C24.9557 21.1065 24.9496 21.1215 24.9443 21.1357C24.9434 21.1374 24.9434 21.1374 24.9426 21.1392C24.9364 21.1957 24.8846 21.2709 24.8601 21.3221C24.8294 21.3866 24.7969 21.4494 24.7635 21.5121C24.703 21.6234 24.638 21.7321 24.567 21.8373C24.5389 21.8788 24.5082 21.9203 24.4783 21.961C24.4774 21.9619 24.4774 21.9619 24.4766 21.9628C24.4555 21.9875 24.4494 21.9955 24.4502 21.9955C24.4336 22.0175 24.4151 22.0396 24.3958 22.0617C24.3274 22.143 24.2554 22.2199 24.1791 22.2924C24.1168 22.3524 24.0474 22.4046 23.9825 22.462C23.9781 22.4656 23.9728 22.4691 23.9693 22.4735C23.9641 22.4779 23.9588 22.4823 23.9544 22.4868C23.9579 22.4841 23.9605 22.4815 23.9632 22.4779C23.9588 22.4823 23.9535 22.4859 23.95 22.4885C23.9333 22.5009 23.9167 22.5124 23.9009 22.5239C23.8605 22.5522 23.8193 22.5795 23.7771 22.6061C23.7008 22.6538 23.6218 22.698 23.5411 22.7386C23.5042 22.7572 23.4673 22.7739 23.4305 22.7907C23.4287 22.7916 23.4287 22.7916 23.4278 22.7925C23.4112 22.7996 23.3936 22.8058 23.3769 22.8119C23.2339 22.8667 23.0865 22.9109 22.9373 22.9427C22.8767 22.956 22.8153 22.9666 22.7547 22.9763C22.7442 22.9781 22.7337 22.9781 22.724 22.9798C22.6916 22.9843 22.6591 22.9869 22.6266 22.9896C22.5748 22.994 22.5222 22.9966 22.4704 22.9966C22.344 23.001 22.2168 22.9966 22.0922 22.9825C22.1115 22.9851 22.1255 22.9869 22.1334 22.9887C22.1299 22.9878 22.1246 22.9878 22.1176 22.9869C21.9561 22.9622 21.7727 23.0214 21.7122 23.1866C21.7087 23.1972 21.7051 23.2078 21.7025 23.2184C21.7016 23.2202 21.7016 23.2228 21.7008 23.2246C21.6639 23.3872 21.7499 23.6161 21.9368 23.6435C22.0474 23.6602 22.1589 23.6717 22.2703 23.6753C22.6354 23.6912 23.0031 23.6443 23.3533 23.5392C24.2282 23.275 24.9276 22.6414 25.3594 21.8373C25.6604 21.2753 25.8596 20.6435 25.95 20.0125C26.0238 19.4956 26.0325 18.9557 25.857 18.4582ZM24.4695 21.9725C24.4652 21.9787 24.4581 21.9866 24.4546 21.9901C24.459 21.9857 24.4616 21.9804 24.466 21.976C24.4687 21.9716 24.4722 21.9689 24.4757 21.9645C24.4739 21.9672 24.4713 21.9698 24.4695 21.9725Z" fill="#7266BA"/>
<path d="M22.9167 20.0347C22.9492 19.9975 22.9834 19.9622 23.0211 19.9286C23.044 19.9083 23.1019 19.8809 23.022 19.9251C23.0448 19.9127 23.0659 19.8933 23.087 19.8783C23.1659 19.8252 23.2502 19.7819 23.3353 19.7413C23.3959 19.7121 23.2599 19.7696 23.3388 19.7395C23.3608 19.7316 23.3827 19.7218 23.4055 19.7139C23.4503 19.698 23.495 19.683 23.5398 19.6697C23.6302 19.6423 23.7215 19.6202 23.8136 19.6017C23.8584 19.5928 23.9022 19.5849 23.947 19.5769C23.9637 19.5743 23.9812 19.5716 23.9979 19.569C24.0865 19.5557 23.9312 19.5769 23.9891 19.5699C24.0541 19.5628 24.119 19.5548 24.1848 19.5495C24.2471 19.5451 24.3103 19.5407 24.3726 19.5407C24.5499 19.5398 24.7193 19.3843 24.7114 19.1996C24.7035 19.0149 24.5631 18.8585 24.3726 18.8585C24.1199 18.8594 23.8619 18.8956 23.6153 18.9469C23.1879 19.0361 22.7333 19.2129 22.4384 19.5513C22.3217 19.6856 22.298 19.903 22.4384 20.0329C22.5657 20.1531 22.7921 20.1778 22.9167 20.0347Z" fill="#7266BA"/>
<path d="M24.8742 14.5481C24.8654 14.663 24.8549 14.7761 24.8435 14.891C24.8365 14.9528 24.8303 15.0155 24.8224 15.0774C24.8189 15.1083 24.8154 15.1401 24.811 15.1711C24.8101 15.1781 24.8057 15.2126 24.8031 15.2365C24.8031 15.2382 24.8022 15.24 24.8022 15.2409C24.8013 15.2453 24.8005 15.2488 24.8005 15.2524V15.2541C24.7671 15.4998 24.7276 15.7437 24.6811 15.9858C24.6144 16.3393 24.5346 16.6909 24.4407 17.0373C24.3705 17.0091 24.2985 16.9826 24.2257 16.9596C23.8606 16.8438 23.4692 16.782 23.0813 16.774C23.0277 15.3602 22.8645 13.9516 22.6328 12.5572C22.6214 12.4874 22.6091 12.4176 22.5968 12.3478C22.8391 12.3858 23.0883 12.3955 23.3367 12.3814C23.5131 12.3717 23.6842 12.232 23.6754 12.0403C23.6684 11.8645 23.5262 11.6895 23.3367 11.6992C23.2085 11.7063 23.0804 11.7089 22.9531 11.7036C22.8952 11.7019 22.8391 11.6974 22.7811 11.6913C22.7741 11.6904 22.7662 11.6895 22.7592 11.6895C22.7302 11.6824 22.6951 11.6798 22.6662 11.6753C22.5451 11.6533 22.4248 11.6223 22.309 11.5817C22.2985 11.5781 22.2888 11.5746 22.2783 11.5711C22.2642 11.5667 22.2502 11.5605 22.2362 11.5552C22.2309 11.5534 22.2239 11.5508 22.2169 11.549C22.216 11.5481 22.2151 11.5481 22.2142 11.5472C22.2133 11.5463 22.2107 11.5455 22.209 11.5446C22.1493 11.5163 22.0887 11.488 22.0308 11.4562C21.9764 11.4262 21.9229 11.3952 21.8711 11.3608C21.8333 11.336 21.7482 11.2963 21.7096 11.2565C21.7228 11.2671 21.7315 11.2653 21.7096 11.2477C21.6921 11.2326 21.6736 11.2194 21.6561 11.2044C21.6324 11.1849 21.6087 11.1637 21.5859 11.1434C21.5244 11.0886 21.4656 11.0329 21.4077 10.9746C21.2866 10.8527 21.1734 10.7237 21.0655 10.5893C21.0532 10.5743 21.0418 10.5593 21.0295 10.5443C21.0286 10.5434 21.0277 10.5425 21.0277 10.5416C21.0251 10.5381 21.0225 10.5346 21.0207 10.531L21.0198 10.5301C21.0189 10.5293 21.0181 10.5284 21.0181 10.5284L21.0172 10.5275C21.0163 10.5275 21.0163 10.5266 21.0154 10.5257L21.0146 10.5248C21.0128 10.5231 21.0102 10.5204 21.0084 10.5169C20.9803 10.4798 20.9531 10.4435 20.9259 10.4055C20.8619 10.3172 20.8004 10.2279 20.7407 10.1378C20.4933 9.76578 20.2976 9.35842 20.0317 8.99877C19.8 8.68419 19.5376 8.41114 19.226 8.17521C18.7706 7.83059 18.2282 7.62823 17.6665 7.55577C17.4919 7.5328 17.3129 7.52219 17.1347 7.53015C16.9803 7.17227 16.7416 6.8515 16.4704 6.57757C16.0843 6.18611 15.6183 5.86711 15.1251 5.6303C14 5.08862 12.6792 4.90659 11.4769 5.29363C10.7985 5.51277 10.1842 5.89893 9.67873 6.40349C9.38737 6.69421 9.13199 7.02381 8.90996 7.37109C8.6502 7.77757 8.4308 8.20702 8.15699 8.60555C8.09644 8.69391 8.03501 8.78051 7.97182 8.86711C7.95339 8.89273 7.93496 8.91748 7.91566 8.94222C7.9139 8.94487 7.89723 8.96784 7.88669 8.9811C7.85247 9.02617 7.81737 9.07035 7.78138 9.11541C7.64799 9.28066 7.50845 9.44148 7.36277 9.59612C7.22762 9.74015 7.08721 9.878 6.94153 10.0114C6.87835 10.0689 6.81516 10.1245 6.75022 10.1793C6.71599 10.2085 6.68089 10.2376 6.64491 10.2668C6.62911 10.2801 6.61331 10.2924 6.59752 10.3057C6.59313 10.3092 6.58172 10.3172 6.57031 10.3269C6.56592 10.3295 6.56241 10.3322 6.5589 10.3357L6.55802 10.3366C6.55627 10.3366 6.55627 10.3375 6.55627 10.3384C6.55364 10.3402 6.551 10.3428 6.54837 10.3446C6.54662 10.3455 6.54662 10.3463 6.54662 10.3463C6.54311 10.349 6.54135 10.3508 6.54135 10.3508C6.29036 10.5399 6.02796 10.7148 5.7524 10.8668C5.62427 10.9375 5.49351 11.0029 5.36099 11.0647C5.33203 11.078 5.30307 11.0904 5.27411 11.1027C5.27148 11.1045 5.26797 11.1054 5.26534 11.1072C5.26095 11.1089 5.25656 11.1116 5.25217 11.1125C5.18548 11.139 5.11878 11.1672 5.05208 11.1911C4.83356 11.2724 4.60978 11.3396 4.38336 11.3926C4.28507 11.4147 4.18678 11.435 4.08761 11.4509C4.05163 11.4571 4.01477 11.4624 3.97879 11.4677C3.97528 11.4686 3.97177 11.4686 3.96826 11.4695C3.96475 11.4703 3.96124 11.4703 3.95773 11.4712C3.95597 11.4712 3.95422 11.4721 3.95246 11.4721C3.93666 11.4739 3.92087 11.4756 3.90507 11.4774C3.69972 11.4995 3.49699 11.5039 3.29076 11.496C3.28111 11.4951 3.27145 11.4942 3.26268 11.4933C3.08628 11.4739 2.91691 11.6647 2.92393 11.8344C2.9327 12.0359 3.07312 12.1543 3.26268 12.1755C3.34429 12.1852 3.42766 12.1861 3.51103 12.1852C3.35131 12.8939 3.24425 13.6194 3.15122 14.3378C3.04591 15.1454 2.97483 15.9593 2.94236 16.7749C2.65363 16.7793 2.36051 16.8208 2.08407 16.8809C1.91119 16.918 1.73918 16.9693 1.57332 17.0347C1.51891 16.789 1.47503 16.5416 1.43378 16.2942C1.41798 16.2005 1.40307 16.1077 1.38902 16.0132C1.382 15.9672 1.37586 15.9222 1.36884 15.8762C1.36533 15.8506 1.36182 15.8241 1.35831 15.7993C1.35831 15.7985 1.35831 15.7976 1.35743 15.7967C1.35743 15.7923 1.35655 15.7887 1.35567 15.7843C1.35567 15.7826 1.35568 15.7799 1.3548 15.7773C1.35392 15.7711 1.35304 15.7658 1.35304 15.7596C1.35216 15.7552 1.35129 15.7507 1.35129 15.7472C1.35129 15.7463 1.35129 15.7463 1.35129 15.7454C1.35129 15.7437 1.35041 15.7428 1.35041 15.741C1.3232 15.5272 1.29863 15.3125 1.27845 15.0968C1.22842 14.5667 1.20122 14.0338 1.19771 13.501C1.19332 12.8815 1.2214 12.2621 1.28547 11.6471C1.29337 11.5649 1.30302 11.4845 1.31267 11.4032C1.31706 11.3687 1.32057 11.3351 1.32584 11.3007C1.32759 11.2874 1.32847 11.2742 1.33023 11.2609C1.33023 11.2609 1.33023 11.26 1.33023 11.2591C1.33023 11.2583 1.3311 11.2574 1.3311 11.2565C1.33198 11.2538 1.33198 11.2494 1.33286 11.2432C1.33198 11.2424 1.33198 11.2415 1.33286 11.2415C1.33374 11.2397 1.33374 11.2379 1.33374 11.2362C1.33374 11.2353 1.33374 11.2344 1.33374 11.2344C1.33461 11.2326 1.33461 11.23 1.33549 11.2273C1.35831 11.0612 1.38376 10.8951 1.41184 10.729C1.46976 10.3896 1.53997 10.0521 1.62246 9.71718C1.70759 9.37256 1.80676 9.03058 1.91997 8.69303C1.97789 8.5216 2.03844 8.35017 2.10426 8.1814C2.1341 8.10275 2.16481 8.02499 2.19728 7.94723C2.20343 7.93044 2.21045 7.91365 2.21747 7.89686C2.21922 7.89244 2.22186 7.88714 2.22449 7.88007C2.24555 7.83059 2.26661 7.78022 2.28855 7.73162C2.59483 7.0353 2.96781 6.36814 3.4066 5.74694C3.46101 5.66918 3.51805 5.5923 3.57422 5.5163C3.58914 5.49686 3.60406 5.47654 3.61898 5.4571C3.62073 5.45533 3.62337 5.45092 3.626 5.4465C3.63039 5.44208 3.63302 5.43766 3.63653 5.43324C3.63653 5.43236 3.63741 5.43147 3.63741 5.43147C3.64092 5.42706 3.64267 5.42441 3.64443 5.42175C3.64531 5.42087 3.64531 5.41999 3.64618 5.41999C3.64706 5.41822 3.64794 5.41822 3.64794 5.41734C3.64969 5.41557 3.65057 5.41469 3.65057 5.41469C3.67251 5.38553 3.69621 5.35548 3.71902 5.32632C3.8454 5.16638 3.97616 5.00997 4.11131 4.85799C4.39126 4.54164 4.68876 4.24208 5.00206 3.95931C5.16529 3.81174 5.33203 3.67036 5.50316 3.53251C5.53914 3.50423 5.57425 3.47596 5.61111 3.44768C5.61286 3.44591 5.61462 3.44503 5.61637 3.44326C5.61813 3.44149 5.62076 3.43973 5.62339 3.43884C5.62515 3.43708 5.62778 3.43442 5.63041 3.43266C5.64094 3.4247 5.65235 3.41587 5.65586 3.41322C5.6778 3.39643 5.70062 3.37875 5.72256 3.36108C5.81383 3.29304 5.90598 3.225 5.999 3.15961C6.38689 2.88391 6.79059 2.6303 7.20569 2.3979C7.64711 2.15225 8.1017 1.93045 8.56595 1.73163C8.56683 1.73163 8.56683 1.73163 8.5677 1.73075C8.56858 1.73075 8.56946 1.73075 8.56946 1.72986C8.57121 1.72898 8.57121 1.72898 8.57297 1.7281C8.57385 1.7281 8.57385 1.72721 8.57473 1.72721C8.5756 1.72721 8.57648 1.72633 8.57736 1.72633C8.57824 1.72544 8.57911 1.72456 8.58087 1.72456C8.58262 1.72368 8.58438 1.72279 8.58613 1.72279C8.60368 1.71572 8.62738 1.706 8.62826 1.70512C8.65897 1.69187 8.69057 1.67949 8.72128 1.66624C8.77569 1.64415 8.83098 1.62206 8.88627 1.59997C9.02844 1.54341 9.17149 1.48951 9.31453 1.43737C9.57342 1.34371 9.83407 1.25799 10.0982 1.18023C10.6028 1.0309 11.1171 0.911603 11.6366 0.825005C11.7419 0.807332 11.8481 0.790543 11.9552 0.776404H11.9561C11.957 0.775521 11.9578 0.77552 11.9587 0.77552C11.9605 0.77552 11.9605 0.774637 11.9622 0.77552C11.9631 0.77552 11.964 0.774637 11.9657 0.774637C11.9675 0.774637 11.9684 0.774637 11.9701 0.773753C11.9868 0.771986 12.0149 0.768451 12.0193 0.767567C12.05 0.763149 12.0816 0.760499 12.1123 0.75608C12.1851 0.748127 12.258 0.739291 12.3299 0.733105C12.5713 0.708363 12.8126 0.692457 13.0539 0.683621C13.5296 0.666831 14.0061 0.679202 14.4791 0.721618C14.5959 0.732221 14.7135 0.744593 14.8302 0.759615C14.8486 0.761382 14.8662 0.764033 14.8837 0.766684C14.8837 0.766684 14.8881 0.767568 14.896 0.768451C14.8978 0.768451 14.9004 0.769335 14.9021 0.769335C14.9048 0.770218 14.9074 0.771102 14.91 0.771102C14.9127 0.771986 14.9144 0.771986 14.9171 0.771986C14.9285 0.773753 14.9399 0.775521 14.9434 0.776404C15.0013 0.784357 15.0584 0.793193 15.1163 0.80203C15.3453 0.839143 15.5726 0.882442 15.7982 0.933694C16.244 1.03443 16.6819 1.16433 17.111 1.32073C17.2172 1.35961 17.3234 1.39938 17.4287 1.44179C17.4717 1.45947 17.5156 1.47714 17.5595 1.4957C17.563 1.49746 17.5726 1.501 17.5823 1.50542C17.5841 1.5063 17.5867 1.50718 17.5884 1.50807C17.592 1.50983 17.5955 1.51072 17.599 1.51248C17.6016 1.51337 17.6034 1.51425 17.6051 1.51425C17.606 1.51514 17.6069 1.51514 17.6069 1.51602C17.6078 1.51514 17.6078 1.51602 17.6086 1.5169C17.6095 1.5169 17.6104 1.5169 17.6104 1.5169C17.6104 1.51779 17.6113 1.51779 17.6113 1.51779C17.613 1.51779 17.613 1.51867 17.613 1.51867C17.6376 1.52927 17.6622 1.53988 17.6867 1.55048C17.893 1.6415 18.0957 1.73782 18.2949 1.8412C18.6942 2.04709 19.0803 2.27773 19.4516 2.53045C19.6376 2.65681 19.8202 2.78848 19.9983 2.92456C20.0027 2.92721 20.0176 2.94046 20.0299 2.9493C20.0308 2.95018 20.0317 2.95107 20.0317 2.95107C20.0334 2.95284 20.0352 2.95372 20.0369 2.95549C20.0387 2.95725 20.0413 2.95814 20.0413 2.95902H20.0422C20.0422 2.9599 20.0431 2.96079 20.0431 2.96079C20.0562 2.97139 20.0711 2.98288 20.0852 2.99348C20.122 3.02264 20.158 3.0518 20.194 3.08185C20.2888 3.15873 20.3818 3.23737 20.474 3.3169C20.8153 3.61292 21.14 3.92839 21.4463 4.26064C21.5999 4.42765 21.75 4.59908 21.8948 4.77404C21.9615 4.85445 22.0273 4.93575 22.0914 5.01704C22.1089 5.03913 22.1265 5.06211 22.144 5.0842C22.1458 5.08685 22.1528 5.09657 22.1607 5.10629C22.1616 5.10806 22.1624 5.10806 22.1624 5.10983C22.1668 5.11513 22.1703 5.12043 22.1738 5.12485C22.1756 5.12662 22.1765 5.12838 22.1774 5.12927C22.1774 5.12927 22.1774 5.12927 22.1782 5.13015C22.2125 5.17522 22.2467 5.22117 22.28 5.26623C22.8233 6.00143 23.2884 6.79406 23.6719 7.62469C23.721 7.73073 23.7684 7.83766 23.8149 7.94546C23.8263 7.97197 23.8378 7.99848 23.8492 8.02499V8.02587L23.85 8.02676C23.85 8.02764 23.85 8.02852 23.8509 8.02852C23.8509 8.02941 23.8518 8.02941 23.8518 8.03029C23.8518 8.03117 23.8527 8.03206 23.8527 8.03294C23.8544 8.03471 23.8553 8.03736 23.8553 8.03913C23.8553 8.04001 23.8562 8.04089 23.8562 8.04089C23.8571 8.04089 23.8571 8.04089 23.8571 8.04178C23.8808 8.1001 23.9045 8.15754 23.9273 8.21586C24.0142 8.435 24.0966 8.65592 24.1721 8.8786C24.3257 9.32749 24.4565 9.78522 24.5644 10.2483C24.6188 10.4815 24.6662 10.7166 24.7092 10.9525C24.7285 11.0612 24.7469 11.1699 24.7636 11.2786C24.7733 11.3378 24.782 11.3979 24.7908 11.458C24.7952 11.4871 24.7987 11.5163 24.8031 11.5463C24.804 11.5516 24.8049 11.5561 24.8049 11.5596C24.8057 11.5649 24.8066 11.5711 24.8066 11.5764C24.8084 11.5861 24.8092 11.5958 24.8101 11.6055C24.8707 12.0898 24.9075 12.5758 24.9189 13.0636C24.9286 13.5593 24.9146 14.0541 24.8742 14.5481Z" fill="#7266BA"/>
<path d="M25.0526 17.3723C25.0307 17.4509 25.0079 17.5305 24.9851 17.6091C24.9324 17.7867 24.7481 17.8972 24.5691 17.8468C24.3953 17.7991 24.2804 17.6038 24.333 17.428C24.3708 17.2989 24.4076 17.1699 24.441 17.04C24.534 16.6928 24.6147 16.342 24.6814 15.9885C24.7271 15.7455 24.7674 15.5016 24.8008 15.2568C24.8017 15.2551 24.8017 15.2551 24.8017 15.2533C24.8017 15.2542 24.8008 15.2551 24.8008 15.2551C24.8017 15.2515 24.8025 15.248 24.8025 15.2436C24.8025 15.2418 24.8034 15.24 24.8034 15.2392C24.806 15.2153 24.8104 15.1808 24.8113 15.1738C24.8157 15.1428 24.8192 15.111 24.8227 15.0801C24.8297 15.0182 24.8368 14.9555 24.8438 14.8936C24.8552 14.7788 24.8657 14.6657 24.8745 14.5508C24.9149 14.0577 24.9289 13.562 24.9175 13.0663C24.9061 12.5785 24.8692 12.0925 24.8087 11.6082C24.8078 11.5985 24.8069 11.5888 24.8052 11.5791C24.8052 11.5791 24.8043 11.5738 24.8034 11.5623C24.8025 11.5579 24.8017 11.5543 24.8017 11.549C24.7973 11.519 24.7938 11.4898 24.7894 11.4607C24.7806 11.4006 24.7718 11.3405 24.7622 11.2813C24.7455 11.1726 24.7271 11.063 24.7078 10.9552C24.6648 10.7193 24.6174 10.4842 24.563 10.2509C24.455 9.78791 24.3242 9.33107 24.1707 8.88129C24.0952 8.65861 24.0127 8.4377 23.9258 8.21855C23.903 8.16023 23.8793 8.10368 23.8556 8.04447C23.8556 8.04359 23.8556 8.04359 23.8547 8.04359C23.8547 8.0427 23.8539 8.04182 23.8539 8.04182C23.8539 8.04005 23.8521 8.0374 23.8512 8.03564C23.8512 8.03387 23.8512 8.03387 23.8503 8.03298C23.8503 8.0321 23.8495 8.0321 23.8495 8.03122C23.8495 8.03033 23.8486 8.02945 23.8486 8.02945L23.8477 8.02857V8.02768C23.8363 8.00117 23.8249 7.97466 23.8135 7.94815C23.7679 7.84035 23.7196 7.73431 23.6704 7.62739C23.2869 6.79676 22.8218 6.00412 22.2786 5.26893C22.2444 5.22298 22.2101 5.17791 22.1768 5.13284C22.1759 5.13196 22.1759 5.13196 22.1759 5.13196C22.175 5.13108 22.1742 5.12931 22.1724 5.12754C22.1689 5.12312 22.1654 5.11782 22.161 5.11252C22.161 5.11075 22.1592 5.11075 22.1592 5.10898C22.1513 5.09926 22.1443 5.08954 22.1426 5.08689C22.125 5.0648 22.1075 5.04183 22.0899 5.01974C22.0258 4.93756 21.96 4.85714 21.8933 4.77673C21.7485 4.60177 21.5985 4.43034 21.4449 4.26333C21.1386 3.93108 20.813 3.61562 20.4725 3.31959C20.3804 3.24006 20.2873 3.16142 20.1926 3.08454C20.1566 3.05538 20.1197 3.02622 20.0837 2.99618C20.0697 2.98557 20.0556 2.97409 20.0416 2.96348C20.0416 2.96348 20.0407 2.9626 20.0407 2.96171H20.0399C20.039 2.96083 20.0372 2.95995 20.0355 2.95818C20.0337 2.95641 20.0311 2.95464 20.0302 2.95376C20.0302 2.95376 20.0293 2.95288 20.0284 2.95199C20.0162 2.94316 20.0004 2.9299 19.9969 2.92725C19.8187 2.79117 19.637 2.65951 19.4501 2.53314C19.0789 2.28042 18.6928 2.04979 18.2935 1.8439C18.0934 1.74051 17.8906 1.64331 17.6853 1.55318C17.6607 1.54257 17.6361 1.53108 17.6116 1.52136C17.6116 1.52136 17.6107 1.52048 17.6098 1.52048C17.6098 1.52048 17.6089 1.52048 17.6089 1.5196C17.6089 1.5196 17.6081 1.5196 17.6072 1.5196C17.6063 1.51871 17.6063 1.51783 17.6054 1.51871C17.6045 1.51783 17.6037 1.51783 17.6037 1.51695C17.6019 1.51606 17.6002 1.51518 17.5975 1.51518C17.594 1.51341 17.5905 1.51164 17.587 1.51076C17.5852 1.50988 17.5826 1.50899 17.5808 1.50811C17.5703 1.50369 17.5615 1.50016 17.558 1.49839C17.515 1.47983 17.4703 1.46216 17.4273 1.44449C17.322 1.40207 17.2158 1.36231 17.1096 1.32343C16.6813 1.16702 16.2425 1.03712 15.7967 0.936387C15.5712 0.885136 15.3439 0.841837 15.1148 0.804724C15.0569 0.795887 14.9999 0.787051 14.9419 0.779098C14.9384 0.778214 14.927 0.777331 14.9156 0.77468C14.9139 0.77468 14.9112 0.774679 14.9086 0.773796C14.906 0.773796 14.9033 0.772912 14.9007 0.772028C14.8989 0.772028 14.8963 0.771145 14.8945 0.771145C14.8875 0.770261 14.8823 0.769378 14.8823 0.769378C14.8647 0.766727 14.8472 0.764959 14.8287 0.762308C14.712 0.747286 14.5944 0.734915 14.4777 0.724311C14.0047 0.681013 13.5281 0.669525 13.0525 0.686314C12.8112 0.695151 12.5689 0.71194 12.3285 0.735799C12.2556 0.742868 12.1828 0.750821 12.1108 0.758774C12.0801 0.763192 12.0485 0.765843 12.0178 0.770261C12.0134 0.771145 11.9862 0.77468 11.9687 0.776447C11.9669 0.777331 11.9652 0.77733 11.9643 0.77733C11.9634 0.77733 11.9616 0.778214 11.9608 0.778214C11.959 0.777331 11.959 0.778214 11.9573 0.778214C11.9564 0.778214 11.9555 0.778214 11.9546 0.779098H11.9537C11.8476 0.793236 11.7414 0.810025 11.6352 0.827698C11.1156 0.914296 10.6014 1.03359 10.0968 1.18293C9.83261 1.26069 9.57109 1.3464 9.31308 1.44007C9.16915 1.4922 9.02699 1.54611 8.88482 1.60266C8.82953 1.62475 8.77424 1.64596 8.71983 1.66893C8.68911 1.68219 8.65752 1.69456 8.6268 1.70781C8.62593 1.7087 8.60223 1.71842 8.58468 1.72549C8.58293 1.72637 8.58029 1.72725 8.57941 1.72725C8.57766 1.72814 8.5759 1.72902 8.57503 1.72902C8.5759 1.72902 8.5759 1.72902 8.57678 1.72902C8.57503 1.72902 8.57503 1.72991 8.57415 1.72991C8.57327 1.72991 8.57327 1.73079 8.57239 1.73079C8.57064 1.73167 8.57064 1.73167 8.56888 1.73256C8.56801 1.73344 8.56713 1.73344 8.56713 1.73344C8.56625 1.73432 8.56625 1.73432 8.56537 1.73432C8.10113 1.93226 7.64654 2.15494 7.20511 2.4006C6.78913 2.63211 6.38632 2.88572 5.99842 3.1623C5.9054 3.22858 5.81325 3.29573 5.72198 3.36377C5.70004 3.38056 5.67723 3.39824 5.65529 3.41591C5.65178 3.41856 5.64124 3.42651 5.62984 3.43535C5.6272 3.43712 5.62457 3.43977 5.62282 3.44154C5.62018 3.4433 5.61843 3.44507 5.6158 3.44595C5.61404 3.44772 5.61141 3.44949 5.61053 3.45037C5.57367 3.47865 5.53857 3.50604 5.50259 3.5352C5.33233 3.67305 5.16471 3.81444 5.00148 3.96201C4.68818 4.24389 4.3898 4.54433 4.11073 4.86068C3.97558 5.01267 3.84482 5.16907 3.71845 5.32901C3.69563 5.35729 3.67281 5.38733 3.64999 5.41738C3.64999 5.41738 3.64912 5.41826 3.64736 5.42003C3.64736 5.42091 3.64648 5.4218 3.64561 5.42268C3.64561 5.4218 3.64561 5.4218 3.64561 5.42091C3.64561 5.4218 3.64473 5.42268 3.64385 5.42356C3.6421 5.42533 3.63946 5.42887 3.63683 5.43328C3.63508 5.43505 3.63508 5.43505 3.63332 5.43682C3.6342 5.43594 3.63508 5.43505 3.63595 5.43505C3.63244 5.43947 3.62893 5.44389 3.62542 5.44831C3.62279 5.45272 3.61928 5.45714 3.6184 5.45891C3.60348 5.47835 3.58856 5.49867 3.57364 5.51812C3.5166 5.59411 3.46044 5.67187 3.40602 5.74875C2.96811 6.36995 2.59513 7.03711 2.28798 7.73343C2.26604 7.78291 2.24497 7.8324 2.22391 7.88188C2.2204 7.88895 2.21865 7.89514 2.21689 7.89867C2.20987 7.91546 2.20285 7.93313 2.19671 7.94904C2.16511 8.0268 2.13352 8.10544 2.10368 8.18321C2.03786 8.35198 1.97731 8.52341 1.91939 8.69484C1.80618 9.03239 1.70789 9.37348 1.62189 9.71899C1.53939 10.0539 1.46919 10.3914 1.41126 10.7308C1.38318 10.896 1.35773 11.063 1.33491 11.2291C1.33404 11.2318 1.33404 11.2344 1.33316 11.2362C1.33316 11.2362 1.33316 11.2371 1.33316 11.238C1.33316 11.2398 1.33316 11.2424 1.33228 11.2433C1.3314 11.2451 1.3314 11.2451 1.3314 11.2468C1.3314 11.2468 1.3314 11.2459 1.33228 11.2451C1.33053 11.2521 1.33053 11.2557 1.33053 11.2583C1.33053 11.2601 1.32965 11.2601 1.32965 11.261C1.32965 11.2618 1.32965 11.2627 1.32965 11.2627C1.32789 11.276 1.32614 11.2892 1.32526 11.3025C1.32087 11.337 1.31648 11.3705 1.3121 11.405C1.30244 11.4863 1.29279 11.5676 1.28489 11.6489C1.22083 12.2648 1.19274 12.8833 1.19713 13.5028C1.20064 14.0347 1.22785 14.5685 1.27787 15.0987C1.29806 15.3143 1.32263 15.529 1.34983 15.7428C1.34983 15.7446 1.35071 15.7455 1.35071 15.7473C1.35071 15.7481 1.35071 15.7481 1.35071 15.749C1.35159 15.7526 1.35247 15.7561 1.35247 15.7614C1.35334 15.7676 1.35422 15.7729 1.35422 15.7791C1.3551 15.7808 1.3551 15.7835 1.3551 15.7861C1.35598 15.7906 1.35685 15.7941 1.35685 15.7985C1.35773 15.7994 1.35773 15.8003 1.35773 15.8012C1.36212 15.8268 1.36475 15.8524 1.36826 15.878C1.37528 15.924 1.38143 15.969 1.38845 16.015C1.40249 16.1087 1.41741 16.2023 1.4332 16.296C1.47445 16.5434 1.51833 16.7917 1.57274 17.0365C1.60082 17.169 1.63329 17.2998 1.66928 17.4297C1.78599 17.8539 1.13307 18.0333 1.01635 17.6109C1.00933 17.5861 1.00319 17.5614 0.997042 17.5375C0.983001 17.4819 0.96896 17.4253 0.956673 17.3688C0.833811 16.8518 0.75044 16.3252 0.680232 15.7994C0.538063 14.7213 0.487163 13.6291 0.539818 12.5423C0.607393 11.154 0.838199 9.76671 1.28665 8.45007C1.80355 6.93549 2.59952 5.53049 3.66491 4.33932C4.95146 2.90074 6.58904 1.83683 8.353 1.09103C10.2969 0.268348 12.4276 -0.153154 14.5365 0.0509695C16.4137 0.233002 18.2268 0.883368 19.7906 1.94552C21.3413 2.99883 22.634 4.4109 23.5941 6.02533C24.591 7.7025 25.2194 9.58291 25.4739 11.5181C25.731 13.4701 25.581 15.4733 25.0526 17.3723Z" fill="#7266BA"/>
<path d="M16.8045 30.6982V30.6997C16.8037 30.6974 16.8037 30.6959 16.8037 30.6959C16.8045 30.6967 16.8045 30.6982 16.8045 30.6982Z" fill="#7266BA"/>
<path d="M17.4512 33.1287C17.4519 33.1302 17.4527 33.1302 17.4527 33.1317C17.4519 33.1302 17.4519 33.1294 17.4512 33.1287Z" fill="#7266BA"/>
<path d="M17.4561 33.1375C17.4568 33.139 17.4576 33.139 17.4576 33.1405C17.4576 33.1405 17.4576 33.1405 17.4568 33.1397C17.4561 33.1397 17.4561 33.1382 17.4561 33.1375Z" fill="#7266BA"/>
<path d="M18.296 34.62C18.2975 34.6216 18.299 34.6238 18.2998 34.6261C18.2983 34.6246 18.2983 34.6231 18.296 34.6223C18.2945 34.6208 18.2937 34.6193 18.293 34.6185C18.2945 34.6185 18.2952 34.6193 18.296 34.62Z" fill="#7266BA"/>
<path d="M18.3163 34.6487C18.3178 34.651 18.3193 34.6525 18.3201 34.6533C18.3186 34.6518 18.3155 34.648 18.3125 34.6442C18.314 34.6457 18.3148 34.6464 18.3163 34.6487Z" fill="#7266BA"/>
<path d="M8.7734 32.8811C8.77515 32.8768 8.77603 32.8741 8.77778 32.8698V32.8706C8.7734 32.8829 8.7664 32.8986 8.76465 32.903C8.76552 32.9013 8.76727 32.8969 8.7699 32.889C8.77165 32.8855 8.77165 32.8838 8.7734 32.8811Z" fill="#7266BA"/>
<path d="M8.77734 32.8699C8.77914 32.8654 8.78093 32.8591 8.78363 32.8546C8.78363 32.8555 8.78363 32.8555 8.78363 32.8564L8.78273 32.8582C8.78183 32.8591 8.78093 32.86 8.78093 32.8627V32.8636C8.78004 32.8645 8.77914 32.8654 8.77914 32.8672C8.77914 32.8663 8.77914 32.8681 8.77734 32.8699Z" fill="#7266BA"/>
<path d="M9.24414 31.1415C9.24504 31.1352 9.24504 31.1307 9.24594 31.1281C9.24594 31.1298 9.24594 31.1325 9.24504 31.137C9.24414 31.1379 9.24414 31.1397 9.24414 31.1415Z" fill="#7266BA"/>
<path d="M15.1475 15.9567C15.7381 15.8136 16.341 15.712 16.9422 15.628C17.0326 15.6157 16.8632 15.6386 16.9518 15.6263C16.9861 15.6218 17.0194 15.6174 17.0536 15.613C17.1221 15.6042 17.1914 15.5962 17.2607 15.5883C17.3968 15.5724 17.5328 15.5582 17.6688 15.5458C17.9488 15.5202 18.2287 15.5025 18.5096 15.4946C18.7869 15.4866 19.0651 15.4884 19.3424 15.5052C19.4758 15.5131 19.6083 15.5246 19.7408 15.5405C19.7575 15.5423 19.7742 15.545 19.7917 15.5467C19.8575 15.5547 19.7031 15.5335 19.7689 15.5432C19.7961 15.5476 19.8242 15.5511 19.8514 15.5556C19.9163 15.5662 19.9813 15.5768 20.0453 15.59C20.1778 15.6165 20.3104 15.6492 20.4394 15.6899C20.5008 15.7093 20.5614 15.7305 20.621 15.7535C20.6342 15.7588 20.6482 15.7641 20.6614 15.7694C20.7158 15.7906 20.5833 15.7341 20.6333 15.757C20.6632 15.7712 20.693 15.7844 20.7228 15.7986C20.829 15.8507 20.9212 15.917 21.0203 15.9797C20.9177 15.9143 20.9949 15.9594 21.0221 15.9832C21.0449 16.0027 21.066 16.0221 21.0879 16.0433C21.1265 16.0813 21.1625 16.1211 21.1967 16.1635C21.3082 16.3031 21.5609 16.289 21.675 16.1635C21.8102 16.0151 21.7944 15.8304 21.675 15.6819C21.374 15.3064 20.8957 15.0987 20.4429 14.9821C19.8988 14.8416 19.3266 14.8053 18.7667 14.808C17.7136 14.8133 16.6578 14.9582 15.6258 15.1588C15.4055 15.2012 15.1861 15.2463 14.9685 15.2984C14.7965 15.34 14.6771 15.5467 14.7324 15.7173C14.7886 15.8984 14.9623 16.0009 15.1475 15.9567Z" fill="#7266BA"/>
<path d="M11.0693 15.2073C10.4559 15.0571 9.82838 14.9581 9.20266 14.8777C8.09602 14.7354 6.93585 14.6665 5.83711 14.9086C5.28598 15.0306 4.71906 15.2585 4.32765 15.6818C4.20655 15.8126 4.18987 16.0362 4.32765 16.1634C4.45929 16.2845 4.67781 16.303 4.80594 16.1634C4.84104 16.1254 4.8779 16.0883 4.91652 16.0538C4.93407 16.0379 4.9525 16.022 4.97093 16.007C4.98146 15.9982 4.99462 15.9893 5.00427 15.9796C4.92354 16.0565 4.96829 16.007 4.99374 15.9893C5.08238 15.9248 5.1754 15.8683 5.27282 15.8179C5.32284 15.7914 5.37462 15.7684 5.42639 15.7445C5.44921 15.7339 5.47817 15.7322 5.38866 15.7605C5.40358 15.756 5.4185 15.7481 5.43254 15.7428C5.46238 15.7313 5.49221 15.7198 5.52205 15.7083C5.63789 15.6659 5.75725 15.6297 5.8766 15.5996C6.00209 15.5678 6.12934 15.5413 6.25659 15.5192C6.31539 15.5095 6.37419 15.5015 6.43211 15.4918C6.30837 15.5113 6.43826 15.4909 6.46722 15.4883C6.5032 15.4839 6.53918 15.4803 6.57604 15.4768C6.85423 15.4485 7.13418 15.437 7.41326 15.4362C7.96 15.4353 8.50673 15.4759 9.04908 15.5404C9.10613 15.5475 9.16229 15.5546 9.21934 15.5616C9.24917 15.5652 9.37291 15.5855 9.24566 15.5652C9.27813 15.5705 9.31061 15.574 9.34308 15.5784C9.45716 15.5943 9.57037 15.612 9.68358 15.6297C9.88192 15.6615 10.0794 15.6959 10.2768 15.7339C10.4813 15.7737 10.6867 15.8144 10.8885 15.8638C11.0605 15.9063 11.2632 15.8091 11.3045 15.6261C11.3449 15.4512 11.2527 15.2524 11.0693 15.2073Z" fill="#7266BA"/>
<path d="M15.5037 19.0892C15.8336 19.1758 16.1785 19.2209 16.5164 19.2536C17.1939 19.3198 17.8942 19.2969 18.555 19.121C18.971 19.0106 19.3782 18.8321 19.7231 18.5714C19.6362 18.5829 19.5493 18.5944 19.4625 18.6058C19.8082 18.6686 20.154 18.7313 20.4998 18.7941C20.6735 18.8259 20.8727 18.7463 20.9157 18.5564C20.9535 18.3902 20.8657 18.1711 20.6797 18.1375C20.4103 18.0889 20.1408 18.0394 19.8705 17.9908C19.7082 17.9617 19.5072 17.8972 19.3633 17.9979C19.2589 18.0703 19.1553 18.1419 19.0438 18.2038C18.9938 18.2312 18.9429 18.2577 18.8911 18.2824C18.8639 18.2957 18.8359 18.3081 18.8087 18.3204C18.7551 18.3452 18.8192 18.3151 18.8271 18.3134C18.806 18.3204 18.785 18.331 18.7639 18.339C18.5357 18.4282 18.2988 18.4927 18.0583 18.5369C18.0039 18.5466 17.9486 18.5555 17.8933 18.5643C17.8337 18.574 17.91 18.5608 17.917 18.5617C17.9039 18.5617 17.8872 18.5652 17.8731 18.567C17.8372 18.5714 17.8003 18.5758 17.7634 18.5793C17.6485 18.5908 17.5335 18.5988 17.4186 18.6032C17.1965 18.612 16.9745 18.6076 16.7533 18.5935C16.6568 18.5873 16.5611 18.5793 16.4655 18.5687C16.4216 18.5643 16.3769 18.559 16.333 18.5537C16.3119 18.5511 16.2908 18.5475 16.2698 18.5458C16.2689 18.5458 16.3654 18.559 16.3137 18.5519C16.3014 18.5502 16.2891 18.5484 16.2759 18.5466C16.0776 18.5184 15.8784 18.4848 15.6844 18.4344C15.5133 18.3893 15.3088 18.491 15.2685 18.6721C15.2272 18.848 15.3202 19.0406 15.5037 19.0892Z" fill="#7266BA"/>
<path d="M10.3715 18.3619C10.2074 18.4008 10.0398 18.4291 9.87302 18.4556C9.83352 18.4618 9.79403 18.4679 9.75454 18.4732C9.74489 18.475 9.73523 18.4759 9.72558 18.4777C9.68521 18.4838 9.81159 18.4662 9.77034 18.4715C9.74489 18.475 9.71856 18.4785 9.69311 18.4812C9.5957 18.4936 9.49916 18.5042 9.40175 18.513C9.1885 18.5324 8.97524 18.5448 8.76111 18.5466C8.52416 18.5492 8.28633 18.5404 8.05026 18.5157C8.02306 18.513 7.99585 18.5095 7.96865 18.5059C7.95548 18.5042 7.94144 18.5015 7.9274 18.5006C7.93267 18.5006 8.0134 18.513 7.95636 18.5042C7.89581 18.4944 7.83438 18.4856 7.77382 18.4741C7.66061 18.4529 7.54828 18.4264 7.43771 18.3946C7.3833 18.3787 7.32888 18.3619 7.27535 18.3433C7.25078 18.3345 7.22533 18.3257 7.20076 18.3159C7.18496 18.3098 7.17004 18.3045 7.15512 18.2983C7.14284 18.2939 7.08755 18.2709 7.14108 18.293C7.19812 18.3168 7.11124 18.2788 7.10071 18.2744C7.07438 18.262 7.04806 18.2488 7.02173 18.2355C6.96995 18.209 6.91993 18.1808 6.86991 18.1498C6.82603 18.1233 6.7839 18.0942 6.74266 18.0641C6.67157 18.012 6.77864 18.095 6.73563 18.0597C6.65753 17.9943 6.57503 17.9307 6.46709 17.936C6.41005 17.9386 6.35301 17.9537 6.29684 17.9651C5.9774 18.0341 5.65883 18.1021 5.33939 18.171C5.16563 18.2081 5.04891 18.422 5.10332 18.5899C5.16212 18.7737 5.33412 18.8682 5.5193 18.8276C5.86507 18.7534 6.21084 18.6791 6.55661 18.6049C6.44691 18.5757 6.33721 18.5466 6.22751 18.5174C6.81813 19.0114 7.58514 19.1793 8.33548 19.219C8.95418 19.2526 9.57815 19.1943 10.1881 19.09C10.3092 19.0697 10.4303 19.0476 10.5488 19.0193C10.7216 18.9787 10.8401 18.771 10.7848 18.6005C10.7295 18.4193 10.5558 18.3177 10.3715 18.3619Z" fill="#7266BA"/>
<path d="M8.52662 12.3567C8.4099 12.3567 8.29757 12.2887 8.24755 12.1738C8.17997 12.0192 8.2493 11.838 8.40288 11.77C8.4099 11.7665 8.58718 11.6887 8.90135 11.58C9.0602 11.5252 9.23396 11.61 9.28837 11.77C9.34278 11.9299 9.25853 12.1049 9.09969 12.1597C8.81184 12.2595 8.65036 12.3302 8.64861 12.3311C8.60912 12.3479 8.56787 12.3567 8.52662 12.3567Z" fill="#7266BA"/>
<path d="M12.585 10.8854C12.2743 10.8987 11.9593 10.9252 11.6486 10.9614C11.481 10.9808 11.3616 11.1328 11.3809 11.3016C11.3985 11.458 11.5301 11.5729 11.6828 11.5729C11.6942 11.5729 11.7065 11.572 11.7179 11.5711C12.0154 11.5367 12.3156 11.5128 12.6113 11.4987C12.7798 11.4907 12.9097 11.3476 12.9018 11.1779C12.8948 11.0082 12.75 10.8783 12.585 10.8854ZM11.0755 11.3476C11.0448 11.1814 10.8851 11.0719 10.7201 11.1019C10.4121 11.1602 10.1032 11.2283 9.80392 11.306C9.64157 11.3493 9.54328 11.5163 9.58628 11.6798C9.62138 11.8185 9.74512 11.9096 9.88115 11.9096C9.9066 11.9096 9.93205 11.9069 9.9575 11.8998C10.2436 11.8247 10.5385 11.7593 10.8325 11.7046C10.9966 11.6745 11.1063 11.5137 11.0755 11.3476Z" fill="#7266BA"/>
<path d="M13.035 14.9608C12.8665 14.9608 12.7305 14.8239 12.7305 14.6542V14.1426C12.7305 13.9729 12.8665 13.8359 13.035 13.8359C13.2035 13.8359 13.3395 13.9729 13.3395 14.1426V14.6542C13.3395 14.823 13.2026 14.9608 13.035 14.9608Z" fill="#7266BA"/>
<path d="M13.035 20.3095C12.8665 20.3095 12.7305 20.1726 12.7305 20.0029V19.1113C12.7305 18.9417 12.8665 18.8047 13.035 18.8047C13.2035 18.8047 13.3395 18.9417 13.3395 19.1113V20.0029C13.3395 20.1726 13.2026 20.3095 13.035 20.3095ZM13.035 18.5263C12.8665 18.5263 12.7305 18.3894 12.7305 18.2197V17.3281C12.7305 17.1585 12.8665 17.0215 13.035 17.0215C13.2035 17.0215 13.3395 17.1585 13.3395 17.3281V18.2197C13.3395 18.3894 13.2026 18.5263 13.035 18.5263ZM13.035 16.7431C12.8665 16.7431 12.7305 16.6062 12.7305 16.4365V15.5449C12.7305 15.3752 12.8665 15.2383 13.035 15.2383C13.2035 15.2383 13.3395 15.3752 13.3395 15.5449V16.4365C13.3395 16.6062 13.2026 16.7431 13.035 16.7431Z" fill="#7266BA"/>
<path d="M13.035 21.712C12.8665 21.712 12.7305 21.5751 12.7305 21.4054V20.8938C12.7305 20.7241 12.8665 20.5872 13.035 20.5872C13.2035 20.5872 13.3395 20.7241 13.3395 20.8938V21.4054C13.3395 21.5751 13.2026 21.712 13.035 21.712Z" fill="#7266BA"/>
<path d="M11.4319 22.151C11.6259 22.3533 11.8672 22.5274 12.1112 22.6626C12.5868 22.9268 13.1634 23.0611 13.6917 22.8782C14.0831 22.743 14.4078 22.4779 14.6588 22.151C14.7168 22.0759 14.758 22.0087 14.758 21.9097C14.758 21.8258 14.7211 21.7259 14.6588 21.6685C14.5377 21.5563 14.2964 21.5183 14.1805 21.6685C14.0726 21.8081 13.9533 21.9345 13.819 22.0485C13.783 22.0794 13.8111 22.0387 13.8295 22.0405C13.8251 22.0405 13.797 22.0635 13.7909 22.0688C13.7628 22.0891 13.733 22.1077 13.7031 22.1262C13.6742 22.1439 13.6452 22.1598 13.6154 22.1757C13.6022 22.1828 13.5899 22.189 13.5768 22.1951C13.5636 22.2013 13.5513 22.2075 13.5382 22.2128C13.5522 22.2066 13.5662 22.2013 13.5803 22.1951C13.5583 22.1934 13.5048 22.2234 13.4829 22.2305C13.4574 22.2384 13.4311 22.2464 13.4056 22.2526C13.3767 22.2597 13.3477 22.2658 13.3188 22.2711C13.303 22.2738 13.2863 22.2747 13.2705 22.2791C13.3056 22.2694 13.3433 22.2703 13.2845 22.2756C13.2319 22.28 13.1783 22.2817 13.1248 22.28C13.0967 22.2791 13.0695 22.2773 13.0414 22.2756C13.0292 22.2747 13.0169 22.2729 13.0046 22.272C12.9379 22.2658 13.0836 22.2853 13.0221 22.2747C12.9107 22.2543 12.801 22.227 12.6939 22.1881C12.672 22.1801 12.6509 22.1713 12.629 22.1633C12.5789 22.1439 12.6597 22.1766 12.6623 22.1775C12.6492 22.1713 12.636 22.166 12.6228 22.1598C12.5746 22.1377 12.5272 22.1138 12.4807 22.0891C12.3964 22.044 12.3148 21.9937 12.2367 21.9398C12.2025 21.9168 12.1691 21.8921 12.1358 21.8673C12.1121 21.8496 12.0533 21.7993 12.1489 21.8779C12.134 21.8655 12.1182 21.8532 12.1033 21.8408C12.0366 21.786 11.9708 21.7295 11.9111 21.6676C11.7882 21.5386 11.5548 21.5333 11.4328 21.6676C11.3064 21.8072 11.3012 22.014 11.4319 22.151Z" fill="#7266BA"/>
<path d="M9.76533 25.2032C9.93909 25.3074 10.1322 25.387 10.3217 25.4577C10.6938 25.5964 11.1028 25.6786 11.5003 25.6583C11.7969 25.6424 12.0725 25.5725 12.3419 25.4471C12.205 25.4294 12.0681 25.4117 11.9321 25.394C12.1366 25.5717 12.3911 25.7033 12.6508 25.774C12.8931 25.8403 13.1397 25.8474 13.3854 25.8032C13.6873 25.7493 13.9532 25.5876 14.1849 25.3932C14.0752 25.4223 13.9655 25.4515 13.8558 25.4806C14.1226 25.5602 14.4122 25.5929 14.6895 25.6017C15.2415 25.6203 15.8137 25.5063 16.2832 25.2023C16.4315 25.106 16.507 24.8957 16.4043 24.7357C16.3086 24.5864 16.1006 24.5104 15.9409 24.6138C15.8576 24.6677 15.7715 24.7136 15.682 24.7569C15.6259 24.7843 15.6812 24.7587 15.6908 24.7543C15.668 24.7658 15.6425 24.7737 15.618 24.7826C15.5697 24.8002 15.5214 24.8161 15.4723 24.8312C15.3924 24.855 15.3108 24.8736 15.2292 24.8886C15.2055 24.893 15.1809 24.8966 15.1572 24.901C15.0774 24.9151 15.2152 24.8948 15.1634 24.9001C15.116 24.9054 15.0695 24.9107 15.0221 24.9142C14.8676 24.9257 14.7114 24.9239 14.557 24.9133C14.492 24.9089 14.428 24.901 14.363 24.8939C14.3183 24.8886 14.4569 24.908 14.3946 24.8983C14.3788 24.8957 14.363 24.8939 14.3472 24.8912C14.3183 24.8868 14.2902 24.8815 14.2612 24.8762C14.1945 24.8639 14.1287 24.848 14.0638 24.832C14.0541 24.8294 14.0445 24.8259 14.0348 24.8241C13.89 24.7905 13.7917 24.8453 13.6794 24.9328C13.7233 24.8983 13.6697 24.9399 13.6583 24.9478C13.6294 24.9681 13.5995 24.9885 13.5688 25.007C13.5276 25.0326 13.4846 25.053 13.4424 25.0759C13.3626 25.1183 13.5065 25.0547 13.4231 25.0848C13.4064 25.091 13.3907 25.0971 13.374 25.1024C13.3301 25.1175 13.2853 25.129 13.2397 25.1387C13.2248 25.1413 13.1941 25.1537 13.18 25.1493C13.2309 25.1431 13.2371 25.1422 13.1993 25.1457C13.1879 25.1466 13.1765 25.1475 13.1642 25.1484C13.123 25.151 13.0809 25.1519 13.0396 25.1502C13.0063 25.1493 12.9633 25.1369 12.9308 25.1413C12.9975 25.1307 12.9861 25.151 12.9475 25.1422C12.9308 25.1387 12.9132 25.136 12.8966 25.1325C12.858 25.1236 12.8193 25.1139 12.7807 25.1016C12.7447 25.0901 12.7096 25.0768 12.6737 25.0636C12.6096 25.0397 12.7491 25.0989 12.6886 25.0706C12.6728 25.0636 12.6579 25.0565 12.6421 25.0494C12.5885 25.0238 12.5368 24.9946 12.4867 24.9637C12.4516 24.9416 12.4174 24.9178 12.3832 24.893C12.3349 24.8586 12.4657 24.9584 12.4165 24.9195C12.413 24.9169 12.4095 24.9142 12.4069 24.9116C12.2823 24.8038 12.1427 24.7905 11.997 24.8586C11.9812 24.8665 11.9646 24.8736 11.9479 24.8806C11.9874 24.8639 11.99 24.8621 11.9549 24.8762C11.9216 24.8877 11.8891 24.9001 11.8557 24.9107C11.7899 24.931 11.7232 24.9469 11.6557 24.9593C11.6311 24.9637 11.6056 24.9699 11.5811 24.9717C11.6794 24.9646 11.5653 24.9717 11.5468 24.9734C11.481 24.9787 11.4152 24.9805 11.3494 24.9796C11.2932 24.9787 11.2362 24.9752 11.18 24.9708C11.1519 24.9681 11.1115 24.9708 11.0852 24.9602C11.1361 24.9672 11.1431 24.9681 11.1054 24.9628C11.0905 24.9602 11.0747 24.9575 11.0598 24.9549C10.9501 24.9363 10.8421 24.9107 10.7351 24.8798C10.6403 24.8524 10.5473 24.8206 10.4551 24.7852C10.4332 24.7764 10.4112 24.7684 10.3902 24.7596C10.3077 24.726 10.4472 24.7852 10.3954 24.7622C10.3647 24.7481 10.3331 24.7348 10.3024 24.7198C10.2348 24.688 10.1673 24.6544 10.1032 24.6164C9.95138 24.5245 9.72496 24.5767 9.63983 24.7384C9.55734 24.9019 9.60297 25.106 9.76533 25.2032Z" fill="#7266BA"/>
<path d="M12.0466 27.2568C12.2695 27.3143 12.503 27.3434 12.7311 27.3647C13.1691 27.4044 13.6236 27.3823 14.0466 27.2568C14.216 27.2065 14.3398 27.0147 14.2827 26.838C14.2274 26.6648 14.0484 26.5464 13.8667 26.6003C13.7641 26.6303 13.6596 26.6551 13.5543 26.6728C13.5438 26.6745 13.4473 26.686 13.5297 26.6772C13.5061 26.6798 13.4824 26.6825 13.4587 26.6851C13.4069 26.6904 13.3551 26.694 13.3033 26.6966C13.1129 26.7063 12.9207 26.701 12.7311 26.6842C12.6934 26.6807 12.6557 26.6772 12.6188 26.6728C12.5977 26.6701 12.5767 26.6657 12.5556 26.6648C12.6565 26.6701 12.5907 26.6692 12.567 26.6657C12.5065 26.6569 12.4459 26.6462 12.3862 26.6348C12.3327 26.6242 12.2792 26.6135 12.2274 26.6003C12.0563 26.5561 11.8518 26.6568 11.8114 26.838C11.7702 27.0147 11.8632 27.2091 12.0466 27.2568Z" fill="#7266BA"/>
<path d="M11.7793 31.0052C11.7907 31.008 11.8012 31.0116 11.8126 31.0161C11.8091 31.0143 11.8109 31.0152 11.8205 31.0188C11.8232 31.0206 11.8267 31.0206 11.8293 31.0224C11.8346 31.0242 11.8399 31.0269 11.846 31.0287C11.8469 31.0296 11.8477 31.0296 11.8486 31.0305C11.8495 31.0305 11.8504 31.0314 11.8504 31.0323C11.8513 31.0323 11.8521 31.0332 11.8521 31.0332C11.8627 31.0377 11.8679 31.0404 11.8697 31.0422C11.8662 31.0413 11.8556 31.0368 11.8442 31.0314C11.8267 31.0287 11.8021 31.0161 11.7793 31.0052Z" fill="#7266BA"/>
<path d="M11.7711 31.7131C11.9027 31.7555 12.0361 31.7953 12.1687 31.8333C12.1502 31.8298 12.1318 31.8262 12.1142 31.8218C11.9133 31.7759 11.7132 31.7149 11.5254 31.6265C11.5227 31.6248 11.521 31.6239 11.5184 31.623C11.5175 31.6221 11.5175 31.6221 11.5166 31.6212C11.5271 31.6256 11.5526 31.6362 11.593 31.6539C11.6518 31.6769 11.7114 31.6946 11.7711 31.7131Z" fill="#7266BA"/>
<path d="M12.5943 31.2208C12.5996 31.2217 12.6031 31.2226 12.6066 31.2226C12.5934 31.2208 12.5671 31.2173 12.5645 31.2164C12.5671 31.2164 12.5706 31.2173 12.5732 31.2173C12.5803 31.2182 12.5873 31.2199 12.5943 31.2208Z" fill="#7266BA"/>
<path d="M13.6037 31.2207C13.6125 31.2199 13.6169 31.219 13.6169 31.219C13.6125 31.2207 13.5714 31.226 13.5862 31.2225H13.588C13.5932 31.2225 13.5985 31.2216 13.6037 31.2207Z" fill="#7266BA"/>
<path d="M14.6425 31.6609C14.5451 31.696 14.4468 31.7276 14.3477 31.7539C14.4468 31.7241 14.5451 31.6934 14.6425 31.6609Z" fill="#7266BA"/>
<path d="M5.19656 21.8003C5.05351 21.8003 4.92626 21.6987 4.89818 21.552C4.8148 21.1208 4.78935 20.8601 4.78848 20.8495C4.77268 20.6807 4.89554 20.5314 5.06228 20.5146C5.2299 20.4978 5.37822 20.6215 5.39489 20.7903C5.39489 20.7929 5.41859 21.0351 5.49669 21.4336C5.52916 21.5997 5.42122 21.7605 5.25623 21.7932C5.23605 21.7985 5.21586 21.8003 5.19656 21.8003Z" fill="#7266BA"/>
<path d="M11.1785 29.8158C11.1381 29.8158 11.0977 29.8079 11.0591 29.7911C10.6475 29.6135 10.2473 29.4076 9.8691 29.1787C9.72518 29.0912 9.67867 28.903 9.76555 28.7581C9.85243 28.6132 10.0394 28.5663 10.1833 28.6538C10.5369 28.8686 10.9126 29.0612 11.2987 29.2273C11.4532 29.2936 11.5251 29.4739 11.4593 29.6303C11.4093 29.746 11.2961 29.8158 11.1785 29.8158ZM8.96694 28.4736C8.89937 28.4736 8.83092 28.4506 8.77475 28.4046C8.43249 28.1245 8.10427 27.8144 7.79887 27.4848C7.6839 27.361 7.69093 27.1666 7.81379 27.0509C7.93665 26.9351 8.12972 26.9422 8.24468 27.0659C8.53078 27.3752 8.83881 27.665 9.15913 27.9283C9.28989 28.0353 9.3092 28.2288 9.20301 28.3596C9.14334 28.4347 9.05558 28.4736 8.96694 28.4736ZM7.20386 26.5719C7.10908 26.5719 7.01518 26.5278 6.95551 26.4438C6.70188 26.0868 6.46318 25.7051 6.24641 25.3092C6.16568 25.1608 6.21921 24.9743 6.36664 24.893C6.51408 24.8108 6.69925 24.8656 6.78087 25.0141C6.98622 25.3896 7.21176 25.751 7.45134 26.0877C7.54963 26.2256 7.51804 26.4173 7.38114 26.5154C7.32673 26.5534 7.26442 26.5719 7.20386 26.5719ZM5.95154 24.293C5.83219 24.293 5.71898 24.2223 5.67072 24.1048C5.50222 23.6983 5.3504 23.2759 5.22139 22.8482C5.17224 22.6865 5.26264 22.5151 5.42411 22.4656C5.58471 22.4161 5.75496 22.5072 5.80411 22.6697C5.92785 23.078 6.07177 23.4809 6.23325 23.8689C6.29819 24.0253 6.22535 24.2046 6.07002 24.27C6.03053 24.2851 5.99016 24.293 5.95154 24.293Z" fill="#7266BA"/>
<path d="M13.0594 30.4141C13.0384 30.4141 13.0164 30.4114 12.9945 30.407C12.7663 30.3575 12.5382 30.3001 12.3188 30.2382C12.1573 30.1923 12.0625 30.0226 12.1081 29.86C12.1538 29.6966 12.3223 29.602 12.4837 29.648C12.6917 29.7072 12.9059 29.7611 13.1226 29.8079C13.2867 29.8432 13.3921 30.0067 13.3561 30.1728C13.3262 30.316 13.1999 30.4141 13.0594 30.4141Z" fill="#7266BA"/>
</svg>
