<svg width="24" height="24" viewBox="0 0 24 24" fill="none" xmlns="http://www.w3.org/2000/svg">
<g clip-path="url(#clip0_7_2525)">
<path d="M17.0002 13.184V10C17.0002 9.73479 16.8948 9.48044 16.7073 9.2929C16.5197 9.10537 16.2654 9.00001 16.0002 9.00001V2.41401C16.0002 2.00272 15.8951 1.59825 15.6948 1.23903C15.4945 0.879807 15.2056 0.577775 14.8557 0.361631C14.5058 0.145487 14.1064 0.022412 13.6955 0.00410093C13.2847 -0.0142101 12.8759 0.0728512 12.5082 0.257012L9.88615 1.56701C9.31835 1.84939 8.84084 2.28493 8.50757 2.82443C8.17429 3.36392 7.99853 3.98588 8.00015 4.62001V9.00001C7.73494 9.00001 7.48058 9.10537 7.29305 9.2929C7.10551 9.48044 7.00015 9.73479 7.00015 10V13.184C6.41724 13.3901 5.91224 13.7712 5.55424 14.2753C5.19624 14.7794 5.00272 15.3818 5.00015 16V19C5.00174 20.3256 5.52903 21.5965 6.46637 22.5338C7.40371 23.4711 8.67456 23.9984 10.0002 24H14.0002C15.3257 23.9984 16.5966 23.4711 17.5339 22.5338C18.4713 21.5965 18.9986 20.3256 19.0002 19V16C18.9976 15.3818 18.8041 14.7794 18.4461 14.2753C18.0881 13.7712 17.5831 13.3901 17.0002 13.184ZM9.00015 13V11H15.0002V13H9.00015ZM10.0002 4.62001C9.99942 4.35743 10.0722 4.09989 10.2102 3.87651C10.3482 3.65314 10.546 3.47284 10.7812 3.35601L13.4002 2.04601C13.463 2.01345 13.5333 1.99768 13.604 2.00024C13.6748 2.0028 13.7437 2.0236 13.804 2.06062C13.8644 2.09764 13.9142 2.14963 13.9485 2.21155C13.9829 2.27346 14.0007 2.3432 14.0002 2.41401V9.00001H10.0002V4.62001ZM17.0002 19C17.0002 19.7957 16.6841 20.5587 16.1215 21.1213C15.5589 21.6839 14.7958 22 14.0002 22H10.0002C9.2045 22 8.44144 21.6839 7.87883 21.1213C7.31622 20.5587 7.00015 19.7957 7.00015 19V16C7.00015 15.7348 7.10551 15.4804 7.29305 15.2929C7.48058 15.1054 7.73494 15 8.00015 15H16.0002C16.2654 15 16.5197 15.1054 16.7073 15.2929C16.8948 15.4804 17.0002 15.7348 17.0002 16V19Z" fill="#ff721f"/>
</g>
<defs>
<clipPath id="clip0_7_2525">
<rect width="24" height="24" fill="white"/>
</clipPath>
</defs>
</svg>
