<svg width="24" height="24" viewBox="0 0 24 24" fill="none" xmlns="http://www.w3.org/2000/svg">
<g clip-path="url(#clip0_7_2215)">
<path d="M21.656 5.41903L14.975 0.910028C14.0975 0.313561 13.061 -0.00537109 12 -0.00537109C10.939 -0.00537109 9.90248 0.313561 9.025 0.910028L2.344 5.41803C1.62174 5.90441 1.03017 6.56095 0.621413 7.32981C0.212655 8.09867 -0.000748336 8.95626 1.97168e-06 9.82703V18.682C0.00159003 20.092 0.562388 21.4437 1.55936 22.4407C2.55634 23.4376 3.90807 23.9984 5.318 24H18.682C20.0919 23.9984 21.4437 23.4376 22.4406 22.4407C23.4376 21.4437 23.9984 20.092 24 18.682V9.82703C24.0009 8.95638 23.7875 8.0989 23.3787 7.33018C22.9699 6.56147 22.3783 5.90513 21.656 5.41903ZM21 18.682C20.9992 19.2966 20.7547 19.8857 20.3202 20.3202C19.8857 20.7548 19.2965 20.9992 18.682 21H5.318C4.70347 20.9992 4.11434 20.7548 3.67981 20.3202C3.24527 19.8857 3.0008 19.2966 3 18.682V9.82703C2.99978 9.44755 3.09277 9.07382 3.2708 8.73869C3.44882 8.40356 3.70644 8.11729 4.021 7.90503L10.7 3.40003C11.0826 3.14071 11.5343 3.00209 11.9965 3.00209C12.4587 3.00209 12.9104 3.14071 13.293 3.40003L19.975 7.91003C20.2898 8.12117 20.5479 8.40641 20.7266 8.74067C20.9053 9.07493 20.9992 9.44798 21 9.82703V18.682ZM12 8.00003C11.0112 8.00004 10.0445 8.29326 9.22233 8.8426C8.40013 9.39195 7.75928 10.1728 7.3808 11.0863C7.00233 11.9998 6.90323 13.0051 7.09604 13.9749C7.28884 14.9448 7.76489 15.8357 8.464 16.535L11.113 19.126C11.3501 19.3578 11.6685 19.4875 12 19.4875C12.3315 19.4875 12.6499 19.3578 12.887 19.126L15.535 16.535C16.2341 15.8358 16.7101 14.945 16.9029 13.9752C17.0958 13.0054 16.9967 12.0003 16.6184 11.0868C16.24 10.1733 15.5993 9.39244 14.7773 8.84302C13.9552 8.2936 12.9888 8.00024 12 8.00003ZM12 14.554C11.7033 14.554 11.4133 14.4661 11.1666 14.3012C10.92 14.1364 10.7277 13.9021 10.6142 13.6281C10.5007 13.354 10.4709 13.0524 10.5288 12.7614C10.5867 12.4704 10.7296 12.2031 10.9393 11.9934C11.1491 11.7836 11.4164 11.6407 11.7074 11.5828C11.9983 11.525 12.2999 11.5547 12.574 11.6682C12.8481 11.7817 13.0824 11.974 13.2472 12.2207C13.412 12.4673 13.5 12.7574 13.5 13.054C13.5 13.4519 13.342 13.8334 13.0607 14.1147C12.7794 14.396 12.3978 14.554 12 14.554Z" fill="#FFFFFF"/>
</g>
<defs>
<clipPath id="clip0_7_2215">
<rect width="24" height="24" fill="white"/>
</clipPath>
</defs>
</svg>
