<svg width="34" height="34" viewBox="0 0 34 34" fill="none" xmlns="http://www.w3.org/2000/svg">
<path d="M19.9205 10.6907V11.0182H19.9131C19.9186 10.909 19.9205 10.7998 19.9205 10.6907Z" fill="#7266BA"/>
<path d="M27.5323 11.0894H22.9493V6.5064C22.9493 4.85692 22.2805 3.3638 21.2009 2.28234C20.1176 1.20089 18.6235 0.532959 16.974 0.532959C13.676 0.532959 10.9988 3.20745 10.9988 6.5064V11.0894H6.41669C3.1159 11.0894 0.441406 13.7648 0.441406 17.0647C0.441406 20.3636 3.1159 23.04 6.41669 23.04H10.9988V27.623C10.9988 30.9219 13.676 33.5964 16.974 33.5964C20.2748 33.5964 22.9493 30.9219 22.9493 27.623V23.04H27.5323C29.1837 23.04 30.6768 22.3711 31.7564 21.2906C32.8378 20.2082 33.5076 18.7151 33.5076 17.0656C33.5076 13.7648 30.8313 11.0894 27.5323 11.0894ZM27.4093 21.7309H12.4956V6.5286C12.4956 4.05393 14.5003 2.04829 16.975 2.04829C18.2118 2.04829 19.3331 2.5497 20.1416 3.3601C20.952 4.17142 21.4534 5.29173 21.4534 6.5286V12.5742H27.4102C29.9154 12.5742 31.9451 14.6039 31.9451 17.1109V17.1951C31.9451 19.7003 29.9145 21.7309 27.4093 21.7309Z" fill="#7266BA"/>
<path d="M17.9523 3.87357C18.0226 3.90872 18.0901 3.95035 18.1567 3.99291C18.2326 4.04101 18.3057 4.09097 18.3778 4.14278C18.3954 4.15573 18.4139 4.16868 18.4315 4.18256C18.4454 4.19273 18.4592 4.20383 18.4731 4.21401C18.4768 4.21679 18.3704 4.13353 18.4222 4.17423C18.4713 4.21401 18.5212 4.25379 18.5703 4.29449C18.7858 4.47859 18.9745 4.68397 19.1558 4.90137C19.1956 4.94855 19.0837 4.80423 19.1364 4.87639C19.1466 4.89027 19.1568 4.90322 19.166 4.91709C19.1882 4.94762 19.2104 4.97908 19.2326 5.01053C19.2798 5.07899 19.3242 5.14837 19.3658 5.2196C19.4075 5.28899 19.4454 5.36022 19.4824 5.43238C19.5028 5.47309 19.5231 5.51471 19.5416 5.55727C19.549 5.573 19.5546 5.59427 19.5638 5.60815C19.4981 5.50639 19.5462 5.5656 19.5601 5.60168C19.6277 5.77467 19.6813 5.95414 19.7183 6.13639C19.7276 6.18172 19.7359 6.22705 19.7433 6.27238C19.7553 6.34546 19.7757 6.29828 19.7424 6.25758C19.7479 6.26405 19.7488 6.31678 19.7498 6.32049C19.7618 6.42872 19.7673 6.53789 19.7683 6.64612C19.7729 7.08185 19.7683 7.51758 19.7683 7.95423C19.7683 8.80533 19.7683 9.65643 19.7683 10.5075C19.7683 10.9673 19.7683 11.4271 19.7683 11.8869C19.7683 12.1293 19.981 12.3605 20.2308 12.3494C20.4815 12.3383 20.6934 12.1459 20.6934 11.8869C20.6934 10.6537 20.6934 9.42053 20.6934 8.18736C20.6934 7.72943 20.6934 7.2715 20.6934 6.81264C20.6934 6.38339 20.6518 5.95322 20.5195 5.54339C20.2993 4.85974 19.8867 4.24731 19.3612 3.76071C19.08 3.49982 18.7618 3.24449 18.4176 3.0715C18.2021 2.96234 17.906 3.00767 17.7848 3.23709C17.6757 3.45079 17.7219 3.75701 17.9523 3.87357Z" fill="#7266BA"/>
</svg>
