<svg width="32" height="32" viewBox="0 0 32 32" fill="none" xmlns="http://www.w3.org/2000/svg">
<path d="M19.9997 10.6666C19.9997 11.0203 19.8592 11.3594 19.6091 11.6095C19.3591 11.8595 19.02 12 18.6663 12H7.99967C7.64605 12 7.30691 11.8595 7.05687 11.6095C6.80682 11.3594 6.66634 11.0203 6.66634 10.6666C6.66634 10.313 6.80682 9.97389 7.05687 9.72384C7.30691 9.47379 7.64605 9.33331 7.99967 9.33331H18.6663C19.02 9.33331 19.3591 9.47379 19.6091 9.72384C19.8592 9.97389 19.9997 10.313 19.9997 10.6666ZM18.6663 14.6666H7.99967C7.64605 14.6666 7.30691 14.8071 7.05687 15.0572C6.80682 15.3072 6.66634 15.6464 6.66634 16C6.66634 16.3536 6.80682 16.6927 7.05687 16.9428C7.30691 17.1928 7.64605 17.3333 7.99967 17.3333H18.6663C19.02 17.3333 19.3591 17.1928 19.6091 16.9428C19.8592 16.6927 19.9997 16.3536 19.9997 16C19.9997 15.6464 19.8592 15.3072 19.6091 15.0572C19.3591 14.8071 19.02 14.6666 18.6663 14.6666ZM13.333 20H7.99967C7.64605 20 7.30691 20.1405 7.05687 20.3905C6.80682 20.6406 6.66634 20.9797 6.66634 21.3333C6.66634 21.6869 6.80682 22.0261 7.05687 22.2761C7.30691 22.5262 7.64605 22.6666 7.99967 22.6666H13.333C13.6866 22.6666 14.0258 22.5262 14.2758 22.2761C14.5259 22.0261 14.6663 21.6869 14.6663 21.3333C14.6663 20.9797 14.5259 20.6406 14.2758 20.3905C14.0258 20.1405 13.6866 20 13.333 20ZM30.6663 16V26.6666C30.6663 27.7275 30.2449 28.7449 29.4948 29.4951C28.7446 30.2452 27.7272 30.6666 26.6663 30.6666H5.33301C4.27214 30.6666 3.25473 30.2452 2.50458 29.4951C1.75444 28.7449 1.33301 27.7275 1.33301 26.6666V5.33331C1.33301 4.27245 1.75444 3.25503 2.50458 2.50489C3.25473 1.75474 4.27214 1.33331 5.33301 1.33331H21.333C22.3939 1.33331 23.4113 1.75474 24.1614 2.50489C24.9116 3.25503 25.333 4.27245 25.333 5.33331V14.6666H29.333C29.6866 14.6666 30.0258 14.8071 30.2758 15.0572C30.5259 15.3072 30.6663 15.6464 30.6663 16ZM22.6663 5.33331C22.6663 4.97969 22.5259 4.64055 22.2758 4.3905C22.0258 4.14046 21.6866 3.99998 21.333 3.99998H5.33301C4.97939 3.99998 4.64025 4.14046 4.3902 4.3905C4.14015 4.64055 3.99967 4.97969 3.99967 5.33331V26.6666C3.99967 27.0203 4.14015 27.3594 4.3902 27.6095C4.64025 27.8595 4.97939 28 5.33301 28H22.6663V5.33331ZM27.9997 17.3333H25.333V28H26.6663C27.02 28 27.3591 27.8595 27.6092 27.6095C27.8592 27.3594 27.9997 27.0203 27.9997 26.6666V17.3333Z" fill="white"/>
</svg>
