<svg width="36" height="38" viewBox="0 0 36 38" fill="none" xmlns="http://www.w3.org/2000/svg">
<path d="M28.8053 0.86981C27.6415 0.818004 26.6766 1.84118 26.0743 2.72836C25.9698 2.88192 25.8625 3.03364 25.7552 3.18536C25.0151 4.23259 24.2741 5.27981 23.534 6.32796C22.4202 7.90342 21.3073 9.47889 20.1934 11.0543C19.1425 12.541 18.0925 14.0267 17.0416 15.5134C16.6826 16.0203 16.3246 16.5282 15.9657 17.0352C15.7945 17.2776 15.6104 17.5162 15.4495 17.766C15.443 17.7762 15.4347 17.7864 15.4273 17.7975C15.3347 17.9288 15.3486 18.1324 15.4273 18.2647C15.4559 18.3137 15.4818 18.3646 15.5068 18.4164C15.5207 18.4451 15.5346 18.4747 15.5475 18.5043C15.5521 18.5144 15.5568 18.5255 15.5614 18.5339C15.5965 18.6199 15.6308 18.7069 15.6613 18.7947C15.751 19.0492 15.826 19.31 15.8815 19.5746C15.8898 19.6144 15.8963 19.6542 15.9046 19.694C15.9046 19.6958 15.9055 19.6977 15.9055 19.7004C15.9074 19.7171 15.9092 19.7337 15.9102 19.7495C15.9166 19.8429 15.9213 19.9363 15.9194 20.0298C15.9176 20.1186 15.912 20.2074 15.9028 20.2962C15.9009 20.3129 15.8963 20.3526 15.8944 20.3665C15.887 20.4155 15.8796 20.4646 15.8713 20.5136C15.8343 20.7236 15.7862 20.9308 15.7362 21.1381C15.6086 21.6626 15.4717 22.1834 15.3606 22.7117C15.2709 23.1372 15.1756 23.5655 15.0193 23.9726C15.0119 23.992 15.0036 24.0114 14.9962 24.0309C14.9962 24.0318 14.9962 24.0318 14.9952 24.0327C14.9786 24.0688 14.9628 24.1049 14.9453 24.14C14.9064 24.2187 14.8648 24.2955 14.8176 24.3695C14.7973 24.4009 14.776 24.4314 14.7547 24.462C14.7482 24.4703 14.7408 24.4795 14.7334 24.4879C14.6807 24.5471 14.6243 24.6007 14.565 24.6535C14.5576 24.659 14.5493 24.6646 14.5419 24.6692C14.5086 24.6895 14.4762 24.7108 14.4429 24.7293C14.4254 24.7386 14.4069 24.7469 14.3893 24.7562C14.3967 24.7515 14.3328 24.7784 14.3014 24.7876C14.2672 24.7978 14.232 24.807 14.1978 24.8154C14.1839 24.8191 14.1367 24.8274 14.1127 24.832C14.0895 24.8339 14.0479 24.8385 14.0368 24.8394C13.9813 24.8431 13.9258 24.844 13.8703 24.844C13.5743 24.845 13.2782 24.8857 12.9924 24.9643C11.5261 25.3667 10.2707 26.5953 10.0329 28.1236C9.89509 29.0061 10.007 29.9673 10.4529 30.7527C10.7397 31.2569 11.1588 31.6168 11.5954 31.984C11.6695 32.0469 11.7435 32.1099 11.811 32.1811C11.8202 32.1903 11.8286 32.2005 11.8369 32.2098C11.848 32.232 11.8647 32.2625 11.8804 32.2838C11.8804 32.2847 11.8804 32.2856 11.8813 32.2856C11.8804 32.2977 11.8813 32.3088 11.8813 32.3189C11.8711 32.3846 11.8619 32.4512 11.8545 32.5178C11.8415 32.6214 11.8332 32.7251 11.8295 32.8287C11.7953 33.8444 12.1339 34.8732 12.6667 35.728C12.9554 36.1914 13.305 36.6327 13.7806 36.9167C14.0812 37.0971 14.467 37.234 14.8195 37.1397C15.2432 37.0268 15.3949 36.5541 15.1765 36.1914C15.0683 36.011 14.9046 35.8871 14.738 35.764C14.7223 35.752 14.6733 35.7159 14.6566 35.7039C14.6437 35.6937 14.6122 35.6688 14.6076 35.6651C14.59 35.6503 14.5724 35.6364 14.5549 35.6216C14.4753 35.5559 14.3985 35.4874 14.3245 35.4162C14.2588 35.3524 14.195 35.2867 14.1349 35.2173C14.108 35.1868 14.0831 35.1553 14.0572 35.1239C14.0498 35.1128 14.0146 35.0637 14.0044 35.0489C13.9545 34.9749 13.9073 34.8972 13.8657 34.8186C13.8425 34.7751 13.8213 34.7307 13.8 34.6863C13.7935 34.6724 13.787 34.6576 13.7806 34.6428C13.7778 34.6363 13.775 34.6271 13.7713 34.6169C13.7001 34.406 13.6399 34.196 13.602 33.9758C13.5844 33.8722 13.578 33.8259 13.5678 33.6973C13.5641 33.6474 13.5613 33.5974 13.5613 33.5475C13.5613 33.516 13.5622 33.4846 13.5641 33.4531C13.5641 33.4485 13.5669 33.4217 13.5678 33.4032C13.5715 33.3828 13.5807 33.3329 13.5835 33.3208C13.5937 33.2764 13.6094 33.2339 13.6214 33.1904C13.6233 33.1839 13.6242 33.1802 13.6251 33.1765C13.627 33.1737 13.6279 33.1719 13.6307 33.1673C13.6538 33.1284 13.6751 33.0877 13.6973 33.0488C13.7028 33.0396 13.7102 33.0303 13.7167 33.0202C13.7361 33.0017 13.7528 32.9785 13.7722 32.96C13.7963 32.936 13.8222 32.9147 13.8462 32.8906C13.8472 32.8897 13.8472 32.8897 13.8472 32.8897C13.8481 32.8888 13.8481 32.8888 13.8499 32.8879C13.8953 32.8583 13.9397 32.8296 13.9869 32.8037C14.0054 32.7935 14.0239 32.7852 14.0424 32.7759C14.0868 32.7621 14.1302 32.7463 14.1756 32.7343C15.023 32.5169 15.8158 32.1672 16.4291 31.5233C16.9657 30.9599 17.3247 30.2365 17.4736 29.4751C17.6299 28.6731 17.5929 27.8506 17.3709 27.0634C17.2701 26.7054 17.1359 26.3584 17.0268 26.0032C16.9722 25.8265 16.9232 25.647 16.8871 25.4648C16.8787 25.4232 16.8704 25.3806 16.8639 25.339C16.8593 25.314 16.8556 25.289 16.8519 25.264C16.8399 25.1577 16.8316 25.0522 16.8269 24.9449C16.7918 23.9587 17.1507 22.9624 17.5208 22.0382C17.8048 21.3286 18.1656 20.5848 18.5495 19.8901C18.6115 19.7781 18.6735 19.6662 18.7391 19.5561C19.0861 18.9594 19.4339 18.3618 19.7808 17.7651C20.6143 16.3321 21.4488 14.8982 22.2823 13.4652C23.2907 11.7315 24.2991 9.99787 25.3084 8.26422C26.1798 6.76646 27.0513 5.26871 27.9227 3.77096C28.3436 3.04659 28.7868 2.33056 29.1883 1.5951C29.1938 1.58492 29.2003 1.57474 29.2058 1.56457C29.3872 1.25281 29.1513 0.885537 28.8053 0.86981ZM15.9065 19.6986C15.9102 19.7217 15.9139 19.767 15.9065 19.6986V19.6986ZM14.627 36.2432C14.627 36.2432 14.6196 36.2442 14.6104 36.2442C14.6076 36.2423 14.6058 36.2405 14.603 36.2377C14.6159 36.2368 14.6261 36.2368 14.627 36.2432ZM15.1127 27.0689C15.1136 27.0699 15.0998 27.0597 15.0877 27.0495C15.0979 27.0551 15.1099 27.0625 15.1127 27.0689ZM14.7575 24.4583C14.7778 24.4287 14.7723 24.4388 14.7575 24.4583V24.4583ZM11.9849 27.4519C11.9747 27.4658 11.9618 27.4834 11.9618 27.4825C11.9627 27.4769 11.9747 27.463 11.9849 27.4519ZM15.9731 29.0255C15.9694 29.0912 15.9638 29.156 15.9573 29.2207C15.9564 29.2263 15.9555 29.2337 15.9536 29.2429C15.9472 29.2799 15.9407 29.3169 15.9333 29.354C15.9055 29.4881 15.8676 29.6204 15.8204 29.749C15.8112 29.7749 15.7936 29.8045 15.788 29.8322C15.7871 29.835 15.7853 29.8378 15.7843 29.8406C15.7547 29.9062 15.7214 29.971 15.6872 30.0339C15.6576 30.0876 15.6261 30.1403 15.5928 30.1921C15.566 30.2337 15.5161 30.3447 15.4707 30.3679C15.4689 30.3688 15.5309 30.2957 15.4966 30.3346C15.4865 30.3457 15.4772 30.3586 15.468 30.3697C15.4485 30.3929 15.4291 30.416 15.4087 30.4391C15.3616 30.4918 15.3125 30.5436 15.2617 30.5927C15.2182 30.6352 15.1728 30.6759 15.1275 30.7148C15.122 30.7194 15.1099 30.7314 15.0979 30.7435C15.0951 30.7444 15.0896 30.7481 15.0794 30.7555C15.0628 30.7675 15.047 30.7795 15.0304 30.7906C14.9231 30.8665 14.8111 30.934 14.6936 30.9932C14.6668 31.0071 14.6391 31.0201 14.6122 31.033C14.5984 31.0395 14.5845 31.0451 14.5706 31.0515C14.5243 31.0747 14.6122 31.0321 14.6113 31.0349C14.6011 31.0636 14.4392 31.0987 14.4106 31.108C14.2829 31.1487 14.1534 31.1764 14.0211 31.2005H14.0202C13.9887 31.2032 13.9573 31.2069 13.9267 31.2088C13.8527 31.2143 13.7787 31.2162 13.7047 31.2162C13.6409 31.2153 13.5761 31.2125 13.5123 31.2069C13.4864 31.2051 13.4568 31.1986 13.429 31.1986C13.4142 31.1958 13.3985 31.194 13.3837 31.1912C13.256 31.1681 13.1302 31.1357 13.0081 31.095C12.9739 31.0839 12.9406 31.0719 12.9073 31.0589C12.8934 31.0534 12.8786 31.0469 12.8647 31.0423C12.8157 31.0247 12.9073 31.058 12.9045 31.0589C12.8795 31.07 12.7518 30.9868 12.7259 30.9729C12.6094 30.9109 12.4993 30.8397 12.3929 30.7638C12.3892 30.761 12.3883 30.7601 12.3846 30.7583C12.3827 30.7564 12.3818 30.7555 12.3781 30.7527C12.355 30.7333 12.3318 30.7139 12.3087 30.6944C12.2597 30.651 12.2116 30.6066 12.1653 30.5603C12.1191 30.514 12.0747 30.4659 12.0321 30.416C12.0127 30.3929 11.9932 30.3697 11.9738 30.3457C11.9729 30.3447 11.971 30.3429 11.9701 30.341C11.971 30.3429 11.972 30.3429 11.9729 30.3447C11.9766 30.3503 11.9784 30.354 11.9812 30.3568C11.9766 30.3494 11.971 30.3401 11.9664 30.3346C11.9655 30.3336 11.9655 30.3327 11.9646 30.3318C11.9646 30.3309 11.9636 30.3309 11.9636 30.3299C11.8869 30.2217 11.8165 30.1107 11.7546 29.9932C11.7379 29.9608 11.6574 29.8452 11.6676 29.8137C11.6676 29.8128 11.7028 29.9016 11.6843 29.8535C11.6787 29.8387 11.6732 29.8248 11.6667 29.81C11.6537 29.7767 11.6408 29.7425 11.6297 29.7083C11.5853 29.5797 11.551 29.4483 11.5251 29.3151C11.5205 29.2901 11.5168 29.2651 11.5122 29.2402C11.5103 29.2272 11.5085 29.2143 11.5076 29.2022C11.5002 29.1329 11.4955 29.0625 11.4937 28.9922C11.49 28.8572 11.4983 28.7239 11.5113 28.5898C11.5122 28.5796 11.5131 28.5695 11.515 28.5611C11.5205 28.5297 11.5261 28.4982 11.5325 28.4658C11.5473 28.3928 11.5649 28.3206 11.5853 28.2494C11.6028 28.1892 11.6223 28.1291 11.6436 28.0699C11.6547 28.0403 11.6741 28.0051 11.6815 27.9728C11.6852 27.9654 11.688 27.957 11.6917 27.9496C11.7481 27.8284 11.8128 27.711 11.8859 27.599C11.9192 27.5481 11.9562 27.4991 11.9914 27.4492C11.9923 27.4482 11.9923 27.4482 11.9923 27.4473C11.9979 27.4408 12.0025 27.4362 12.0034 27.4353C12.0256 27.4075 12.0497 27.3807 12.0728 27.3548C12.1607 27.2567 12.255 27.1651 12.3559 27.081C12.3688 27.0699 12.4438 27.0051 12.392 27.0504C12.3402 27.0958 12.4151 27.0338 12.4299 27.0236C12.4873 26.9829 12.5465 26.944 12.6066 26.907C12.6584 26.8756 12.7111 26.846 12.7648 26.8182C12.7916 26.8043 12.8194 26.7914 12.8462 26.7784C12.8591 26.772 12.873 26.7664 12.886 26.7599C13.0072 26.7165 13.1274 26.673 13.2532 26.6434C13.3134 26.6295 13.3744 26.6166 13.4355 26.6073C13.4392 26.6064 13.4429 26.6064 13.4466 26.6054C13.4845 26.6017 13.5224 26.5971 13.5613 26.5953C13.6991 26.586 13.8379 26.5869 13.9758 26.5999C13.997 26.6017 14.0942 26.5999 14.0248 26.6036C13.9582 26.6073 14.0488 26.6073 14.0729 26.6119C14.1395 26.623 14.2061 26.6378 14.2718 26.6545C14.3365 26.6711 14.4013 26.6896 14.4642 26.7109C14.4929 26.7211 14.5225 26.7313 14.5512 26.7414C14.566 26.747 14.5799 26.7525 14.5937 26.7581C14.6613 26.7831 14.5762 26.7433 14.5678 26.747C14.5919 26.7359 14.7186 26.8182 14.7464 26.833C14.8047 26.8636 14.8611 26.8969 14.9175 26.932C14.973 26.9672 15.0267 27.0042 15.0803 27.043C15.0813 27.043 15.0822 27.044 15.0822 27.044C15.1081 27.0671 15.1368 27.0884 15.1636 27.1115C15.2626 27.1975 15.3551 27.291 15.4402 27.3899C15.4596 27.4131 15.4791 27.4362 15.4985 27.4603C15.4994 27.4612 15.4994 27.4612 15.4994 27.4621C15.5022 27.4658 15.504 27.4695 15.5087 27.4751C15.5466 27.5287 15.5845 27.5833 15.6187 27.6388C15.6539 27.6952 15.6863 27.7526 15.7177 27.8109C15.7335 27.8405 15.8149 27.9607 15.8047 27.9903C15.8047 27.9913 15.7695 27.9025 15.788 27.9506C15.7936 27.9654 15.7991 27.9792 15.8056 27.994C15.8186 28.0273 15.8315 28.0616 15.8426 28.0958C15.8648 28.1596 15.8843 28.2244 15.9018 28.2901C15.9194 28.3558 15.9342 28.4224 15.9472 28.4899C15.9518 28.5149 15.9555 28.5399 15.9601 28.5648C15.962 28.5778 15.9638 28.5907 15.9647 28.6028C15.9758 28.7434 15.9786 28.8849 15.9731 29.0255ZM17.9852 17.8909C17.6244 17.8909 17.3321 17.5986 17.3321 17.2378C17.3321 16.877 17.6244 16.5847 17.9852 16.5847C18.346 16.5847 18.6392 16.877 18.6392 17.2378C18.6392 17.5986 18.3469 17.8909 17.9852 17.8909Z" fill="#7266BA"/>
<path d="M34.916 5.66462C34.8744 5.61837 34.8374 5.59246 34.7819 5.55083C34.6524 5.45462 34.4461 5.47498 34.3147 5.55083C34.1315 5.6563 33.9493 5.76176 33.7661 5.86722C33.2897 6.14198 32.8123 6.41674 32.3359 6.69242C31.6809 7.06987 31.0269 7.44731 30.3719 7.82475C29.6494 8.24105 28.9269 8.65828 28.2034 9.07458C27.5244 9.4659 26.8454 9.85815 26.1654 10.2495C25.639 10.5529 25.1126 10.8563 24.5872 11.1598C24.3309 11.3078 24.071 11.4503 23.8175 11.6038C23.7046 11.6723 23.6334 11.7685 23.5686 11.8795C23.4511 12.0803 23.3336 12.2819 23.2162 12.4827C22.8193 13.1617 22.4224 13.8417 22.0255 14.5207C21.724 15.036 21.4233 15.5522 21.1217 16.0675C21.106 16.0943 21.0903 16.1211 21.0745 16.148C21.0514 16.1878 21.0366 16.2322 21.0273 16.2775C20.9968 16.3876 21.0061 16.5069 21.0745 16.6142C21.0782 16.6198 21.0819 16.6244 21.0856 16.63C21.1236 16.6919 21.1744 16.7456 21.2401 16.7807C21.2697 16.7965 21.3012 16.8085 21.3336 16.8178C21.4557 16.8622 21.5935 16.8603 21.7073 16.7807C21.7193 16.7724 21.7314 16.7641 21.7434 16.7558C21.7471 16.753 21.7517 16.7502 21.7554 16.7474C22.2124 16.4283 22.6685 16.1091 23.1255 15.789C24.2347 15.0119 25.343 14.2339 26.4494 13.4531C27.7316 12.5493 29.011 11.6436 30.2877 10.7315C31.2794 10.0228 32.2721 9.31418 33.248 8.58242C33.6921 8.24938 34.1491 7.91634 34.5256 7.50744C34.953 7.04211 35.4406 6.24652 34.916 5.66462Z" fill="#7266BA"/>
<path d="M16.4394 15.0619C14.9435 16.1147 10.1995 19.199 7.12724 18.0768C4.05588 16.9547 2.50539 18.5903 2.50539 18.5903C2.50539 18.5903 0.583941 19.8651 1.6876 22.3952C2.79125 24.9245 5.33068 24.4397 6.81456 23.5461C8.29843 22.6515 8.13746 21.7199 8.36504 20.5219C8.59354 19.3229 9.39191 19.285 11.552 18.7337C13.7103 18.1823 14.7159 18.5745 14.7159 18.5745L14.4365 17.9214L16.4394 15.0619ZM4.82927 23.572C3.29636 23.572 2.05302 22.3878 2.05302 20.928C2.05302 19.4673 3.29636 18.284 4.82927 18.284C6.3631 18.284 7.60553 19.4682 7.60553 20.928C7.60553 22.3878 6.3631 23.572 4.82927 23.572Z" fill="#7266BA"/>
<path d="M4.8283 23.1095C4.76262 23.1095 4.69601 23.1076 4.63033 23.103C4.5924 23.1002 4.55447 23.0974 4.51654 23.0928C4.40645 23.0808 4.57482 23.1039 4.49527 23.09C4.35927 23.0669 4.22421 23.0373 4.09284 22.9966C4.03271 22.9781 3.9735 22.9577 3.91522 22.9346C3.90042 22.9291 3.88654 22.9226 3.87174 22.917C3.82363 22.8985 3.9106 22.9337 3.9106 22.9337C3.88099 22.9152 3.84399 22.9041 3.81253 22.8884C3.69227 22.831 3.57663 22.7644 3.46654 22.6904C3.44156 22.6737 3.41659 22.6562 3.39161 22.6386C3.37403 22.6256 3.30927 22.5636 3.35368 22.6108C3.39901 22.6589 3.32408 22.5859 3.3065 22.5701C3.27967 22.547 3.25284 22.5239 3.22694 22.4998C3.13073 22.411 3.04284 22.3157 2.95958 22.2149C2.95496 22.2093 2.93183 22.1862 2.93183 22.1797C2.93183 22.176 2.98734 22.2574 2.95866 22.214C2.94201 22.189 2.9235 22.1649 2.90593 22.1409C2.86892 22.0872 2.83377 22.0326 2.80139 21.9762C2.76901 21.9198 2.73756 21.8624 2.7098 21.8041C2.69685 21.7773 2.68482 21.7496 2.67187 21.7227C2.64875 21.6774 2.6913 21.7634 2.68853 21.7644C2.68575 21.7644 2.66817 21.7135 2.66632 21.7079C2.61914 21.5849 2.58214 21.4581 2.55438 21.3296C2.54791 21.2999 2.54236 21.2694 2.53681 21.2389C2.53403 21.2241 2.53218 21.2084 2.52941 21.1936C2.5183 21.1427 2.53496 21.2407 2.53496 21.2398C2.53403 21.1677 2.52015 21.0946 2.51738 21.0224C2.51275 20.891 2.52108 20.7615 2.53311 20.6302C2.53773 20.5784 2.52848 20.6764 2.52663 20.6764C2.52756 20.6764 2.53773 20.6107 2.53681 20.6154C2.54236 20.5848 2.54791 20.5552 2.55438 20.5247C2.56826 20.4599 2.58399 20.3961 2.60341 20.3323C2.62099 20.274 2.63949 20.2166 2.66077 20.1602C2.66817 20.1417 2.67557 20.1232 2.68297 20.1038C2.69963 20.0557 2.66725 20.1463 2.6654 20.1445C2.66262 20.1426 2.70518 20.0575 2.7098 20.0492C2.76716 19.9326 2.83284 19.8198 2.90593 19.7125C2.92258 19.6875 2.94201 19.6644 2.95866 19.6394C2.98734 19.5959 2.93183 19.6764 2.93183 19.6736C2.93183 19.6662 2.95496 19.644 2.95958 19.6385C3.00121 19.5885 3.04377 19.5385 3.08817 19.4914C3.13258 19.4442 3.17976 19.3979 3.22786 19.3535C3.25007 19.3332 3.34813 19.2222 3.37681 19.2259C3.37866 19.2259 3.30095 19.2814 3.3435 19.2518C3.35553 19.2434 3.36756 19.2333 3.38051 19.2249C3.40549 19.2073 3.43046 19.1898 3.45544 19.1722C3.51465 19.1324 3.57478 19.0945 3.63676 19.0584C3.69042 19.0279 3.745 18.9992 3.79958 18.9724C3.82734 18.9585 3.85601 18.9465 3.88377 18.9326C3.91245 18.9187 3.955 18.9169 3.85879 18.9428C3.87822 18.9372 3.89764 18.927 3.91707 18.9196C4.03919 18.8725 4.165 18.8345 4.29359 18.804C4.36112 18.7883 4.42958 18.7762 4.49804 18.7642C4.58685 18.7485 4.41293 18.7725 4.50359 18.7633C4.54152 18.7596 4.57945 18.7559 4.61738 18.7531C4.75985 18.7429 4.90416 18.7429 5.04663 18.7531C5.07901 18.7559 5.11139 18.7587 5.14469 18.7614C5.16042 18.7633 5.178 18.7679 5.1928 18.767C5.1928 18.767 5.09751 18.7522 5.15024 18.7614C5.22425 18.7744 5.29734 18.7864 5.37042 18.804C5.49808 18.8336 5.6239 18.8725 5.74694 18.9196C5.76544 18.927 5.78579 18.9381 5.80522 18.9428C5.80522 18.9428 5.72011 18.9048 5.76637 18.9261C5.79412 18.9391 5.8228 18.952 5.85055 18.965C5.91068 18.9936 5.96989 19.0251 6.02725 19.0584C6.0846 19.0917 6.14104 19.1259 6.19654 19.1629C6.22152 19.1796 6.2465 19.1972 6.27148 19.2147C6.2835 19.224 6.29553 19.2323 6.30848 19.2416C6.36584 19.2832 6.29645 19.224 6.2872 19.2249C6.31311 19.2212 6.40469 19.3239 6.42505 19.3424C6.47685 19.3896 6.52681 19.4396 6.57491 19.4904C6.61562 19.5339 6.6554 19.5792 6.69425 19.6255C6.7035 19.6375 6.71275 19.6496 6.72293 19.6607C6.75623 19.6995 6.69425 19.6264 6.6961 19.6264C6.70535 19.6255 6.75068 19.7023 6.75716 19.7115C6.83117 19.8188 6.89685 19.9308 6.95328 20.0483C6.96623 20.0751 6.97826 20.1029 6.99121 20.1297C7.01434 20.175 6.97179 20.089 6.97456 20.0881C6.97641 20.0881 6.99399 20.1371 6.99676 20.1445C7.01989 20.2055 7.04117 20.2675 7.05967 20.3304C7.07725 20.3887 7.09205 20.4479 7.105 20.5071C7.1124 20.5423 7.1198 20.5774 7.12535 20.6126C7.12813 20.6274 7.12998 20.6431 7.13275 20.6579C7.14663 20.719 7.1235 20.5645 7.12905 20.6274C7.14108 20.7588 7.14941 20.8883 7.14478 21.0196C7.14201 21.0872 7.13553 21.1547 7.12905 21.2222C7.12443 21.274 7.13368 21.176 7.13553 21.176C7.1346 21.176 7.12905 21.2185 7.12813 21.2213C7.12165 21.2565 7.11518 21.2916 7.10778 21.3268C7.08095 21.4554 7.04302 21.5821 6.99584 21.7051C6.99029 21.719 6.98474 21.7329 6.97919 21.7477C6.96253 21.7958 6.99491 21.7051 6.99676 21.707C6.99954 21.7088 6.96253 21.7819 6.95883 21.7893C6.92831 21.8522 6.89593 21.9142 6.86077 21.9753C6.83024 22.0271 6.79879 22.078 6.76456 22.127C6.74791 22.152 6.72941 22.176 6.71275 22.2001C6.6998 22.2186 6.69425 22.2482 6.71275 22.201C6.73403 22.1473 6.70998 22.2047 6.69333 22.2251C6.61377 22.3222 6.52773 22.4129 6.43522 22.498C6.41024 22.5211 6.31588 22.6293 6.28628 22.6256C6.28443 22.6256 6.36214 22.5701 6.31958 22.5997C6.30756 22.6081 6.29553 22.6182 6.28258 22.6266C6.2539 22.6478 6.2243 22.6682 6.19562 22.6876C6.08553 22.7616 5.96989 22.8282 5.84963 22.8856C5.82187 22.8995 5.79319 22.9115 5.76544 22.9244C5.71919 22.9466 5.8043 22.9087 5.8043 22.9078C5.78949 22.9115 5.77469 22.9198 5.76082 22.9254C5.69236 22.9522 5.6239 22.9762 5.55359 22.9975C5.42593 23.0364 5.29734 23.0641 5.16597 23.0863C5.07716 23.1021 5.25108 23.078 5.16042 23.0873C5.12249 23.091 5.08456 23.0947 5.04663 23.0974C4.9717 23.1067 4.89954 23.1085 4.8283 23.1095C4.58685 23.1104 4.35465 23.3213 4.36575 23.572C4.37685 23.8218 4.56927 24.0364 4.8283 24.0346C6.16971 24.0272 7.39086 23.2251 7.87839 21.9688C8.34465 20.7689 7.91632 19.3415 6.91258 18.5533C6.37324 18.1296 5.74416 17.8844 5.05958 17.8299C4.4083 17.7781 3.7339 17.9362 3.16773 18.26C2.62839 18.569 2.16306 19.0464 1.89663 19.6098C1.60707 20.2231 1.52196 20.8948 1.65795 21.5608C1.91513 22.8144 3.02804 23.8005 4.28064 23.9865C4.46289 24.0133 4.64421 24.0327 4.8283 24.0336C5.07068 24.0346 5.30196 23.8199 5.29086 23.5711C5.27976 23.3195 5.08734 23.1104 4.8283 23.1095Z" fill="#7266BA"/>
<path d="M16.2047 14.6631C15.2593 15.3283 14.2694 15.9361 13.2407 16.4643C12.9114 16.6327 12.5783 16.7936 12.2397 16.9426C12.2018 16.9592 12.1629 16.9759 12.125 16.9925C12.1037 17.0018 11.9705 17.0582 12.0362 17.0305C12.0991 17.0046 12.0343 17.0314 12.0195 17.0379C11.9955 17.0481 11.9714 17.0582 11.9474 17.0675C11.8993 17.0869 11.8502 17.1073 11.8021 17.1267C11.6273 17.1961 11.4506 17.2627 11.273 17.3256C10.9214 17.4495 10.5653 17.5587 10.2036 17.6466C10.0315 17.6882 9.85849 17.7262 9.68457 17.7576C9.60131 17.7724 9.51805 17.7863 9.43479 17.7992C9.41073 17.8029 9.38576 17.8057 9.3617 17.8094C9.29972 17.8196 9.45884 17.7983 9.39686 17.8048C9.34783 17.8094 9.29972 17.8168 9.25069 17.8214C8.91117 17.8575 8.56703 17.8677 8.22659 17.8427C8.14888 17.8372 8.07117 17.8288 7.99347 17.8196C7.91483 17.8103 8.02862 17.8233 8.0351 17.8251C8.01382 17.8196 7.98977 17.8187 7.96756 17.815C7.92316 17.8076 7.87783 17.8002 7.83342 17.7909C7.67523 17.7604 7.51796 17.7206 7.36439 17.6697C6.93699 17.5291 6.51791 17.3885 6.07294 17.3126C5.66126 17.2432 5.24404 17.2044 4.82681 17.2266C3.9017 17.2747 2.89703 17.5763 2.21153 18.2313C2.11069 18.3275 2.34844 18.1341 2.23188 18.2202C2.10977 18.3099 1.99228 18.407 1.88404 18.5144C1.5177 18.877 1.24109 19.3192 1.06624 19.803C0.812762 20.507 0.840515 21.2952 1.05236 22.0057C1.29659 22.8226 1.73972 23.5784 2.42153 24.1011C3.48078 24.9133 4.94708 24.8532 6.13769 24.3869C6.82043 24.1187 7.52166 23.7431 7.99624 23.1704C8.24232 22.8735 8.42364 22.5451 8.53836 22.1759C8.63087 21.878 8.6725 21.5681 8.71505 21.2601C8.75668 20.9622 8.78813 20.6551 8.88065 20.3683C8.8899 20.3405 8.90007 20.3128 8.90932 20.285C8.94355 20.1879 8.86862 20.3692 8.89915 20.3091C8.92505 20.2582 8.9491 20.2073 8.97871 20.1592C8.99258 20.137 9.00739 20.1157 9.02126 20.0944C9.07492 20.013 8.9565 20.1694 9.00091 20.1203C9.03699 20.0796 9.07214 20.0399 9.11192 20.0029C9.13135 19.9853 9.15078 19.9686 9.17021 19.952C9.21924 19.9076 9.06474 20.0269 9.14615 19.9705C9.19426 19.9372 9.24236 19.9057 9.29232 19.877C9.34043 19.8493 9.38946 19.8243 9.43941 19.8003C9.46717 19.7873 9.49584 19.7753 9.5236 19.7623C9.57355 19.7392 9.41998 19.804 9.47179 19.7845C9.49214 19.7771 9.5125 19.7679 9.53285 19.7605C9.82148 19.6495 10.1212 19.5708 10.421 19.494C10.8382 19.3877 11.2573 19.2877 11.6745 19.1823C11.9233 19.1194 12.1731 19.0629 12.4257 19.0176C12.5376 18.9973 12.6495 18.9797 12.7615 18.963C12.8309 18.9529 12.7606 18.9778 12.7448 18.9649C12.7495 18.9686 12.8031 18.9575 12.8142 18.9566C12.8697 18.9501 12.9262 18.9436 12.9817 18.938C13.3045 18.9057 13.6302 18.8936 13.9539 18.9121C14.0141 18.9158 14.0742 18.9205 14.1343 18.926C14.1584 18.9288 14.1825 18.9306 14.2065 18.9334C14.2176 18.9344 14.2296 18.9362 14.2407 18.9371C14.3166 18.9454 14.1094 18.9168 14.1825 18.9297C14.2602 18.9436 14.3379 18.9547 14.4147 18.9723C14.4739 18.9862 14.5349 19 14.5923 19.0222C14.7625 19.0879 14.9762 18.9889 15.0789 18.8566C15.2019 18.6975 15.1908 18.5199 15.115 18.3432C15.0215 18.1258 14.929 17.9075 14.8356 17.6901C14.8356 17.8455 14.8356 18.0009 14.8356 18.1573C15.4202 17.3228 16.0058 16.4874 16.5905 15.653C16.6738 15.5346 16.7561 15.4162 16.8394 15.2977C16.9791 15.0988 16.8819 14.7751 16.6738 14.665C16.4369 14.5401 16.1899 14.6187 16.041 14.8306C15.7292 15.2755 15.4175 15.7205 15.1048 16.1655C14.88 16.4865 14.6552 16.8075 14.4304 17.1285C14.3036 17.3089 14.1649 17.4866 14.0483 17.6734C13.9521 17.8288 13.9678 17.9935 14.0372 18.1573C14.0622 18.2155 14.0872 18.2738 14.1121 18.3321C14.1806 18.4912 14.2481 18.6503 14.3166 18.8095C14.4905 18.5828 14.6644 18.3562 14.8393 18.1304C14.5784 18.0296 14.2713 18.0083 13.9965 17.9898C13.212 17.9371 12.4109 18.0564 11.6486 18.2359C11.2128 18.3386 10.778 18.4505 10.3432 18.5597C10.0278 18.6383 9.71232 18.7179 9.40518 18.8252C8.89175 19.0047 8.39219 19.2757 8.13316 19.778C7.84915 20.3285 7.8547 20.9659 7.73814 21.5617C7.70946 21.7115 7.67245 21.8595 7.62342 22.0039C7.61232 22.0362 7.60122 22.0677 7.58919 22.0992C7.54571 22.2111 7.61972 22.0372 7.58642 22.1066C7.55034 22.1815 7.51426 22.2555 7.4717 22.3277C7.45135 22.3628 7.42915 22.397 7.40695 22.4303C7.39122 22.4535 7.34774 22.4942 7.34219 22.521C7.35144 22.4747 7.39769 22.4535 7.36162 22.4951C7.34866 22.5099 7.33664 22.5256 7.32461 22.5404C7.29223 22.5784 7.258 22.6163 7.22377 22.6524C7.15624 22.7227 7.08501 22.7884 7.011 22.8513C6.9888 22.8698 6.88611 22.9604 6.96844 22.8883C6.92219 22.9281 6.86853 22.9623 6.81765 22.9974C6.55954 23.176 6.28109 23.3268 5.9943 23.4544C5.9795 23.4609 5.9647 23.4674 5.9499 23.4739C5.89439 23.4988 6.06461 23.4267 5.98228 23.46C5.95267 23.472 5.92214 23.484 5.89254 23.4961C5.82408 23.5229 5.7547 23.5488 5.68532 23.5719C5.5447 23.62 5.40223 23.6626 5.25792 23.6987C5.11175 23.7347 4.96373 23.7551 4.81756 23.7847C4.82126 23.7838 4.94153 23.7699 4.86659 23.7782C4.84994 23.7801 4.83329 23.7819 4.81664 23.7838C4.78333 23.7875 4.75095 23.7903 4.71765 23.794C4.63902 23.8004 4.56038 23.8051 4.48175 23.8069C4.33743 23.8097 4.19219 23.8051 4.04787 23.7893C3.92298 23.7764 4.14223 23.806 4.03584 23.7884C3.99884 23.7829 3.96276 23.7764 3.92576 23.7699C3.85267 23.756 3.78051 23.7394 3.70836 23.7199C3.6399 23.7014 3.57329 23.6802 3.50668 23.657C3.47153 23.6441 3.43637 23.6311 3.40122 23.6173C3.36884 23.6052 3.34201 23.5775 3.44192 23.6348C3.42435 23.6247 3.40307 23.6173 3.38457 23.6089C3.24488 23.5432 3.11073 23.4655 2.98492 23.3767C2.97197 23.3675 2.86928 23.2935 2.93589 23.3416C3.00157 23.3888 2.89518 23.3073 2.87853 23.2925C2.81562 23.238 2.75549 23.1815 2.69721 23.1214C2.64078 23.0631 2.5862 23.0021 2.53439 22.9392C2.52792 22.9318 2.48629 22.8883 2.48814 22.8818C2.48814 22.8818 2.55659 22.9752 2.50571 22.904C2.47611 22.8624 2.44651 22.8207 2.41783 22.7782C2.31144 22.6191 2.218 22.4507 2.13659 22.2777C2.12642 22.2555 2.06258 22.1121 2.10144 22.2037C2.08109 22.1565 2.06259 22.1084 2.04408 22.0594C2.00523 21.9567 1.96915 21.8521 1.93862 21.7458C1.90994 21.6468 1.88404 21.5469 1.86276 21.4469C1.85351 21.4044 1.84611 21.3618 1.83871 21.3184C1.83501 21.2971 1.83223 21.2758 1.82853 21.2554C1.81096 21.1537 1.83778 21.348 1.82853 21.2545C1.81188 21.0797 1.80263 20.9058 1.81188 20.7309C1.81373 20.6948 1.81651 20.6588 1.82021 20.6227C1.82206 20.6051 1.82391 20.5875 1.82576 20.569C1.83223 20.4913 1.82021 20.6079 1.81928 20.6134C1.83593 20.5339 1.84518 20.4543 1.86276 20.3747C1.89422 20.2388 1.93677 20.1074 1.9858 19.9779C2.02928 19.8632 1.94602 20.063 1.98673 19.9751C2.0006 19.9455 2.01355 19.9159 2.02836 19.8863C2.05611 19.8299 2.08571 19.7734 2.11717 19.7188C2.17452 19.618 2.24021 19.5218 2.30774 19.4274C2.36602 19.346 2.25408 19.4931 2.28924 19.4506C2.30404 19.433 2.31792 19.4145 2.33272 19.3969C2.3651 19.358 2.3984 19.3192 2.43263 19.2813C2.48629 19.2221 2.54272 19.1647 2.60192 19.111C2.64633 19.0694 2.69258 19.0306 2.73884 18.9926C2.81377 18.9306 2.6306 19.0722 2.69629 19.0259C2.70739 19.0185 2.71756 19.0102 2.72866 19.0028C2.78787 18.9593 2.8369 18.9168 2.88963 18.8696C2.92571 18.8372 2.96364 18.8076 3.00065 18.7762C3.03488 18.7466 2.88408 18.8631 2.94884 18.8169C2.96272 18.8067 2.97659 18.7965 2.98955 18.7863C3.02192 18.7623 3.05523 18.7401 3.08853 18.7179C3.24858 18.6106 3.41787 18.519 3.59364 18.4394C3.60567 18.4339 3.61769 18.4292 3.6288 18.4237C3.70003 18.3913 3.52888 18.4644 3.58254 18.4431C3.61122 18.432 3.63897 18.42 3.66765 18.4089C3.72778 18.3858 3.78884 18.3645 3.8499 18.3441C3.98404 18.2997 4.12003 18.2636 4.25787 18.2331C4.32448 18.2192 4.39109 18.2063 4.45769 18.1952C4.4799 18.1915 4.61404 18.1721 4.52708 18.1841C4.45029 18.1943 4.5132 18.1859 4.53263 18.1841C4.56038 18.1813 4.58721 18.1776 4.61496 18.1748C4.78426 18.1582 4.9554 18.1508 5.12562 18.1526C5.32082 18.1545 5.51417 18.1693 5.70844 18.1924C5.76673 18.1989 5.72325 18.2146 5.68809 18.1896C5.69734 18.1961 5.74267 18.198 5.75747 18.1998C5.81021 18.2081 5.86386 18.2174 5.91659 18.2266C6.02668 18.247 6.13584 18.2701 6.24501 18.2969C6.6428 18.3932 7.01933 18.5569 7.41712 18.6522C7.76404 18.7355 8.12391 18.7771 8.47915 18.7863C9.97875 18.8224 11.4589 18.309 12.8096 17.7021C13.9826 17.1748 15.102 16.5272 16.1705 15.813C16.3398 15.7002 16.5082 15.5845 16.6747 15.467C16.8717 15.3283 16.9837 15.0563 16.8403 14.8343C16.7117 14.6326 16.4166 14.5142 16.2047 14.6631Z" fill="#7266BA"/>
</svg>
