<svg width="24" height="24" viewBox="0 0 24 24" fill="none" xmlns="http://www.w3.org/2000/svg">
<g clip-path="url(#clip0_7_1031)">
<path d="M22.95 9.59979C22.7625 9.41232 22.5082 9.307 22.243 9.307C21.9778 9.307 21.7235 9.41232 21.536 9.59979L10.644 20.5388C10.1797 21.0031 9.6285 21.3715 9.02185 21.6228C8.41521 21.8742 7.765 22.0035 7.10835 22.0036C5.78218 22.0037 4.5103 21.477 3.57249 20.5393C2.63469 19.6016 2.10778 18.3298 2.10769 17.0036C2.10759 15.6775 2.63432 14.4056 3.57199 13.4678L14.121 2.87579C14.6851 2.32068 15.4457 2.01096 16.2371 2.01409C17.0285 2.01722 17.7866 2.33294 18.3463 2.89249C18.906 3.45204 19.2219 4.21009 19.2252 5.0015C19.2285 5.79291 18.919 6.55357 18.364 7.11779L7.81499 17.7098C7.62474 17.892 7.37146 17.9938 7.10799 17.9938C6.84453 17.9938 6.59124 17.892 6.40099 17.7098C6.21352 17.5223 6.10821 17.268 6.10821 17.0028C6.10821 16.7376 6.21352 16.4833 6.40099 16.2958L15.793 6.86079C15.9752 6.67219 16.0759 6.41958 16.0737 6.15739C16.0714 5.89519 15.9662 5.64438 15.7808 5.45897C15.5954 5.27356 15.3446 5.16839 15.0824 5.16611C14.8202 5.16384 14.5676 5.26463 14.379 5.44679L4.98699 14.8818C4.70836 15.1604 4.48734 15.4911 4.33654 15.8551C4.18575 16.2191 4.10813 16.6093 4.10813 17.0033C4.10813 17.3973 4.18575 17.7874 4.33654 18.1515C4.48734 18.5155 4.70836 18.8462 4.98699 19.1248C5.55861 19.6703 6.31837 19.9746 7.10849 19.9746C7.89861 19.9746 8.65837 19.6703 9.22999 19.1248L19.778 8.53179C20.696 7.59009 21.206 6.32464 21.1976 5.00956C21.1892 3.69448 20.663 2.43567 19.733 1.50581C18.803 0.575956 17.5441 0.0499337 16.229 0.0416937C14.9139 0.0334538 13.6486 0.54366 12.707 1.46179L2.15799 12.0538C0.845171 13.3666 0.107635 15.1472 0.107635 17.0038C0.107636 18.8604 0.845171 20.641 2.15799 21.9538C3.47081 23.2666 5.25138 24.0041 7.10799 24.0041C8.9646 24.0041 10.7452 23.2666 12.058 21.9538L22.95 11.0178C23.0434 10.9249 23.1176 10.8144 23.1681 10.6927C23.2187 10.571 23.2448 10.4406 23.2448 10.3088C23.2448 10.177 23.2187 10.0465 23.1681 9.92487C23.1176 9.80319 23.0434 9.69272 22.95 9.59979Z" fill="#FFFFFF"/>
</g>
<defs>
<clipPath id="clip0_7_1031">
<rect width="24" height="24" fill="white"/>
</clipPath>
</defs>
</svg>
