<svg width="42" height="26" viewBox="0 0 42 26" fill="none" xmlns="http://www.w3.org/2000/svg">
<path d="M41.2843 19.8452C41.2824 19.8443 41.2815 19.8434 41.2815 19.8434C39.7331 18.7609 37.117 17.3142 33.8354 16.9647C33.8354 16.9647 30.0073 20.2261 26.2653 20.9924C25.9871 21.0451 25.8891 20.826 26.2394 20.582C26.2385 20.5801 26.2376 20.5783 26.2376 20.5783C26.2431 20.5764 26.2477 20.5737 26.2533 20.5718C26.3069 20.5358 26.3698 20.4988 26.4437 20.4627C26.7885 20.2936 27.2563 20.1041 27.8054 19.848C31.5058 17.9187 35.7313 14.1795 36.494 7.42847C36.6086 6.19252 35.7683 6.05294 35.3856 6.05294C35.2959 6.05294 35.2312 6.06033 35.21 6.06403H35.2026C33.6995 6.17681 30.9965 6.81003 27.1768 9.36789C27.1768 9.36789 27.1666 9.70992 27.0964 10.2942C26.9096 11.9914 26.3189 15.6604 24.5588 18.2238C24.4368 18.4152 24.2205 18.4651 24.1558 18.3301C24.1281 18.3199 24.1262 18.2691 24.1401 18.1961C24.1456 18.1517 24.1576 18.1018 24.1808 18.0426C24.2316 17.8845 24.312 17.6876 24.3832 17.5231C24.385 17.5194 24.386 17.5157 24.3878 17.512C24.3952 17.4954 24.4026 17.4787 24.41 17.463C24.4461 17.3863 24.4812 17.3105 24.5135 17.2347C24.5163 17.2282 24.5191 17.2227 24.5219 17.2171C24.5237 17.2143 24.5246 17.2106 24.5265 17.2079C24.5293 17.2023 24.5311 17.1977 24.532 17.1958C24.532 17.1949 24.532 17.1949 24.533 17.194C24.533 17.1931 24.533 17.1931 24.533 17.1931C24.9915 16.1577 25.3307 15.1603 25.572 14.2026C25.89 12.8945 26.1137 11.3286 26.0305 9.62488C25.7865 5.24777 23.591 2.15375 22.3412 0.731999C22.2949 0.674685 22.2487 0.621993 22.2025 0.575772C22.2016 0.575772 22.2016 0.575772 22.2007 0.574848C21.365 -0.255278 20.4554 0.683929 20.411 0.73015C20.4091 0.731074 20.4082 0.731999 20.4082 0.731999C17.9613 3.3749 17.0988 9.00275 17.0988 9.00275C17.0988 9.00275 20.4341 12.4573 21.5212 17.2347C21.5896 17.647 21.4648 17.7727 21.3326 17.7117C21.2984 17.7024 21.2661 17.6849 21.2393 17.6618L21.2383 17.6599C21.2328 17.6516 21.2106 17.6146 21.1782 17.5443C21.1653 17.5194 21.1533 17.4926 21.1422 17.463C21.1422 17.4621 21.1413 17.4612 21.1413 17.4602C21.1052 17.3724 21.0608 17.2541 21.0137 17.0979V17.0969C20.9009 16.7022 20.7752 16.3232 20.6393 15.9571C20.3481 15.201 19.9146 14.2386 19.2906 13.244C19.1029 12.9519 18.9088 12.6718 18.7064 12.4037C17.2079 10.4153 15.3276 9.06468 13.4964 8.14859C11.1862 6.99214 8.95562 6.52624 7.66699 6.34043C7.64295 6.33766 7.61892 6.33396 7.59488 6.33026C6.62702 6.20454 6.47726 6.72961 6.45415 6.8655C6.45415 6.86642 6.45415 6.86735 6.45323 6.86735C6.4523 6.87382 6.4523 6.88029 6.45138 6.88584C6.45138 6.88861 6.45138 6.89138 6.45045 6.89323C6.45045 6.896 6.45045 6.89693 6.45045 6.89693C6.02522 11.5625 9.40766 15.4727 9.40766 15.4727C9.40766 15.4727 10.7767 15.6308 12.6847 16.1513C12.7448 16.1679 12.8049 16.1845 12.8641 16.2012C12.975 16.2326 13.0868 16.264 13.2015 16.2982C13.2542 16.314 13.3078 16.3297 13.3605 16.3454C15.4737 16.9795 18.0722 18.0352 20.2048 19.7472C20.6957 20.1152 20.8113 20.4997 20.2973 20.2732C20.032 20.1567 18.6028 19.3229 16.57 18.5261C15.9008 18.2885 15.3396 18.0898 15.3369 18.0888C15.3156 18.0814 15.2953 18.075 15.2749 18.0676C15.189 18.038 15.1169 18.013 15.0632 17.9955C15.0512 17.9918 15.0392 17.9881 15.03 17.9834C15.0235 17.9816 15.0189 17.9797 15.0142 17.9788C14.9958 17.9724 14.98 17.9677 14.9689 17.964C14.9569 17.9603 14.9495 17.9566 14.9449 17.9557C14.944 17.9557 14.944 17.9557 14.9431 17.9557H14.9421C14.5955 17.8411 14.2368 17.7339 13.8707 17.634C13.1654 17.4464 12.4287 17.2874 11.6734 17.1755C11.6447 17.1718 11.617 17.1672 11.5884 17.1635C11.5523 17.1579 11.5153 17.1533 11.4793 17.1487C10.9422 17.0766 10.3931 17.0276 9.83382 17.0091H9.82642C9.80701 17.0082 9.79037 17.0073 9.77465 17.0063H9.76449C9.76264 17.0063 9.75894 17.0063 9.75617 17.0054H9.75247C9.7386 17.0054 9.72751 17.0054 9.71826 17.0045C9.71272 17.0045 9.7081 17.0036 9.70532 17.0036C9.70255 17.0036 9.7007 17.0036 9.69793 17.0036C8.22533 16.9657 6.68618 17.1321 5.12854 17.598L5.12946 17.597C5.1082 17.6035 5.08602 17.61 5.06475 17.6165C5.04627 17.622 5.0287 17.6275 5.01114 17.6331C3.46736 18.1008 1.44659 19.0391 0.266112 20.1346C0.265188 20.1355 0.265188 20.1355 0.264263 20.1355C0.264263 20.1355 0.263339 20.1355 0.262415 20.1373C0.248548 20.1484 0.185688 20.202 0.128374 20.2917C-0.0759217 20.5616 -0.078695 20.8371 0.43528 21.573C0.436205 21.5739 0.437129 21.5748 0.437129 21.5757C1.89124 23.761 7.10771 27.8969 18.1073 24.5237C18.1323 24.5163 18.1563 24.5098 18.1804 24.5024C18.1841 24.5006 18.1887 24.4997 18.1924 24.4987C18.4679 24.4118 18.6398 24.2991 18.7248 24.1826C18.8626 23.9922 18.7637 23.7925 18.4891 23.6825C18.0306 23.4994 17.4029 23.8147 17.4029 23.8147C13.5564 25.6053 7.94154 24.7927 7.50336 24.7261C7.48488 24.7234 7.47563 24.7215 7.47563 24.7215C4.9603 24.288 2.73708 23.2933 1.55475 21.3298C1.54735 21.3187 1.54088 21.3067 1.53349 21.2966C1.25154 20.8066 1.48079 20.4877 1.61576 20.3564C1.61576 20.3564 1.61576 20.3564 1.61576 20.3555C1.65459 20.3194 1.68417 20.2982 1.69341 20.2917C1.69618 20.2899 1.69711 20.2899 1.69711 20.2899C2.55866 19.591 4.63305 18.2395 8.06448 17.9363C8.74485 17.8762 9.47884 17.8568 10.2674 17.8919C14.6232 18.2155 19.6622 20.643 21.2947 21.4851C21.2947 21.4851 21.2966 21.487 21.2993 21.4879C21.3465 21.5119 21.732 21.7144 22.0472 21.9131C22.1101 21.9547 22.1738 21.9973 22.2367 22.0389C22.2404 22.0416 22.2441 22.0444 22.2487 22.0463C30.1774 27.2738 34.3928 26.7571 41.2085 22.2117C41.2538 22.1831 41.2945 22.1553 41.3342 22.1285C42.8299 21.071 41.3472 19.8942 41.2843 19.8452Z" fill="#7266BA"/>
</svg>
