<svg width="24" height="20" viewBox="0 0 24 20" fill="none" xmlns="http://www.w3.org/2000/svg">
<path d="M21 10.4237V8.99969C21 6.61275 20.0517 4.32356 18.3639 2.63573C16.6761 0.947906 14.3869 -0.000305176 12 -0.000305176C9.613 -0.000305176 7.32382 0.947906 5.63599 2.63573C3.94816 4.32356 2.99995 6.61275 2.99995 8.99969V10.4237C1.95111 10.8855 1.09275 11.6936 0.568572 12.7128C0.0443932 13.7319 -0.113788 14.9001 0.120508 16.0219C0.354805 17.1438 0.967358 18.151 1.85562 18.8751C2.74388 19.5993 3.85394 19.9963 4.99995 19.9997C5.53038 19.9997 6.03909 19.789 6.41416 19.4139C6.78924 19.0388 6.99995 18.5301 6.99995 17.9997V11.9997C6.99995 11.4693 6.78924 10.9606 6.41416 10.5855C6.03909 10.2104 5.53038 9.99969 4.99995 9.99969V8.99969C4.99995 7.14318 5.73745 5.3627 7.0502 4.04995C8.36296 2.73719 10.1434 1.99969 12 1.99969C13.8565 1.99969 15.6369 2.73719 16.9497 4.04995C18.2625 5.3627 19 7.14318 19 8.99969V9.99969C18.4695 9.99969 17.9608 10.2104 17.5857 10.5855C17.2107 10.9606 17 11.4693 17 11.9997V17.9997H14C13.7347 17.9997 13.4804 18.1051 13.2928 18.2926C13.1053 18.4801 13 18.7345 13 18.9997C13 19.2649 13.1053 19.5193 13.2928 19.7068C13.4804 19.8943 13.7347 19.9997 14 19.9997H19C20.146 19.9963 21.256 19.5993 22.1443 18.8751C23.0325 18.151 23.6451 17.1438 23.8794 16.0219C24.1137 14.9001 23.9555 13.7319 23.4313 12.7128C22.9071 11.6936 22.0488 10.8855 21 10.4237ZM4.99995 17.9997C4.2043 17.9997 3.44124 17.6836 2.87863 17.121C2.31602 16.5584 1.99995 15.7953 1.99995 14.9997C1.99995 14.204 2.31602 13.441 2.87863 12.8784C3.44124 12.3158 4.2043 11.9997 4.99995 11.9997V17.9997ZM19 17.9997V11.9997C19.7956 11.9997 20.5587 12.3158 21.1213 12.8784C21.6839 13.441 22 14.204 22 14.9997C22 15.7953 21.6839 16.5584 21.1213 17.121C20.5587 17.6836 19.7956 17.9997 19 17.9997Z" fill="#374957"/>
</svg>
