<svg width="26" height="40" viewBox="0 0 26 40" fill="none" xmlns="http://www.w3.org/2000/svg">
<path d="M6.95647 11.1411L0.742503 4.83837C0.742503 4.83837 0.141182 4.16212 0.875719 3.29067L1.92757 2.04177C2.01453 1.93908 2.06078 1.88357 2.06078 1.88357L3.11263 0.634674C3.84717 -0.23678 4.61594 0.240577 4.61594 0.240577L11.8818 5.29538L6.95647 11.1411Z" fill="#7266BA"/>
<path d="M11.5296 9.1743L10.7178 10.1378L18.704 16.8666L19.5158 15.9031L11.5296 9.1743Z" fill="#7266BA"/>
<path d="M23.21 22.0841L19.3662 17.454L20.209 16.453L25.4238 19.4568L23.21 22.0841Z" fill="#7266BA"/>
<path d="M9.31215 11.2594C8.88752 10.9014 8.4629 10.5443 8.0392 10.1862C7.97906 10.1354 7.91893 10.0845 7.8588 10.0345C7.88655 10.2344 7.91431 10.4342 7.94206 10.6349C8.36576 10.1317 8.79038 9.6284 9.21408 9.12514C9.88942 8.32307 10.5647 7.52193 11.241 6.71986C11.3955 6.53576 11.5509 6.35259 11.7054 6.16849C11.5056 6.19624 11.3058 6.224 11.105 6.25175C11.5296 6.60977 11.9543 6.96686 12.378 7.32488C12.4381 7.37576 12.4982 7.42664 12.5584 7.4766C12.5306 7.27677 12.5029 7.07695 12.4751 6.8762C12.0514 7.37946 11.6268 7.88272 11.2031 8.38598C10.5277 9.18805 9.85241 9.9892 9.17615 10.7913C9.02166 10.9754 8.86624 11.1585 8.71175 11.3426C8.56743 11.5147 8.61091 11.8163 8.79501 11.943C8.99391 12.0809 9.24091 12.0429 9.39541 11.8598C9.81911 11.3565 10.2437 10.8532 10.6674 10.35C11.3428 9.54792 12.0181 8.74677 12.6944 7.9447C12.8488 7.76061 13.0043 7.57743 13.1588 7.39334C13.3132 7.21017 13.2457 6.93633 13.0755 6.79294C12.6509 6.43492 12.2262 6.07783 11.8025 5.71981C11.7424 5.66893 11.6823 5.61805 11.6221 5.56809C11.439 5.4136 11.1651 5.48113 11.0217 5.65135C10.598 6.15461 10.1734 6.65787 9.74972 7.16113C9.07439 7.9632 8.39906 8.76435 7.72281 9.56642C7.56831 9.75052 7.4129 9.93369 7.2584 10.1178C7.10391 10.301 7.17144 10.5748 7.34166 10.7182C7.76629 11.0762 8.19091 11.4333 8.61461 11.7913C8.67475 11.8422 8.73488 11.8931 8.79501 11.943C8.96708 12.0873 9.26867 12.0439 9.39541 11.8598C9.53325 11.6599 9.49624 11.4139 9.31215 11.2594Z" fill="#7266BA"/>
<path d="M10.8665 20.9805C10.0515 20.9805 9.23646 20.9805 8.42051 20.9805C7.34461 20.9805 6.26963 20.9805 5.19372 20.9805C4.94024 20.9805 4.71914 21.0036 4.48139 21.1091C4.20016 21.2349 3.96425 21.4717 3.83289 21.7492C3.67192 22.0897 3.63399 22.4588 3.65619 22.8316C3.69597 23.4903 3.73113 24.149 3.7672 24.8076C3.83104 25.9798 3.89487 27.1528 3.9587 28.3249C4.03179 29.671 4.10394 31.0179 4.1761 32.364C4.24086 33.5638 4.30469 34.7628 4.36853 35.9626C4.40738 36.6898 4.44623 37.4169 4.48509 38.144C4.48971 38.2365 4.49712 38.3291 4.49804 38.4206C4.50359 38.9082 4.7617 39.3374 5.16782 39.6011C5.53231 39.8379 5.99117 39.9147 6.41857 39.9286C6.91258 39.9452 7.41029 39.923 7.90522 39.9221C8.75262 39.9202 9.60002 39.923 10.4465 39.9277C10.5862 39.9286 10.7268 39.9295 10.8665 39.9304C11.0904 39.9323 11.305 39.7325 11.2948 39.5021C11.2846 39.268 11.107 39.0756 10.8665 39.0738C10.3549 39.0692 9.84425 39.0673 9.33267 39.0654C8.85716 39.0636 8.38073 39.0636 7.90522 39.0645C7.42139 39.0654 6.93571 39.084 6.45187 39.0719C6.38712 39.0701 6.32143 39.0673 6.25668 39.0617C6.23632 39.0599 6.21597 39.058 6.19562 39.0562C6.18544 39.0553 6.17619 39.0543 6.16601 39.0534C6.11791 39.0479 6.12716 39.0488 6.19284 39.0571C6.18914 39.0469 6.06148 39.0349 6.04483 39.0312C5.99117 39.0201 5.93844 39.0072 5.88663 38.9914C5.84963 38.9803 5.81262 38.9683 5.77654 38.9554C5.71456 38.9322 5.74879 38.9165 5.79782 38.9665C5.78672 38.9554 5.75527 38.948 5.74139 38.9406C5.67848 38.91 5.6202 38.874 5.56192 38.8351C5.52584 38.812 5.51011 38.7731 5.59337 38.861C5.58227 38.849 5.56747 38.8397 5.55544 38.8286C5.53602 38.811 5.51659 38.7925 5.49809 38.774C5.47866 38.7546 5.46201 38.7333 5.4435 38.713C5.4139 38.6806 5.43425 38.6639 5.47958 38.7602C5.47218 38.7444 5.45738 38.7296 5.44813 38.7148C5.42315 38.6769 5.40372 38.6371 5.38245 38.5973C5.34914 38.5335 5.4287 38.7241 5.39632 38.6297C5.38892 38.6094 5.38152 38.589 5.37597 38.5677C5.36579 38.5335 5.35932 38.4993 5.35192 38.4651C5.33342 38.3772 5.36765 38.527 5.36024 38.5307C5.36117 38.5298 5.35562 38.4873 5.35562 38.4826C5.35377 38.4558 5.35562 38.4299 5.35469 38.4031C5.35469 38.3772 5.35192 38.3513 5.35099 38.3254C5.31954 37.7444 5.28901 37.1625 5.25756 36.5815C5.19835 35.4695 5.13822 34.3585 5.07901 33.2465C5.00778 31.9199 4.93654 30.5924 4.86531 29.2658C4.79963 28.0391 4.73302 26.8114 4.66641 25.5847C4.62201 24.7725 4.57853 23.9612 4.53134 23.1489C4.52579 23.0481 4.51932 22.9463 4.51377 22.8455C4.50822 22.7474 4.50267 22.6494 4.50544 22.5504C4.50729 22.4967 4.51469 22.444 4.51654 22.3913C4.51839 22.3293 4.49619 22.5014 4.51469 22.4116C4.52024 22.3866 4.52395 22.3617 4.5295 22.3367C4.53782 22.2978 4.548 22.259 4.56002 22.221C4.5665 22.1998 4.57483 22.1785 4.58223 22.1572C4.60628 22.0869 4.5295 22.259 4.5813 22.1618C4.61091 22.1063 4.65531 22.0536 4.68029 21.9981C4.63866 22.0897 4.62386 22.0656 4.65716 22.0295C4.66826 22.0175 4.67936 22.0046 4.69139 21.9916C4.71359 21.9685 4.73857 21.9481 4.76262 21.9259C4.81258 21.8788 4.66734 21.9925 4.72377 21.9555C4.73394 21.9491 4.74412 21.9417 4.7543 21.9343C4.77557 21.9195 4.79778 21.9065 4.8209 21.8936C4.84033 21.8825 4.86068 21.8741 4.88011 21.863C4.91434 21.8454 4.96522 21.8417 4.82368 21.8862C4.83848 21.8815 4.85236 21.8751 4.86716 21.8695C4.89861 21.8584 4.93099 21.8482 4.9643 21.8408C5.03461 21.8242 5.10769 21.8436 4.94024 21.839C4.95412 21.839 4.96892 21.8362 4.98372 21.8353C5.26681 21.8242 5.55267 21.8353 5.83575 21.8353C6.40654 21.8353 6.97641 21.8353 7.5472 21.8353C8.59165 21.8353 9.6361 21.8353 10.6806 21.8353C10.7425 21.8353 10.8045 21.8353 10.8665 21.8353C11.0904 21.8353 11.305 21.6382 11.2948 21.4069C11.2846 21.1766 11.107 20.9805 10.8665 20.9805Z" fill="#7266BA"/>
<path d="M10.8555 21.8371C11.6492 21.8371 12.4439 21.8371 13.2376 21.8371C14.3191 21.8371 15.4006 21.8371 16.482 21.8371C16.569 21.8371 16.655 21.8381 16.742 21.8371C16.8113 21.8362 16.766 21.8464 16.6846 21.8279C16.7503 21.8427 16.8132 21.8575 16.877 21.8797C16.9566 21.9074 16.7614 21.8233 16.8483 21.8677C16.8706 21.8788 16.8918 21.8899 16.9131 21.9019C16.9335 21.9139 16.9538 21.9259 16.9732 21.9398C16.9853 21.9481 16.9973 21.9583 17.0093 21.9657C16.8881 21.8899 16.951 21.9204 16.9825 21.9481C17.0028 21.9666 17.0223 21.9852 17.0408 22.0055C17.0528 22.0185 17.063 22.0314 17.075 22.0444C17.1157 22.086 17.0417 22.0009 17.0408 21.999C17.0537 22.0314 17.0852 22.0629 17.1028 22.0925C17.1166 22.1156 17.1379 22.1868 17.1573 22.2007C17.1176 22.1729 17.1203 22.1063 17.1462 22.1794C17.1527 22.197 17.1583 22.2155 17.1638 22.2331C17.1768 22.2756 17.1879 22.3182 17.1962 22.3626C17.1999 22.382 17.1999 22.4227 17.2101 22.4394C17.2054 22.432 17.199 22.3302 17.2054 22.407C17.211 22.4764 17.2165 22.5448 17.2165 22.6142C17.2165 22.6956 17.2119 22.7761 17.2064 22.8575C17.1666 23.5236 17.1314 24.1897 17.0944 24.8558C17.0306 26.0122 16.9686 27.1685 16.9057 28.3249C16.8335 29.6562 16.7623 30.9883 16.6911 32.3196C16.6272 33.5111 16.5634 34.7026 16.4996 35.8951C16.4598 36.6306 16.4209 37.366 16.3821 38.1015C16.3765 38.2023 16.3682 38.3041 16.3664 38.4049C16.3654 38.4355 16.3664 38.4651 16.3645 38.4956C16.3636 38.5076 16.3617 38.5196 16.3608 38.5317C16.3673 38.3605 16.3775 38.4281 16.3673 38.4752C16.3599 38.5122 16.3516 38.5483 16.3405 38.5844C16.334 38.6038 16.3275 38.6223 16.3201 38.6418C16.2933 38.7204 16.3738 38.5307 16.3358 38.6048C16.3118 38.651 16.2859 38.6945 16.2581 38.7398C16.21 38.8166 16.3331 38.6529 16.2729 38.7213C16.2526 38.7444 16.2331 38.7666 16.2119 38.7879C16.1924 38.8064 16.173 38.824 16.1527 38.8425C16.1249 38.8675 16.075 38.8888 16.1869 38.8175C16.1721 38.8268 16.1582 38.8388 16.1443 38.8481C16.0861 38.8878 16.0241 38.9211 15.9612 38.9517C15.9279 38.9683 15.8668 38.9766 15.9861 38.9424C15.9649 38.9489 15.9445 38.9581 15.9242 38.9655C15.8798 38.9813 15.8344 38.9951 15.7891 39.0072C15.7484 39.0183 15.7068 39.0275 15.6651 39.0368C15.6383 39.0423 15.6124 39.047 15.5856 39.0516C15.555 39.0571 15.4681 39.0562 15.5865 39.0525C15.4699 39.0562 15.3543 39.0738 15.2368 39.0756C14.753 39.083 14.2691 39.0682 13.7853 39.0673C12.949 39.0655 12.1127 39.0682 11.2764 39.0729C11.1367 39.0738 10.9961 39.0747 10.8564 39.0756C10.6325 39.0775 10.4179 39.2718 10.4281 39.504C10.4383 39.7343 10.6159 39.9341 10.8564 39.9323C11.3828 39.9277 11.9083 39.9258 12.4346 39.924C12.9176 39.923 13.4005 39.9221 13.8843 39.924C14.3783 39.9249 14.8779 39.9536 15.3709 39.9277C15.7845 39.9055 16.2294 39.8259 16.5782 39.5881C16.8474 39.405 17.0389 39.1644 17.1527 38.8601C17.2138 38.6954 17.2193 38.5233 17.2286 38.3503C17.2591 37.786 17.2887 37.2226 17.3192 36.6583C17.3784 35.5426 17.4386 34.4279 17.4987 33.3122C17.5709 31.9643 17.643 30.6164 17.7161 29.2676C17.7827 28.0289 17.8502 26.7902 17.9178 25.5514C17.9622 24.7401 18.0057 23.9297 18.0519 23.1184C18.0797 22.6374 18.1009 22.1581 17.8743 21.7132C17.6652 21.3033 17.2147 20.9971 16.7503 20.9814C16.4876 20.9722 16.223 20.9814 15.9602 20.9814C15.3839 20.9814 14.8085 20.9814 14.2321 20.9814C13.1701 20.9814 12.1081 20.9814 11.0451 20.9814C10.9831 20.9814 10.9212 20.9814 10.8592 20.9814C10.6353 20.9814 10.4207 21.1785 10.4309 21.4097C10.4373 21.641 10.615 21.8371 10.8555 21.8371Z" fill="#7266BA"/>
<path d="M5.86621 29.4804L6.28158 37.9674H15.4948L15.8472 31.1826C15.8472 31.1826 12.4234 32.4482 9.68414 30.0003C9.68414 29.9994 7.79599 28.609 5.86621 29.4804Z" fill="#7266BA"/>
<path d="M14.9399 20.9806C14.6698 20.9806 14.3997 20.9806 14.1295 20.9806C13.481 20.9806 12.8325 20.9806 12.184 20.9806C11.3949 20.9806 10.6067 20.9806 9.81759 20.9806C9.13856 20.9806 8.45953 20.9806 7.7805 20.9806C7.45116 20.9806 7.11719 20.9658 6.78785 20.9806C6.78323 20.9806 6.7786 20.9806 6.77305 20.9806C6.91552 21.123 7.05891 21.2664 7.20138 21.4089C7.20138 20.6744 7.20138 19.9389 7.20138 19.2044C7.20138 19.0998 7.20138 18.9962 7.20138 18.8917C7.05891 19.0341 6.91552 19.1775 6.77305 19.32C7.04319 19.32 7.31332 19.32 7.58345 19.32C8.23195 19.32 8.88045 19.32 9.52896 19.32C10.3181 19.32 11.1063 19.32 11.8954 19.32C12.5744 19.32 13.2534 19.32 13.9325 19.32C14.2618 19.32 14.5958 19.3348 14.9251 19.32C14.9297 19.32 14.9344 19.32 14.9399 19.32C14.7975 19.1775 14.6541 19.0341 14.5116 18.8917C14.5116 19.6262 14.5116 20.3617 14.5116 21.0962C14.5116 21.2007 14.5116 21.3044 14.5116 21.4089C14.5116 21.6328 14.7086 21.8474 14.9399 21.8372C15.1721 21.827 15.3682 21.6494 15.3682 21.4089C15.3682 20.6744 15.3682 19.9389 15.3682 19.2044C15.3682 19.0998 15.3682 18.9962 15.3682 18.8917C15.3682 18.6604 15.1721 18.4633 14.9399 18.4633C14.6698 18.4633 14.3997 18.4633 14.1295 18.4633C13.481 18.4633 12.8325 18.4633 12.184 18.4633C11.3949 18.4633 10.6067 18.4633 9.81759 18.4633C9.13856 18.4633 8.45953 18.4633 7.7805 18.4633C7.45023 18.4633 7.11812 18.4541 6.78785 18.4633C6.78323 18.4633 6.7786 18.4633 6.77305 18.4633C6.54178 18.4633 6.34473 18.6595 6.34473 18.8917C6.34473 19.6262 6.34473 20.3617 6.34473 21.0962C6.34473 21.2007 6.34473 21.3044 6.34473 21.4089C6.34473 21.6402 6.54085 21.8372 6.77305 21.8372C7.04319 21.8372 7.31332 21.8372 7.58345 21.8372C8.23195 21.8372 8.88045 21.8372 9.52896 21.8372C10.3181 21.8372 11.1063 21.8372 11.8954 21.8372C12.5744 21.8372 13.2534 21.8372 13.9325 21.8372C14.2627 21.8372 14.5949 21.8465 14.9251 21.8372C14.9297 21.8372 14.9344 21.8372 14.9399 21.8372C15.1638 21.8372 15.3784 21.6402 15.3682 21.4089C15.3581 21.1767 15.1795 20.9806 14.9399 20.9806Z" fill="#7266BA"/>
</svg>
