<svg width="26" height="34" viewBox="0 0 26 34" fill="none" xmlns="http://www.w3.org/2000/svg">
<path d="M15.1473 0.474781C15.0353 0.456279 14.9225 0.440552 14.8096 0.440552C14.7966 0.440552 14.7837 0.441477 14.7707 0.442402C14.73 0.441477 14.6903 0.440552 14.6496 0.440552C14.2305 0.440552 13.8105 0.440552 13.3914 0.440552C12.6818 0.440552 11.9714 0.440552 11.2618 0.440552C10.4033 0.440552 9.54479 0.440552 8.68629 0.440552C7.83057 0.440552 6.97484 0.440552 6.11819 0.440552C5.41603 0.440552 4.71387 0.440552 4.01171 0.440552C3.60559 0.440552 3.19854 0.440552 2.79242 0.440552C2.75356 0.440552 2.71471 0.441477 2.67678 0.442402C2.66938 0.442402 2.6629 0.440552 2.6555 0.440552C2.32246 0.440552 1.98479 0.536764 1.69339 0.693107C1.04303 1.04187 0.734971 1.73478 0.699817 2.44804C0.689641 2.66637 0.711843 2.88284 0.732196 3.09932C0.758099 3.37593 0.784002 3.65253 0.80898 3.92914C0.863562 4.51936 0.917218 5.10958 0.969949 5.6998C1.04118 6.48615 1.11149 7.27342 1.18272 8.05976C1.26598 8.98394 1.34832 9.90813 1.43158 10.8323C1.52131 11.8398 1.61198 12.8472 1.70171 13.8546C1.7933 14.8778 1.88396 15.901 1.97554 16.9232C2.06343 17.9076 2.15039 18.8909 2.23828 19.8753C2.31691 20.7615 2.39554 21.6478 2.47418 22.534C2.53894 23.2639 2.60369 23.9929 2.66845 24.7228C2.71378 25.2372 2.76004 25.7516 2.80537 26.2659C2.82665 26.5065 2.84607 26.7461 2.8692 26.9866C2.87013 26.9968 2.87105 27.006 2.87198 27.0162C2.87198 27.0171 2.87198 27.0171 2.87198 27.018C2.87198 27.4667 2.87198 27.9145 2.87198 28.3632C2.87198 29.143 2.87198 29.9229 2.87198 30.7028C2.87198 30.9581 2.87198 31.2134 2.87198 31.4687C2.87198 31.5418 2.87013 31.614 2.87753 31.6871C2.95431 32.3855 3.33731 33.0331 3.96916 33.3698C4.7185 33.7695 5.60568 33.6807 6.42625 33.6807C6.45863 33.6807 6.49101 33.6807 6.52339 33.6807C6.53449 33.6807 6.54559 33.6807 6.55669 33.6807C7.58634 33.6807 8.61598 33.6807 9.64563 33.6807C10.0675 33.6807 10.4893 33.6807 10.9121 33.6807C10.9232 33.6807 10.9352 33.6807 10.9463 33.6807C11.2535 33.6807 11.5615 33.6807 11.8687 33.6807C12.2905 33.6807 12.7179 33.6724 13.1203 33.5327C13.8493 33.2801 14.4183 32.6788 14.5589 31.91C14.6172 31.5909 14.5968 31.2671 14.5968 30.9442C14.5968 30.1782 14.5968 29.4122 14.5968 28.6453C14.5968 28.1124 14.607 27.5787 14.5968 27.0458C14.5968 27.0375 14.5968 27.0282 14.5968 27.0199C14.5968 27.019 14.5968 27.019 14.5968 27.018C14.6116 26.8543 14.6255 26.6905 14.6403 26.5268C14.6801 26.0744 14.7208 25.622 14.7606 25.1697C14.8207 24.4879 14.8818 23.8051 14.9419 23.1233C15.0177 22.2657 15.0936 21.4091 15.1704 20.5515C15.2564 19.5857 15.3415 18.6199 15.4276 17.6541C15.5182 16.6355 15.6089 15.6161 15.6996 14.5975C15.7902 13.5845 15.88 12.5706 15.9706 11.5576C16.0557 10.6084 16.1399 9.65927 16.225 8.71011C16.299 7.88399 16.373 7.05879 16.448 6.23267C16.5062 5.58879 16.5645 4.94491 16.6237 4.30104C16.6321 4.2113 16.6404 4.12156 16.6487 4.03183C16.6561 3.99853 16.6598 3.9643 16.658 3.93007C16.6894 3.5887 16.7199 3.24734 16.7542 2.90597C16.818 2.23712 16.6922 1.52201 16.2102 1.02337C15.9299 0.734737 15.5423 0.539539 15.1473 0.474781ZM7.01647 31.2523C7.01647 31.255 7.01647 31.2569 7.01647 31.2597C7.01647 31.2606 7.01647 31.2615 7.01647 31.2624C7.01647 31.2597 7.01647 31.2578 7.01647 31.255C7.01647 31.2541 7.01647 31.2532 7.01647 31.2523ZM7.78616 32.7546C7.5299 32.7546 7.27273 32.7546 7.01647 32.7546C7.01647 32.5557 7.01647 32.3568 7.01647 32.1579C7.01647 32.1505 7.01647 32.1422 7.01647 32.1348C7.01647 31.9193 7.01647 31.7037 7.01647 31.4882C7.01647 31.4808 7.01647 31.4734 7.01647 31.465C7.01647 31.4095 7.01647 31.354 7.01647 31.2976C7.01647 31.293 7.01647 31.2893 7.01647 31.2846C7.01647 31.2782 7.01647 31.2708 7.01647 31.2643C7.02757 31.2282 7.03035 31.2097 7.0285 31.2032C7.02664 31.2106 7.02387 31.2171 7.02202 31.2245C7.02017 31.2319 7.01924 31.2393 7.01832 31.2467C7.02017 31.231 7.02294 31.2162 7.02572 31.2005C7.02757 31.1995 7.0285 31.2005 7.02942 31.2032C7.0322 31.1949 7.03497 31.1866 7.03775 31.1783C7.03867 31.1773 7.0396 31.1764 7.04145 31.1746C7.05347 31.1607 7.09418 31.1172 7.07105 31.1329C7.07753 31.1265 7.08308 31.12 7.08955 31.1135C7.0951 31.108 7.09973 31.1024 7.10528 31.0978C7.10991 31.095 7.11361 31.0922 7.11823 31.0894C7.12378 31.0857 7.12841 31.083 7.13396 31.0793C7.14321 31.0737 7.15801 31.0663 7.17189 31.0589C7.18761 31.0543 7.22462 31.0395 7.24497 31.033C7.25052 31.0312 7.25607 31.0293 7.26162 31.0284C7.29863 31.0182 7.33656 31.0117 7.37356 31.0034C7.40409 31.0025 7.43554 30.9979 7.467 30.9969C7.48365 30.996 7.5003 30.996 7.51788 30.996C7.52435 30.996 7.52991 30.996 7.53638 30.996C7.55673 30.996 7.57616 30.996 7.59651 30.996C7.76026 30.996 7.924 30.996 8.08775 30.996C8.22929 30.996 8.3699 30.996 8.51145 30.996C8.66501 30.996 8.81766 30.996 8.97123 30.996C9.01471 30.996 9.05726 30.996 9.10074 30.996C9.20621 30.996 9.31167 30.996 9.41713 30.996C9.52629 30.996 9.63638 30.996 9.74554 30.996C9.8066 30.996 9.86766 30.996 9.92872 30.996C9.97775 30.9969 10.0259 30.9997 10.074 31.0016C10.0804 31.0025 10.0869 31.0025 10.0934 31.0034C10.1026 31.0043 10.111 31.0062 10.1165 31.0071C10.1174 31.0071 10.1193 31.0071 10.1202 31.008C10.1332 31.0108 10.1461 31.0145 10.1591 31.0173C10.1887 31.0238 10.2183 31.0312 10.2479 31.0404C10.2525 31.0423 10.2571 31.0432 10.2618 31.045H10.2627C10.2627 31.045 10.2627 31.045 10.2618 31.0441L10.2627 31.045C10.2655 31.046 10.2673 31.0469 10.2701 31.0469C10.2747 31.0478 10.2766 31.0487 10.2803 31.0497C10.2849 31.0515 10.2895 31.0543 10.2951 31.0571C10.2988 31.058 10.3006 31.0589 10.3034 31.0598C10.3025 31.0598 10.3015 31.0599 10.2988 31.0589C10.2988 31.0589 10.2988 31.0589 10.2978 31.0589C10.2969 31.058 10.296 31.058 10.2941 31.0571C10.284 31.0534 10.271 31.0487 10.2627 31.045L10.2618 31.0441H10.2608C10.2608 31.0441 10.2618 31.0441 10.2618 31.045C10.2608 31.0441 10.2599 31.0441 10.259 31.0441C10.2571 31.046 10.271 31.0561 10.2877 31.0608C10.3062 31.07 10.3265 31.0784 10.3441 31.0876C10.3515 31.0922 10.3589 31.0959 10.3654 31.1005C10.3709 31.1061 10.3811 31.12 10.3922 31.1329C10.3931 31.1311 10.394 31.1311 10.395 31.1311C10.3987 31.1366 10.4051 31.145 10.4144 31.1579C10.407 31.1514 10.3996 31.1422 10.3913 31.1329C10.3894 31.1385 10.3959 31.1524 10.4162 31.1625C10.4153 31.1607 10.4153 31.1598 10.4144 31.1579C10.4153 31.1598 10.4162 31.1616 10.4172 31.1625H10.4162C10.4237 31.1801 10.4283 31.1894 10.4301 31.1921C10.4338 31.2069 10.4385 31.2217 10.4422 31.2365C10.4403 31.268 10.4431 31.2846 10.4468 31.2865C10.4468 31.3337 10.4468 31.3818 10.4468 31.429C10.4468 31.8712 10.4468 32.3124 10.4468 32.7546C9.5596 32.7546 8.67334 32.7546 7.78616 32.7546ZM10.4468 31.2532C10.4468 31.255 10.4468 31.2578 10.4468 31.2597C10.4468 31.2569 10.4468 31.2541 10.4459 31.2513C10.4459 31.2513 10.4468 31.2523 10.4468 31.2532ZM13.668 31.6427C13.6615 31.6769 13.656 31.7111 13.6486 31.7444C13.6366 31.7972 13.6218 31.849 13.6051 31.8998C13.5968 31.9267 13.5866 31.9526 13.5773 31.9794C13.5773 31.9803 13.5774 31.9803 13.5764 31.9813C13.5459 32.0451 13.5135 32.1071 13.4756 32.1672C13.458 32.195 13.4404 32.2209 13.4219 32.2477C13.4284 32.2394 13.4349 32.232 13.4404 32.2255C13.433 32.2329 13.4266 32.2412 13.4201 32.2505C13.4192 32.2514 13.4182 32.2532 13.4173 32.2542C13.3831 32.3032 13.396 32.2819 13.4155 32.2551C13.4099 32.2625 13.4044 32.269 13.3988 32.2754C13.3433 32.3393 13.2832 32.3957 13.2193 32.4512C13.2073 32.4595 13.1962 32.4688 13.1842 32.4762C13.1444 32.503 13.1028 32.5289 13.0611 32.552C13.0195 32.5752 12.977 32.5955 12.9344 32.6159C12.9094 32.6251 12.8854 32.6344 12.8604 32.6427C12.7457 32.6816 12.6291 32.7075 12.5098 32.7297C12.5033 32.7306 12.4977 32.7324 12.4931 32.7324C12.4626 32.7352 12.4321 32.7389 12.4015 32.7417C12.3285 32.7482 12.2563 32.7509 12.1832 32.7519C12.1397 32.7528 12.0962 32.7519 12.0528 32.7519C11.8372 32.7519 11.6217 32.7519 11.4061 32.7519C11.4061 32.3347 11.4061 31.9174 11.4061 31.5002C11.4061 31.4206 11.4061 31.342 11.4061 31.2624C11.4061 31.2606 11.4061 31.2587 11.4061 31.2569C11.4117 31.0321 11.3358 30.8184 11.21 30.6371C11.1813 30.5936 11.1499 30.551 11.1156 30.5103C10.9981 30.3734 10.8594 30.28 10.7086 30.2143C10.4634 30.1024 10.1822 30.0681 9.91669 30.0681C9.91576 30.0681 9.91391 30.0681 9.91299 30.0681C9.71224 30.0607 9.50872 30.0681 9.30797 30.0681C9.08872 30.0681 8.86946 30.0681 8.65021 30.0681C8.54383 30.0681 8.43651 30.0681 8.33013 30.0681C8.16731 30.0681 8.00449 30.0681 7.84167 30.0681C7.73528 30.0681 7.62889 30.0672 7.5225 30.0681C7.5114 30.0681 7.50123 30.0691 7.49013 30.0691C7.47902 30.0691 7.467 30.07 7.4559 30.07C7.22832 30.0765 6.99519 30.1125 6.78427 30.2023C6.77131 30.2078 6.75836 30.2134 6.74541 30.2189C6.73524 30.2235 6.72506 30.2282 6.71488 30.2337C6.58537 30.2957 6.46695 30.379 6.36797 30.4881C6.15704 30.7222 6.05806 31.008 6.05806 31.3189C6.05806 31.3263 6.05806 31.3346 6.05806 31.3429C6.05806 31.8064 6.05806 32.2708 6.05806 32.7343C6.05806 32.7398 6.05806 32.7463 6.05806 32.7519C5.91466 32.7519 5.77127 32.7519 5.62788 32.7519C5.51224 32.7519 5.3966 32.7528 5.28096 32.7519C5.21343 32.7509 5.1459 32.7482 5.07836 32.7426C5.04598 32.7398 5.01453 32.7371 4.98308 32.7334C4.97845 32.7334 4.97568 32.7324 4.9729 32.7324C4.96827 32.7315 4.96272 32.7306 4.9544 32.7287C4.83598 32.7065 4.7185 32.6806 4.60378 32.6418C4.58065 32.6344 4.55753 32.6251 4.5344 32.6168C4.49092 32.5946 4.44559 32.5752 4.40303 32.5511C4.36418 32.5289 4.32625 32.5058 4.28924 32.4817C4.27444 32.4716 4.25964 32.4614 4.24484 32.4512C4.18193 32.3957 4.12087 32.3393 4.06537 32.2754C4.05889 32.268 4.05242 32.2606 4.04594 32.2523C4.02651 32.2236 4.00616 32.1959 3.98858 32.1663C3.95158 32.1061 3.9192 32.0442 3.88867 31.9813C3.87849 31.9544 3.86832 31.9267 3.85907 31.8998C3.83039 31.8138 3.81281 31.7269 3.79524 31.639C3.79431 31.6306 3.79431 31.6223 3.79338 31.614C3.79246 31.5835 3.79338 31.5529 3.79338 31.5224C3.79338 31.3004 3.79338 31.0784 3.79338 30.8554C3.79338 30.0996 3.79338 29.3438 3.79338 28.588C3.79338 28.2188 3.80264 27.8488 3.80079 27.4787C4.00246 27.4787 4.20506 27.4787 4.40673 27.4787C5.26801 27.4787 6.12929 27.4787 6.99057 27.4787C8.02854 27.4787 9.06559 27.4787 10.1036 27.4787C11.0009 27.4787 11.8983 27.4787 12.7956 27.4787C13.0861 27.4787 13.3766 27.4834 13.668 27.4834C13.668 27.7581 13.668 28.0338 13.668 28.3086C13.668 29.0773 13.668 29.8461 13.668 30.6149C13.6699 30.9553 13.693 31.3041 13.668 31.6427ZM15.3573 8.05976C15.274 8.98394 15.1917 9.90813 15.1093 10.8323C15.0196 11.8398 14.9289 12.8472 14.8392 13.8546C14.7476 14.8778 14.657 15.901 14.5663 16.9232C14.4784 17.9076 14.3914 18.8909 14.3036 19.8753C14.2249 20.7615 14.1463 21.6478 14.0677 22.534C14.0029 23.2639 13.9381 23.9929 13.8734 24.7228C13.8281 25.2372 13.7818 25.7516 13.7365 26.2659C13.7281 26.3621 13.718 26.4583 13.7087 26.5555C13.4913 26.5555 13.2739 26.5555 13.0556 26.5555C12.1943 26.5555 11.333 26.5555 10.4718 26.5555C9.43378 26.5555 8.39673 26.5555 7.35876 26.5555C6.4614 26.5555 5.56405 26.5555 4.66669 26.5555C4.36325 26.5555 4.05797 26.5472 3.75268 26.5481C3.75176 26.5407 3.75176 26.5333 3.75083 26.5259C3.71105 26.0735 3.67035 25.6211 3.63057 25.1687C3.57043 24.4869 3.50938 23.8042 3.44924 23.1224C3.37338 22.2648 3.2966 21.4082 3.22074 20.5506C3.13471 19.5848 3.04867 18.619 2.96356 17.6532C2.8729 16.6346 2.78224 15.6151 2.69158 14.5966C2.60092 13.5836 2.51118 12.5697 2.42052 11.5567C2.33541 10.6075 2.25123 9.65835 2.16612 8.70919C2.09211 7.88306 2.0181 7.05787 1.94316 6.23174C1.88766 5.61839 1.83215 5.00504 1.77572 4.3917C2.10228 4.3917 2.42885 4.3917 2.75541 4.3917C2.76836 4.3917 2.78132 4.3917 2.79519 4.3917C3.97008 4.3917 5.1459 4.3917 6.32079 4.3917C6.32911 4.3917 6.33651 4.3917 6.34484 4.3917C7.77413 4.3917 9.20343 4.3917 10.6327 4.3917H10.6336C11.8677 4.3917 13.1018 4.3917 14.3369 4.3917C14.7865 4.3917 15.2379 4.3991 15.6875 4.39725C15.6884 4.39725 15.6894 4.39725 15.6894 4.39725C15.6496 4.83112 15.6098 5.26593 15.571 5.6998C15.4988 6.48615 15.4276 7.27249 15.3573 8.05976Z" fill="#7266BA"/>
<path d="M13.4197 32.2514C13.4206 32.2505 13.4206 32.2496 13.4216 32.2487C13.4197 32.2514 13.4179 32.2533 13.416 32.2561C13.4169 32.2542 13.4188 32.2524 13.4197 32.2514Z" fill="#7266BA"/>
<path d="M25.3234 30.6612C25.3234 29.3226 25.3234 27.9839 25.3234 26.6453C25.3234 25.4982 25.3234 24.351 25.3234 23.2039C25.3234 23.1419 25.3234 23.0809 25.3234 23.0189C25.3234 22.9994 25.3215 22.98 25.3187 22.9606C25.2845 22.5526 25.0236 22.2279 24.6591 22.0993C24.6591 20.7968 24.6591 19.4942 24.6591 18.1916C24.6591 17.1056 24.6591 16.0186 24.6591 14.9325C24.6591 14.8566 24.6601 14.7808 24.6591 14.7049C24.6508 14.1258 24.2872 13.6309 23.7405 13.4449C23.7285 13.4403 23.7155 13.4375 23.7026 13.4338C23.7238 13.3459 23.7359 13.2534 23.7368 13.1581C23.7396 12.3921 23.7368 11.6261 23.7368 10.8592C23.7368 10.4661 23.7368 10.0729 23.7368 9.67971C23.7368 9.21993 23.6942 8.762 23.648 8.30499C23.5286 7.12825 23.3566 5.90988 22.9079 4.80623C22.7081 4.31499 22.4759 3.76733 21.893 3.64429C21.6312 3.58878 21.3759 3.62394 21.1354 3.7405C20.9994 3.80618 20.8708 3.89129 20.7478 3.97825C20.485 4.16328 20.2399 4.37328 20.0234 4.61195C19.2593 5.45565 18.8115 6.54636 18.5719 7.64817C18.4572 8.17825 18.3675 8.73147 18.361 9.27451C18.3527 9.98314 18.361 10.6918 18.361 11.4004C18.361 11.838 18.361 12.2756 18.361 12.7131C18.361 12.9416 18.3388 13.1998 18.3878 13.4292C18.1584 13.4847 17.9456 13.5938 17.7698 13.7696C17.5099 14.0296 17.385 14.3783 17.3841 14.7419C17.3831 15.0518 17.3841 15.3608 17.3841 15.6707C17.3841 16.9936 17.3841 18.3165 17.3841 19.6404C17.3841 20.4674 17.3841 21.2935 17.3841 22.1197C17.0316 22.2677 16.7864 22.6081 16.7753 23.0198C16.7689 23.2779 16.7753 23.5379 16.7753 23.796C16.7753 25.1605 16.7753 26.525 16.7753 27.8896C16.7753 28.9997 16.7753 30.1098 16.7753 31.22C16.7753 31.3828 16.7827 31.5401 16.8059 31.702C16.891 32.3005 17.2397 32.8223 17.7245 33.1738C18.0982 33.4449 18.5617 33.5753 19.0197 33.5762C19.1936 33.5762 19.3666 33.5762 19.5405 33.5762C20.7246 33.5762 21.9088 33.5836 23.0929 33.5762C23.6387 33.5725 24.1448 33.3783 24.5611 33.0276C25.0153 32.6446 25.2753 32.0711 25.3169 31.4846C25.3382 31.2116 25.3234 30.9341 25.3234 30.6612ZM23.7174 14.5735C23.7137 14.5661 23.7109 14.5578 23.7072 14.5504C23.7146 14.5634 23.7192 14.5726 23.7174 14.5735ZM23.5879 14.3904C23.5805 14.3839 23.5693 14.3756 23.5527 14.3635C23.5564 14.3617 23.5703 14.3737 23.5879 14.3904ZM23.4833 14.3312C23.4778 14.3293 23.475 14.3275 23.4685 14.3256C23.4694 14.3238 23.475 14.3265 23.4833 14.3312ZM18.6441 14.309C18.6348 14.3099 18.6228 14.3117 18.608 14.3136C18.6089 14.3108 18.6256 14.309 18.6441 14.309ZM23.3862 14.308C23.3797 14.3071 23.376 14.3071 23.376 14.3062C23.376 14.3062 23.3806 14.3071 23.3862 14.308ZM18.3499 14.519C18.3462 14.5273 18.3434 14.5356 18.3397 14.543C18.3443 14.5301 18.348 14.519 18.3499 14.519ZM18.336 14.5569C18.3425 14.5449 18.348 14.5328 18.3545 14.5208C18.3638 14.5032 18.3749 14.4866 18.385 14.469C18.3869 14.4662 18.3878 14.4644 18.3897 14.4625C18.3943 14.457 18.3989 14.4514 18.4045 14.4459C18.4239 14.4246 18.4452 14.4061 18.4655 14.3867C18.4674 14.3857 18.4683 14.3857 18.4701 14.3839C18.496 14.37 18.5229 14.3543 18.5479 14.3386C18.5479 14.3386 18.5479 14.3386 18.5488 14.3386C18.5682 14.333 18.5876 14.3265 18.6071 14.321C18.6172 14.3182 18.6274 14.3164 18.6367 14.3136C18.6459 14.3117 18.6533 14.3108 18.6579 14.309C18.6783 14.309 18.6968 14.309 18.7014 14.309C18.7292 14.309 18.7569 14.309 18.7847 14.309C18.9743 14.309 19.164 14.309 19.3536 14.309C19.3953 14.309 19.4378 14.309 19.4794 14.309C20.1048 14.309 20.7293 14.309 21.3546 14.309C21.4518 14.309 21.548 14.309 21.6451 14.309C21.9597 14.309 22.2751 14.3108 22.5897 14.309C22.758 14.309 22.9255 14.309 23.0938 14.309C23.1577 14.309 23.2224 14.309 23.2863 14.309C23.3011 14.309 23.3149 14.309 23.3297 14.309C23.3325 14.309 23.3362 14.309 23.339 14.309C23.3501 14.309 23.3482 14.309 23.3714 14.3099C23.3797 14.3099 23.3862 14.3108 23.3927 14.3108C23.4176 14.3164 23.4593 14.3275 23.4639 14.3293C23.4731 14.3321 23.4833 14.3358 23.4926 14.3386C23.4944 14.3395 23.4944 14.3395 23.4963 14.3404C23.5175 14.3524 23.5425 14.3663 23.5462 14.3682C23.5545 14.3737 23.5629 14.3783 23.5712 14.3839C23.5814 14.3904 23.5878 14.395 23.5915 14.3978C23.6175 14.4237 23.6452 14.4551 23.6545 14.4644C23.6554 14.4662 23.6563 14.4672 23.6572 14.469C23.66 14.4746 23.6831 14.5106 23.6989 14.5393C23.7035 14.5523 23.7081 14.5643 23.7118 14.5772C23.7192 14.6004 23.7229 14.6244 23.7294 14.6475C23.7303 14.6661 23.7312 14.7012 23.7312 14.7012C23.7312 14.7058 23.7312 14.7095 23.7312 14.7142C23.7405 15.531 23.7312 16.3498 23.7312 17.1666C23.7312 18.5571 23.7312 19.9475 23.7312 21.3379C23.7312 21.572 23.7322 21.8061 23.7331 22.0401C23.2012 22.0401 22.6683 22.0401 22.1364 22.0401C20.8597 22.0401 19.584 22.0401 18.3073 22.0401C18.3073 21.6007 18.3073 21.1612 18.3073 20.7218C18.3073 19.3425 18.3073 17.9641 18.3073 16.5847C18.3073 16.1037 18.3073 15.6217 18.3073 15.1406C18.3073 15.0185 18.3073 14.8964 18.3073 14.7752C18.3073 14.7521 18.3073 14.7299 18.3073 14.7068C18.3073 14.6994 18.3064 14.6809 18.3064 14.6614C18.3101 14.6429 18.3138 14.6253 18.3184 14.6068C18.323 14.6031 18.3295 14.5791 18.336 14.5569ZM18.3156 14.6059C18.3138 14.6226 18.3119 14.6392 18.3092 14.6568C18.3101 14.6318 18.311 14.6078 18.3156 14.6059Z" fill="#7266BA"/>
</svg>
